<?xml version="1.0" encoding="UTF-8"?>
<svg width="89px" height="28px" viewBox="0 0 89 28" version="1.1" xmlns="http://www.w3.org/2000/svg" xmlns:xlink="http://www.w3.org/1999/xlink">
    <!-- Generator: Sketch 52.5 (67469) - http://www.bohemiancoding.com/sketch -->
    <title>鱼</title>
    <desc>Created with Sketch.</desc>
    <g id="Page-1" stroke="none" stroke-width="1" fill="none" fill-rule="evenodd">
        <g id="公地悲剧2" transform="translate(-723.000000, -631.000000)" fill-rule="nonzero">
            <g id="分组-7" transform="translate(503.000000, 632.000000)">
                <g id="鱼" transform="translate(221.000000, 0.000000)">
                    <path d="M6.61103649,19.7234938 C15.9950611,25.6291896 27.6666147,27.367291 41.6256972,24.9377979 C48.5457459,23.3337356 65.5785352,17.2179513 69.7049829,14.2736661 C71.9074958,19.5402808 74.56668,20.4586094 84.3911836,22.0255768 C84.3253148,19.6476307 78.0750979,12.9962174 74.56668,11.5321791 C80.8987889,9.78349717 81.5016237,5.36336722 85,2.16833807 C81.3242839,2.64243513 72.8329441,2.8272194 68.7875602,8.47258995 C63.854493,7.38128498 40.3414484,-1.02630761 21.9124775,0.104335887 C12.0369449,0.728429094 6.59258257,5.24897059 3,6.57834148" id="路径-126" stroke="#010101" stroke-width="2" fill="#FFFFFF"></path>
                    <circle id="椭圆形" stroke="#010101" fill="#FFFFFF" cx="20" cy="12" r="5"></circle>
                    <circle id="椭圆形" fill="#010101" cx="20.5" cy="11.5" r="1.5"></circle>
                    <path d="M2.85016289,12.284857 C-0.428834377,8.61453605 -0.878566223,6.18625037 1.50096735,5 C4.30666771,5.98153157 6.36585601,6.49165055 11,12.284857 C10.3265806,14.2094375 6.8415618,21.0651682 3.69067555,19.8585578 C2.53882779,19.1294009 2.36911331,16.4889554 3.69067555,14.4944777 C3.69067555,13.9933082 3.41050466,13.256768 2.85016289,12.284857 Z" id="路径-128" stroke="#010101" stroke-width="2" fill="#FFFFFF"></path>
                    <path d="M4.45313341,11.4216176 C3.4843778,10.2539323 3,9.47227625 3,9.07664953 C3,8.48320945 6.6031121,11.4945122 6.97287312,12.6425457 C7.34263414,13.7905792 3.81474794,17 3.54224564,17 C3.26974333,17 4.91899184,15.6006057 3.21880832,11.4216176 C3.5926147,11.5044905 4.0040564,11.5044905 4.45313341,11.4216176 Z" id="路径-129" fill="#010101"></path>
                    <path d="M26,2 C34,8.12606313 34,15.1260631 26,23" id="路径-130" stroke="#010101"></path>
                    <path d="M47,6 C48.3333333,7.08025617 48.3333333,8.08025617 47,9" id="路径-131" stroke="#010101"></path>
                    <path d="M54,11 C55.3333333,12.0802562 55.3333333,13.0802562 54,14" id="路径-131-copy" stroke="#010101"></path>
                    <path d="M48,16 C49.3333333,17.0802562 49.3333333,18.0802562 48,19" id="路径-131-copy-2" stroke="#010101"></path>
                    <path d="M82,5.23617055 C79.9657667,4.75474097 78.2991001,5.00935079 77,6" id="路径-132" stroke="#010101"></path>
                    <path d="M80,8.23617055 C77.9657667,7.75474097 76.2991001,8.00935079 75,9" id="路径-132-copy" stroke="#010101"></path>
                    <path d="M82,18.2361706 C79.9657667,17.754741 78.2991001,18.0093508 77,19" id="路径-132-copy-2" stroke="#010101" transform="translate(79.500000, 18.500000) scale(1, -1) translate(-79.500000, -18.500000) "></path>
                    <path d="M81,16.2361706 C78.9657667,15.754741 77.2991001,16.0093508 76,17" id="路径-132-copy-3" stroke="#010101" transform="translate(78.500000, 16.500000) scale(1, -1) translate(-78.500000, -16.500000) "></path>
                </g>
            </g>
        </g>
    </g>
</svg>