<?xml version="1.0" encoding="UTF-8"?>
<svg width="150px" height="178px" viewBox="0 0 150 178" version="1.1" xmlns="http://www.w3.org/2000/svg" xmlns:xlink="http://www.w3.org/1999/xlink">
    <!-- Generator: Sketch 52.5 (67469) - http://www.bohemiancoding.com/sketch -->
    <title>分组</title>
    <desc>Created with Sketch.</desc>
    <g id="Page-1" stroke="none" stroke-width="1" fill="none" fill-rule="evenodd">
        <g id="公地悲剧2" transform="translate(-467.000000, -85.000000)" fill-rule="nonzero">
            <g id="分组" transform="translate(468.000000, 85.000000)">
                <path d="M26.0262102,105.285187 C3.18966162,94.4220435 -4.61853823,78.6948909 2.60161069,58.1037291 C5.63146547,51.6634336 12.8768408,39.775472 19.4515255,34.2579407 C24.1702254,30.0206654 31.0637396,18.2733414 32.3970729,14.3373028 C34.2943191,11.563566 45.3140051,-5.00717459 61.3970729,1.5038934 C65.6664884,3.56536866 72.2954693,7.44605955 76.7408398,16.7698799 C77.4537354,20.1551634 79.943804,24.1285255 78.7119724,46.8690519 C81.0604098,48.4360272 95.052916,59.13091 95.052916,78.3552442 C95.052916,97.5795783 82.8505013,104.381152 60.8271838,102.744933 C46.1449722,101.65412 34.5446477,102.500871 26.0262102,105.285187 Z" id="路径-102" fill="#020202"></path>
                <path d="M43,52.7679827 C46.329409,64.2589104 46.6228811,71.1583271 43.8804164,73.4662329 C41.1379516,75.7741387 49.6881009,79.2495649 69.5308642,83.8925116 L68.9120743,74.1002368 C64.4047624,69.8450812 63.0122421,62.7343298 64.7345133,52.7679827 C66.4567845,42.8016357 59.2119467,42.8016357 43,52.7679827 Z" id="路径-119" fill="#FFFFFF"></path>
                <path d="M37.6004359,51.3168021 C45.6743754,62.588775 52.6176004,67.3679072 58.4301109,65.6541985 C67.1488766,63.0836354 75.6959881,43.060987 75.0830679,35.9735047 C74.4701476,28.8860224 71.2972391,12.3114041 60.1901535,11.5776207 C49.0830679,10.8438373 40.8139838,18.255907 34,23.5709647 C29.4573441,27.1143365 30.6574894,36.362949 37.6004359,51.3168021 Z" id="路径-107" stroke="#040404" fill="#FFFFFF"></path>
                <path d="M61.832551,11.9198116 C54.5305896,26.1907712 45.0479729,36.2718826 33.3847007,42.1631457 C21.7214285,48.0544087 22.0188502,37.9732974 34.2769659,11.9198116 L61.832551,11.9198116 Z" id="路径-108" fill="#020202"></path>
                <g id="裁判-copy-2" transform="translate(0.000000, 47.000000)">
                    <g id="分组-10-copy-4">
                        <g id="分组-5">
                            <path d="" id="路径-74" stroke="#979797"></path>
                            <path d="M102.028175,77.1295488 C99.3132965,58.4722357 95.1472649,45.6964475 89.5300802,38.8021844 C83.9128955,31.9079212 77.4588305,26.5436731 70.1678851,22.7094399 C64.8477658,28.23648 60.5594409,31 57.3029104,31 C54.04638,31 48.2879621,26.9946599 40.0276568,18.9839798 C22.1515689,26.5260131 11.676645,35.8745875 8.6028852,47.029703 C3.99224548,63.7623762 -0.935101518,102.677987 0.601044481,107 C2.13719048,111.322013 7.79073124,121.190902 20.2152349,117.045021 C32.6397386,112.89914 41.2082822,101.428107 42.9729475,99 C44.7376127,96.5718931 37.1809683,95.9152713 36.8214332,94.1955748 C36.4618981,92.4758783 44.374203,74.1261202 36.2240361,77.1295488 C28.0738692,80.1329774 22.9208594,81.5770532 22.3539277,83.7885266 C21.786996,86 16.4401874,105.39643 29.9440815,111.322013" id="路径-79" stroke="#020202" stroke-width="2" fill="#FFFFFF"></path>
                            <path d="M102.350736,77.4425681 C104.500077,72.4139305 107.557215,67.0922964 110.628488,67.0922964 C110.96564,68.7464449 114.424585,62.906914 121.005323,49.5737035 C121.969137,43.2771218 121.969137,38.0606586 121.005323,33.9243138 C120.711101,32.2876866 120.711101,29.7646071 121.005323,26.3550753 C122.113631,21.3089163 123.691019,21.3089163 125.737487,26.3550753 C125.359893,28.9636844 125.709347,31.4867639 126.78585,33.9243138 C134.720431,22.3939443 140.155429,17.1251988 143.090847,18.1180773 C144.571121,18.7653952 144.486028,19.9126639 144.113015,21.5246313 C146.98432,21.5246313 147.784007,22.8136567 146.98432,24.1716644 C146.390116,24.9458501 145.890879,25.6148484 145.486608,26.1786593 C147.845207,26.6642191 148.344444,27.8735954 146.98432,29.8067882 C146.306876,30.3759088 145.626814,30.9638486 144.944134,31.5706077 C146.179658,32.6864606 146.179658,33.9166079 144.944134,35.2610496 C143.708609,36.6054914 139.622217,41.376376 132.684956,49.5737035 C128.752219,57.8581592 126.78585,63.2638736 126.78585,65.7908468 C125.888525,68.1945213 123.961682,73.1128391 121.005323,80.5458001 C124.228681,82.0519903 124.854558,84.8975931 122.882954,89.0826084 C120.91135,93.2676238 118.992884,97.8309713 117.127556,102.772651 L109.489816,110.452858 C104.124957,115.94267 99.2950182,115.434439 95,108.928165" id="路径-83" stroke="#020202" stroke-width="1.5" fill="#FFFFFF"></path>
                            <path d="M135,30.6944896 C140.030842,24.4789223 143.364175,21.3711386 145,21.3711386" id="路径-84" stroke="#020202"></path>
                            <path d="M137,33.7056085 C140.623002,29.6713142 143.475665,27.1027781 145.557988,26" id="路径-85" stroke="#020202"></path>
                            <path d="M138,38.3697142 C141.965023,33.2454897 145.175836,30.191598 147.632439,29.2080392" id="路径-86" stroke="#020202"></path>
                            <path d="M128.567331,34 C128.828123,38.4718224 128.305679,41.0803855 127,41.8256893" id="路径-87" stroke="#020202"></path>
                            <path d="M110.322861,66.0551181 C112.952025,77.8137367 117.058852,82.9790911 122.643341,81.5511811" id="路径-88" stroke="#020202" stroke-width="2"></path>
                            <path d="M102.69691,76.3858268 C99.966568,91.6780704 105.022401,100.971781 117.864408,104.266957" id="路径-89" stroke="#020202" stroke-width="2"></path>
                        </g>
                        <polyline id="路径-96" stroke="#020202" points="31 24 34.2609368 47.5033512 42.7379326 49.8835427 37.5052516 58.3926299 47 124"></polyline>
                        <polyline id="路径-96-copy" stroke="#020202" transform="translate(85.062318, 75.813271) scale(-1, 1) rotate(19.000000) translate(-85.062318, -75.813271) " points="76.1942986 28.257439 77.1390325 48.3989113 83.2222338 51.1564558 80.0521561 59.2602717 93.9303382 123.369102"></polyline>
                        <path d="M40,18 L51.3275663,61.1159365 C52.8209032,66.8000015 53.7410843,72.6193656 54.0743274,78.4868692 L57,130" id="路径-98" stroke="#020202" stroke-width="2"></path>
                        <path d="M63.7817632,26.433324 L76.9039743,62.7747769 C77.9189495,65.5857112 78.7900728,68.4465251 79.5139576,71.346097 L92.2673686,122.430789" id="路径-98-copy" stroke="#020202" stroke-width="2" transform="translate(78.024566, 74.432057) scale(-1, 1) rotate(27.000000) translate(-78.024566, -74.432057) "></path>
                        <polyline id="路径-104" stroke="#020202" stroke-width="2" points="51.4384516 41.006034 58.5976683 31.4457212 66.4375 38.1903507"></polyline>
                    </g>
                    <g id="分组-8" transform="translate(31.000000, 30.000000)" stroke="#090909">
                        <path d="M29.8055668,40.1996839 C33.9903634,31.7947195 38.4315476,25.2416266 43.1291195,20.5404051 C50.1754774,13.4885729 59.6626607,9.96958701 63.2898295,8.99451915 C66.9169982,8.01945129 67.8001879,10.1075086 66.1781569,11.2285184 C64.5561259,12.3495282 49.9221504,19.0132939 53.1266299,18.1518548 C56.3311095,17.2904157 60.9353977,18.9722556 63.1875159,25.8797933 C65.4396341,32.787331 64.1589546,35.7924327 60.3777057,37.4728873 C56.5964568,39.1533418 58.0007856,34.75868 60.411482,32.1936967 C56.6226385,37.6679697 44.8991806,46.5975015 40.9427235,44.8689047 C40.1344684,44.5157738 27.4099369,79.1762826 20.0162204,76.7611939 C14.4761727,76.3724563 10.9441033,65.3078166 11.5251742,64.0116909 C12.1189265,62.6872786 18.2123907,54.7499429 29.8055668,40.1996839 Z" id="路径-24" stroke-width="1.5" fill="#FFFFFF" transform="translate(39.210367, 42.812005) rotate(23.000000) translate(-39.210367, -42.812005) "></path>
                        <path d="M60.9370743,30.8862044 C65.1635366,31.0575206 67.5054289,31.9127231 67.9627511,33.4518118" id="路径-81" transform="translate(64.449913, 32.169008) rotate(8.000000) translate(-64.449913, -32.169008) "></path>
                        <path d="M60.549027,33.6309692 C64.7754893,33.8022853 67.1173815,34.6574878 67.5747037,36.1965766" id="路径-81-copy" transform="translate(64.061865, 34.913773) rotate(8.000000) translate(-64.061865, -34.913773) "></path>
                        <path d="M60.0316305,37.2906555 C64.2580928,37.4619717 66.599985,38.3171742 67.0573072,39.8562629" id="路径-81-copy-2" transform="translate(63.544469, 38.573459) rotate(8.000000) translate(-63.544469, -38.573459) "></path>
                    </g>
                </g>
                <ellipse id="椭圆形" fill="#020202" cx="53" cy="37.5" rx="2" ry="2.5"></ellipse>
                <ellipse id="椭圆形-copy" fill="#020202" cx="68" cy="37.5" rx="2" ry="2.5"></ellipse>
                <ellipse id="椭圆形" stroke="#020202" cx="50.5" cy="37.5" rx="6.5" ry="7.5"></ellipse>
                <ellipse id="椭圆形-copy-3" stroke="#020202" cx="66.5" cy="37.5" rx="6.5" ry="7.5"></ellipse>
                <path d="M47,36.9636137 C50.6133613,33.4217092 52.8444623,33.0545827 53.693303,35.8622342" id="路径-110" stroke="#020202"></path>
                <path d="M62,36.9636137 C65.6133613,33.4217092 67.8444623,33.0545827 68.693303,35.8622342" id="路径-110-copy" stroke="#020202"></path>
                <path d="" id="路径-112" stroke="#979797"></path>
                <path d="M59,9.30740905 C66.286042,23.8319447 72.6075525,32.080865 77.9645315,34.0541697 C74.8095482,22.6856148 68.2980747,12.6324602 58.4301109,3.89470602 L59,9.30740905 Z" id="路径-109" fill="#020202"></path>
                <path d="M57.5033452,43.2412536 C60.3451924,44.5454044 60.1774107,45.9934628 57,47.5854285" id="路径-120" stroke="#020202"></path>
                <path d="M54.4068148,55.7466829 C56.8469693,57.2027666 58.9378533,57.2027666 60.6794668,55.7466829" id="路径-121" stroke="#0C0C0C"></path>
                <path d="M34,42.3651895 C31.3333333,46.6924524 32.3333333,49.106342 37,49.6068582 C36.0000987,47.7364085 35.0000987,45.322519 34,42.3651895 Z" id="路径-111" fill="#FFFFFF"></path>
                <path d="M56.8855483,37.3863361 C58.4223602,36.5438975 59.5238953,36.5438975 60.1901535,37.3863361" id="路径-122" stroke="#020202"></path>
                <path d="M40.1790297,36.1505322 L44,36.9829686" id="路径-123" stroke="#020202"></path>
            </g>
        </g>
    </g>
</svg>