<?xml version="1.0" encoding="UTF-8"?>
<svg width="601px" height="358px" viewBox="0 0 601 358" version="1.1" xmlns="http://www.w3.org/2000/svg" xmlns:xlink="http://www.w3.org/1999/xlink">
    <!-- Generator: Sketch 52.5 (67469) - http://www.bohemiancoding.com/sketch -->
    <title>玩家</title>
    <desc>Created with Sketch.</desc>
    <g id="Page-1" stroke="none" stroke-width="1" fill="none" fill-rule="evenodd">
        <g id="信任博弈1" transform="translate(-421.000000, -385.000000)">
            <g id="玩家" transform="translate(423.000000, 363.000000)">
                <rect id="矩形" stroke="#494949" stroke-width="3" fill="#FFFFFF" x="164" y="214" width="13" height="144"></rect>
                <path d="M567.198955,229.0373 L567.198955,95.9809842 C567.20257,88.2584352 573.43085,81.9999991 581.112573,82 C588.784066,82.0145164 594.996403,88.2687049 595,95.9809842 L595,257.012433 C595,264.737553 588.770661,271 581.086382,271 L494.913618,271 C487.229339,271 481,264.737553 481,257.012433 C481,249.287314 487.229339,243.024867 494.913618,243.024867 L553.285337,243.024867 C560.969616,243.024867 567.198955,236.76242 567.198955,229.0373 Z" id="路径" stroke="#CDCDCD" fill="#FFFFFF"></path>
                <path d="M569.198955,233.0373 L569.198955,99.9809842 C569.20257,92.2584352 575.43085,85.9999991 583.112573,86 C590.784066,86.0145164 596.996403,92.2687049 597,99.9809842 L597,261.012433 C597,268.737553 590.770661,275 583.086382,275 L496.913618,275 C489.229339,275 483,268.737553 483,261.012433 C483,253.287314 489.229339,247.024867 496.913618,247.024867 L555.285337,247.024867 C562.969616,247.024867 569.198955,240.76242 569.198955,233.0373 Z" id="路径" stroke="#343434" stroke-width="3" fill="#FFFFFF"></path>
                <g id="分组-2" transform="translate(98.500000, 183.000000) scale(-1, 1) translate(-98.500000, -183.000000) translate(0.000000, 1.000000)">
                    <path d="M168.661029,233.939861 L168.661029,101.125853 C168.664655,93.417368 174.911086,87.1703292 182.615196,87.17033 C190.309047,87.18482 196.539489,93.4276189 196.543096,101.125853 L196.543096,261.864048 C196.543096,269.5751 190.295603,275.826142 182.588929,275.826142 L96.1650294,275.826142 C88.4583559,275.826142 82.2108627,269.5751 82.2108627,261.864048 C82.2108627,254.152997 88.4583559,247.901955 96.1650294,247.901955 L154.706863,247.901955 C162.413536,247.901955 168.661029,241.650912 168.661029,233.939861 Z" id="路径-copy" stroke="#343434" stroke-width="3" fill="#FFFFFF"></path>
                    <path d="M56.8790802,181.135178 L53.9569135,192.961893 C53.9569135,192.961893 51.3302469,192.370557 47.3902469,191.358716 C34.0467802,187.902687 5.90204688,179.604276 17.1835802,173.513518 C26.9088135,168.2572 41.2307135,173.368969 49.7345469,177.3572 C52.8471469,178.822398 55.1848802,180.136478 56.2289802,180.754095 C56.6689469,181.00377 56.8790802,181.135178 56.8790802,181.135178 Z" id="路径-copy-2" stroke="#1D1D1D" stroke-width="3" fill="#FFFFFF"></path>
                    <path d="M134.586596,132.062811 C134.586596,132.062811 118.925096,123.008804 111.964429,148.981584 C105.003763,174.954364 104.347096,186.919057 104.347096,186.919057 L54.8869627,177.024039 L53.3175294,195.099201 C53.3175294,195.099201 106.198896,212.182234 112.850929,210.940429 C119.502963,209.698624 141.087596,173.489165 141.087596,173.489165 C141.087596,173.489165 160.708796,145.426999 134.586596,132.062811 Z" id="路径-copy-3" stroke="#2E2E2E" stroke-width="3" fill="#FFFFFF"></path>
                    <path d="M35.0414716,333.430087 L14.8489716,345.06626 C14.8489716,345.06626 -11.3126284,348.272614 6.11530491,354.383083 C23.5432382,360.493552 64.0595716,354.113697 64.0595716,354.113697 C64.0595716,354.113697 61.8072049,335.900556 58.6683382,333.357812 C55.5294716,330.815069 35.0414716,333.430087 35.0414716,333.430087 Z" id="路径-copy-4" stroke="#333333" stroke-width="3" fill="#FFFFFF"></path>
                    <path d="M113.881896,202.452871 C113.881896,202.452871 103.834896,207.709188 85.9866961,212.249333 C75.5259961,214.877491 62.4320627,216.743484 53.3831961,217.807889 C43.9095855,218.839445 35.9948374,225.489846 33.3417294,234.647816 C32.515392,237.290361 32.4358468,240.110135 33.1118961,242.795109 C36.0865961,253.196047 31.6475294,337.743917 31.6475294,337.743917 L62.3138627,340.582329 C62.3138627,340.582329 58.1308961,325.003917 64.4808627,317.152293 C70.8308294,309.300668 63.4170627,249.536336 63.4170627,249.536336 C63.4170627,249.536336 74.5278627,244.937058 107.728929,244.63482 C138.487196,252.519297 151.160863,218.832871 146.413163,209.39121 C141.665463,199.949549 113.881896,202.452871 113.881896,202.452871 Z" id="路径-copy-5" stroke="#363636" stroke-width="3" fill="#FFFFFF"></path>
                    <path d="M44.8859322,340.000484 L24.6934322,351.636657 C24.6934322,351.636657 -1.4550345,354.816729 15.9597655,360.95348 C33.3745655,367.090231 73.9040322,360.684094 73.9040322,360.684094 C73.9040322,360.684094 71.6516655,342.470953 68.5127988,339.92821 C65.3739322,337.385466 44.8859322,340.000484 44.8859322,340.000484 Z" id="路径-copy-6" stroke="#3A3A3A" stroke-width="3" fill="#FFFFFF"></path>
                    <path d="M116.922263,251.87358 C83.7211961,252.175818 72.6103961,256.775096 72.6103961,256.775096 C72.6103961,256.775096 80.0241627,316.56571 73.6741961,324.391053 C67.3242294,332.216396 71.5071961,347.821089 71.5071961,347.821089 L40.8408627,344.982678 C40.8408627,344.982678 40.8933961,343.983977 40.9787627,342.196829 C41.7142294,327.505421 44.9515961,259.304699 42.2920961,250.033869 C41.620987,247.357212 41.7005126,244.547227 42.5219294,241.912858 C45.1622811,232.742482 53.0759141,226.075267 62.5568294,225.033508 C71.5991294,223.975674 84.6930627,222.135963 95.1537627,219.474952 L95.6659627,219.343544 C113.198963,214.836252 123.048963,209.67849 123.048963,209.67849 C123.048963,209.67849 150.832529,207.181739 155.580229,216.6234 C156.249816,218.120586 156.581631,219.746953 156.552096,221.386938 C156.788496,234.126938 143.720829,258.752786 116.922263,251.87358 Z" id="路径-copy-7" stroke="#424242" stroke-width="3" fill="#FFFFFF"></path>
                    <path d="M70.852051,195.969696 L69.729151,208.124931 C69.729151,208.124931 67.030251,207.93439 63.0180177,207.513884 C49.3133844,206.088108 20.242751,202.080166 30.5195844,194.37309 C39.3583177,187.75013 54.2777844,190.641104 63.2806844,193.321826 C66.5640177,194.307386 69.0856177,195.260094 70.2085177,195.713451 C70.6222177,195.871141 70.852051,195.969696 70.852051,195.969696 Z" id="路径-copy-8" stroke="#404040" stroke-width="3" fill="#FFFFFF"></path>
                    <path d="M147.805856,102.498195 C147.805856,102.498195 152.455056,113.056823 155.383789,117.826931 C158.312523,122.59704 121.355323,127.025487 121.355323,127.025487 C121.355323,127.025487 117.520389,113.733574 119.352489,112.209242 C121.184589,110.68491 144.712956,105.586282 147.805856,102.498195 Z" id="路径-copy-11" stroke="#232323" stroke-width="2" fill="#FFFFFF"></path>
                    <path d="M151.462929,227.942556 C132.905529,245.577502 100.899596,222.22631 92.2709961,215.347104 C90.8722961,214.230137 90.0908627,213.540245 90.0908627,213.540245 C93.4989627,210.347032 96.4933627,203.579523 98.8639294,195.300823 C101.073313,187.38018 102.669361,179.300953 103.637896,171.134902 C105.289935,157.328465 110.127808,144.095485 117.769363,132.481256 C118.774063,130.970065 119.739363,129.557429 120.744063,128.322195 C127.750696,119.406166 139.524729,113.742483 139.524729,113.742483 C164.372996,106.475624 167.715429,143.355263 167.052196,144.419668 C166.388963,145.484072 173.034429,207.436346 151.462929,227.942556 Z" id="路径-copy-9" stroke="#202020" stroke-width="3" fill="#FFFFFF"></path>
                    <path d="M140.542563,135.859984 C140.542563,135.859984 123.725329,129.243594 120.691529,155.965399 C117.657729,182.687204 118.806896,194.612475 118.806896,194.612475 L68.4208627,192.201139 L69.5568961,210.309154 C69.5568961,210.309154 124.395129,219.317168 130.784496,217.096374 C137.173863,214.87558 153.150563,175.84085 153.150563,175.84085 C153.150563,175.84085 168.339263,145.176807 140.542563,135.859984 Z" id="路径-copy-10" stroke="#323232" stroke-width="3" fill="#FFFFFF"></path>
                    <rect id="矩形-copy" stroke="#4D4D4D" stroke-width="2" fill="#FFFFFF" x="137.370863" y="275.740727" width="9.52823333" height="77.7737906"></rect>
                    <rect id="矩形-copy-2" stroke="#4D4D4D" stroke-width="2" fill="#FFFFFF" x="103.096667" y="353.487365" width="78.2812333" height="7.49025271" rx="3.74512635"></rect>
                    <g id="分组-2-copy-5" transform="translate(127.672078, 64.054311) scale(-1, 1) rotate(28.000000) translate(-127.672078, -64.054311) translate(87.172078, 13.554311)" fill-rule="nonzero">
                        <path d="M34.7649489,63.103288 L39.723648,63.1029383 C36.1417378,76.4197773 26.8493354,79.2380203 11.8464408,71.5576674 C7.56846768,66.5967874 -1.73836264,57.0942341 7.92994912,40.6123039 C14.3028492,35.8177194 17.9483705,34.8551509 21.7095457,27.8122828 C24.2169959,23.1170374 28.5701177,16.7119108 34.7689112,8.59690307 C44.5682769,2.13775986 52.5662042,1.3327076 58.7626932,6.18174628 C61.8291593,10.1168611 71.518814,23.2534196 61.8517658,36.4067156 C61.1659427,34.8168822 60.5581891,32.8288579 60.0285051,30.4426427 L56.0650479,34.6115066 L58.760496,36.4069336 L45.2134888,38.1583165 L45.2129417,45.6855531 L45.2127913,47.7540791 L47.1570988,47.753942 L45.2125982,50.4100089 L47.1568284,51.4729644 L47.1567002,53.2369775 L47.1561728,60.4921344 L37.0940269,51.4736741 C29.9491022,50.5322118 27.1979106,52.2351559 28.840452,56.5825064 C29.9149592,58.9963116 31.8897915,61.1699055 34.7649489,63.103288 Z" id="路径-2-copy" fill="#141414" transform="translate(34.864131, 39.417217) rotate(-5.000000) translate(-34.864131, -39.417217) "></path>
                        <path d="M50.4194467,39.4588444 C51.4752505,35.7057837 53.908211,34.4546169 57.7183283,35.7053439" id="路径-3-copy" stroke="#141414" stroke-width="2" transform="translate(54.068888, 37.347624) rotate(-5.000000) translate(-54.068888, -37.347624) "></path>
                        <path d="M56.2578962,46.8897684 C56.4553777,43.3318102 56.4555307,41.2285223 56.2583554,40.5799047 C55.4893647,38.0502743 60.1864524,35.4255574 61.6985246,41.1985191 C63.2105967,46.9714807 57.3279151,43.0318557 56.2583554,40.5799047 C55.5453155,38.9452707 55.5451625,41.0485586 56.2578962,46.8897684 Z" id="路径-4-copy" stroke="#232323" fill="#232323" transform="translate(58.834461, 42.310891) rotate(-5.000000) translate(-58.834461, -42.310891) "></path>
                        <path d="M65.5848496,36.650312 C71.7790211,39.7225366 75.3968577,42.2752196 76.4383593,44.3083609 C78.0006117,47.3580729 79.4548503,49.225488 76.438003,49.2257014 C73.4211558,49.2259149 71.0274753,48.6579801 72.9486583,53.8984808 C74.229447,57.3921479 75.3921644,61.32083 76.4368106,65.6845272 C76.7070817,68.2364089 74.2721595,70.9583319 69.1320442,73.8502961 C63.9919289,76.7422604 64.3848801,82.9198786 70.3108981,92.3831507" id="路径-5-copy" stroke="#141414" stroke-width="2" transform="translate(71.873697, 64.516731) rotate(-5.000000) translate(-71.873697, -64.516731) "></path>
                        <path d="M65.5518218,56.9772838 C68.9241341,58.1475348 71.7024939,58.537501 73.8869014,58.1471824" id="路径-6-copy" stroke="#141414" transform="translate(69.719362, 57.635451) rotate(-5.000000) translate(-69.719362, -57.635451) "></path>
                        <path d="M24.2966667,68.9891697 C39.8743521,87.243986 45.1870509,97.7566214 40.2347631,100.527076" id="路径-8" stroke="#141414" stroke-width="2"></path>
                    </g>
                </g>
                <rect id="矩形" stroke="#494949" stroke-width="3" fill="#FFFFFF" x="419" y="214" width="13" height="147"></rect>
                <rect id="矩形" fill="#000000" opacity="0.1" x="164" y="214" width="13" height="11"></rect>
                <rect id="矩形" fill="#000000" opacity="0.1" x="419" y="214" width="13" height="11"></rect>
                <path d="M210,126 C209.762626,128.302222 209.462121,130.635556 209.098485,133 L207,133 L207,126 L210,126 Z" id="路径" fill="#000000" opacity="0.1"></path>
                <path d="M448,197.997067 C448.00365,198.549639 448.513103,198.996797 449.142657,199 L450.853302,199 C451.484375,199 451.99596,198.550972 451.99596,197.997067 C452.001347,197.95811 452.001347,197.918723 451.99596,197.879765 C451.925349,197.378884 451.441676,197.002083 450.866667,197 L449.156022,197 C448.633829,197.004785 448.180948,197.317968 448.053458,197.762463 C448.024164,197.838309 448.006195,197.917167 448,197.997067 Z" id="路径" fill="#E3EDF9"></path>
                <path d="M443.002143,197.997074 C443.005794,198.549642 443.51549,198.996797 444.145343,199 L445.8568,199 C446.159996,199 446.450773,198.894335 446.665164,198.70625 C446.879556,198.518164 447,198.263066 447,197.997074 C446.999367,197.903706 446.98361,197.810892 446.953202,197.721415 C446.902668,197.558743 446.803407,197.410907 446.665731,197.293266 C446.454441,197.104466 446.165073,196.998691 445.863485,197.000012 L444.118601,197.000012 C443.667958,196.998187 443.257636,197.22747 443.068997,197.586519 C443.015283,197.717994 442.992539,197.857663 443.002143,197.997074 Z" id="路径" fill="#E3EDF9"></path>
                <path d="M438,198.000009 C438.003653,198.55096 438.5136,198.996806 439.143764,199 L440.856066,199 C441.48775,199 441.999831,198.552289 441.999831,198.000009 C442.002728,197.856756 441.968424,197.714794 441.8995,197.584808 C441.710252,197.232588 441.307806,197.005583 440.862755,197.000017 L439.150453,197.000017 C438.846562,196.99845 438.554598,197.103302 438.339711,197.291178 C438.124823,197.479054 438.004896,197.734317 438.006689,198.000009 L438,198.000009 Z" id="路径" fill="#E3EDF9"></path>
                <path d="M433,197.997074 C433.003654,198.549642 433.513735,198.996797 434.144064,199 L435.856816,199 C436.283159,198.999711 436.673952,198.791624 436.87078,198.460089 C437.067608,198.128554 437.037814,197.728578 436.793477,197.422297 L436.659668,197.293266 C436.448218,197.104466 436.158631,196.998691 435.856816,197.000012 L434.144064,197.000012 C433.828793,197.003366 433.528901,197.119973 433.31445,197.322591 C433.113398,197.502919 433.000576,197.744919 433,197.997074 Z" id="路径" fill="#E3EDF9"></path>
                <path d="M448.033461,198 C448.010384,198.063156 447.999151,198.128177 448.00005,198.193396 C448.0037,198.6378 448.513147,198.997424 449.142693,199 L450.853317,199 C451.484381,199 451.99596,198.638871 451.99596,198.193396 C452.001347,198.162065 452.001347,198.130388 451.99596,198.099057 L448.033461,198 Z" id="路径" fill="#000000" opacity="0.1"></path>
                <path d="M443.093645,197 C443.033403,197.178168 443.001586,197.36946 443,197.563025 C443.003653,198.354736 443.513622,198.99541 444.143813,199 L445.856187,199 C446.487898,199 447,198.356644 447,197.563025 C446.999366,197.42925 446.983601,197.296268 446.953177,197.168067 L443.093645,197 Z" id="路径" fill="#000000" opacity="0.1"></path>
                <path d="M438.173906,197 C438.061356,197.207023 438.001154,197.445764 438,197.689655 C438.003653,198.411598 438.5136,198.995815 439.143764,199 L440.856066,199 C441.48775,199 441.999831,198.413339 441.999831,197.689655 C442.002728,197.501943 441.968424,197.315923 441.8995,197.145594 L438.173906,197 Z" id="路径" fill="#000000" opacity="0.1"></path>
                <path d="M433.000009,197.808362 C433.003663,198.464903 433.513743,198.996194 434.144071,199 L435.856818,199 C436.283161,198.999657 436.673953,198.752416 436.87078,198.358499 C437.067608,197.964583 437.037814,197.489346 436.793477,197.125436 L433.314459,197 C433.111786,197.215983 432.998834,197.506351 433.000009,197.808362 Z" id="路径" fill="#000000" opacity="0.1"></path>
                <path d="M141.00647,201 L173,201 L173,199.494662 C173.000766,198.105373 171.935939,196.965773 170.593206,196.918862 L144.933684,196.002279 C143.903618,195.966027 142.903409,196.363513 142.161928,197.103783 C141.420447,197.844053 141.001156,198.863748 141,199.929538 L141.00647,201 Z" id="路径" fill="#D6D6E3"></path>
                <path d="M457,181.00452 L454.098893,193 C454.098893,193 451.491156,192.400226 447.579551,191.373946 C434.332249,187.8686 406.39035,179.451771 417.590579,173.274099 C427.245724,167.942774 441.464408,173.127488 449.906956,177.17263 C452.997124,178.658737 455.31801,179.991568 456.354585,180.617999 C456.791381,180.871237 457,181.00452 457,181.00452 Z" id="路径" stroke="#1D1D1D" stroke-width="3" fill="#FFFFFF"></path>
                <path d="M456.8,183.242105 L454.666667,192 C454.666667,192 452,191.393684 448,190.356211 L450.406667,176 C453.566667,177.502316 455.94,178.849684 457,179.482947 L456.8,183.242105 Z" id="路径" fill="#000000" opacity="0.1"></path>
                <polygon id="路径" stroke="#252525" fill="#FFFFFF" points="456.105874 193 448 190.979481 450.519217 176 457 177.612466"></polygon>
                <polygon id="路径" fill="#000000" opacity="0.1" points="456.185736 193 453 192.139364 454.200594 177 457 177.756316"></polygon>
                <path d="M534.404269,131.518936 C534.404269,131.518936 518.716714,122.517815 511.744467,148.338882 C504.772221,174.15995 504.114461,186.054755 504.114461,186.054755 L454.572044,176.217536 L453,194.187117 C453,194.187117 505.969342,211.170364 512.632442,209.935813 C519.295542,208.701262 540.916084,172.70331 540.916084,172.70331 C540.916084,172.70331 560.569927,144.805061 534.404269,131.518936 Z" id="路径" stroke="#2E2E2E" stroke-width="3" fill="#FFFFFF"></path>
                <g id="分组" opacity="0.1" transform="translate(452.000000, 177.000000)" fill="#000000">
                    <polygon id="路径" points="3.94375 15.9552 0.59375 15.1104 1.85625 0.2496 4.8 0.992"></polygon>
                </g>
                <g id="分组-3" transform="translate(377.500000, 132.000000) scale(-1, 1) translate(-377.500000, -132.000000) translate(316.000000, 62.000000)">
                    <path d="M122.881604,134.912676 C122.92107,137.246009 121.237219,139.158685 119.152139,139.158685 L79.7855615,139.158685 L79.7855615,135.057277 L112.541711,135.057277 C113.955882,135.057277 114.837273,133.348357 114.126898,131.981221 L84.4227273,71.6103286 C83.9943346,70.7233948 83.1058182,70.1500832 82.1205882,70.1248826 L67.4263636,70.1248826 L67.4263636,63.2234742 L85.9816043,63.2234742 C86.670971,63.2408661 87.2928586,63.6416293 87.5931016,64.2619718 L121.645027,129.989671 C122.429687,131.514154 122.852795,133.198611 122.881604,134.912676 Z" id="路径" stroke="#373737" fill="#FFFFFF"></path>
                    <path d="M50.5812834,123.962441 L50.0419251,124.869484 L44.9969519,121.504225 L60.6054545,1.57089202 L64.6243316,1.57089202 C64.6243316,1.57089202 64.7887701,2.12300469 65.0584492,3.17464789 C67.7486631,13.5399061 80.9629412,72.2413146 50.5812834,123.962441 Z" id="路径" stroke="#373737" fill="#FFFFFF"></path>
                    <polygon id="矩形" stroke="#373737" fill="#FFFFFF" transform="translate(52.570477, 62.663173) rotate(-83.170000) translate(-52.570477, -62.663173) " points="-9.63855138 57.8891748 114.767028 58.0448999 114.779505 67.4371721 -9.62607477 67.281447"></polygon>
                    <path d="M7.94566845,134.689202 C7.96838415,134.777205 7.97944118,134.867807 7.97855615,134.958685 C7.97496363,135.577929 7.47349006,136.079039 6.85379679,136.082629 L5.16994652,136.082629 C4.54875908,136.082629 4.04518717,135.579422 4.04518717,134.958685 C4.03988469,134.915027 4.03988469,134.870888 4.04518717,134.82723 L7.94566845,134.689202 Z" id="路径" fill="#000000" opacity="0.1"></path>
                    <path d="M12.9314439,134.511737 C12.9906832,134.651093 13.0219699,134.800713 13.0235294,134.952113 C13.0199369,135.571357 12.5184633,136.072466 11.8987701,136.076056 L10.2149198,136.076056 C9.59373235,136.076056 9.09016043,135.57285 9.09016043,134.952113 C9.09078343,134.847479 9.10628606,134.743466 9.13620321,134.643192 L12.9314439,134.511737 Z" id="路径" fill="#000000" opacity="0.1"></path>
                    <path d="M17.3449733,134.360563 C17.4556528,134.538137 17.5148542,134.742916 17.5159893,134.952113 C17.5123968,135.571357 17.0109232,136.072466 16.3912299,136.076056 L14.7073797,136.076056 C14.0861922,136.076056 13.5826203,135.57285 13.5826203,134.952113 C13.5797708,134.791103 13.6135048,134.631545 13.6812834,134.485446 L17.3449733,134.360563 Z" id="路径" fill="#000000" opacity="0.1"></path>
                    <path d="M22.5609626,134.958685 C22.5573701,135.577929 22.0558965,136.079039 21.4362032,136.082629 L19.7523529,136.082629 C19.3332033,136.082306 18.9490047,135.849109 18.7554983,135.47757 C18.5619919,135.106031 18.5912827,134.657792 18.8314973,134.314554 L22.2518182,134.196244 C22.4510716,134.399958 22.5621178,134.67383 22.5609626,134.958685 Z" id="路径" fill="#000000" opacity="0.1"></path>
                    <path d="M32.6509091,139.441315 L0.124972842,139.441315 L0.124973262,137.962441 C0.124194401,136.597576 1.20674059,135.478011 2.57181818,135.431925 L28.6583422,134.531455 C29.7055493,134.495841 30.7224033,134.886339 31.4762231,135.613594 C32.2300429,136.34085 32.656311,137.342619 32.6574866,138.389671 L32.6509091,139.441315 Z" id="路径" fill="#393939"></path>
                    <g id="分组-4" transform="translate(3.946524, 133.427230)" fill="#FFFFFF" stroke="#979797">
                        <path d="M4.03203209,1.5314554 C4.02843957,2.15069926 3.526966,2.65180915 2.90727273,2.65539906 L1.22342246,2.65539906 C0.602235019,2.65539906 0.0986631016,2.15219234 0.0986631016,1.5314554 C0.093360624,1.48779711 0.093360624,1.44365829 0.0986631016,1.4 C0.16816799,0.838683491 0.644264561,0.416419027 1.21026738,0.414084507 L2.89411765,0.414084507 C3.40813147,0.419447108 3.85391793,0.770418089 3.97941176,1.2685446 C4.00824693,1.35354126 4.02593441,1.44191454 4.03203209,1.5314554 Z" id="路径"></path>
                        <path d="M9.07700535,1.5314554 C9.07341283,2.15069926 8.57193926,2.65180915 7.95224599,2.65539906 L6.26839572,2.65539906 C5.64720828,2.65539906 5.14363636,2.15219234 5.14363636,1.5314554 C5.14425937,1.42682221 5.159762,1.32280861 5.18967914,1.22253521 C5.23939873,1.04023354 5.33705832,0.874559591 5.47251337,0.742723005 C5.68039557,0.531142463 5.96509586,0.412603371 6.26181818,0.414084507 L7.94566845,0.414084507 C8.38904304,0.412038813 8.79274633,0.668988185 8.97834225,1.0713615 C9.04242592,1.2163522 9.07600822,1.37295596 9.07700535,1.5314554 Z" id="路径"></path>
                        <path d="M13.5628877,1.5314554 C13.5592952,2.15069926 13.0578216,2.65180915 12.4381283,2.65539906 L10.7542781,2.65539906 C10.1330906,2.65539906 9.62951872,2.15219234 9.62951872,1.5314554 C9.62666921,1.37044587 9.66040316,1.21088764 9.72818182,1.06478873 C9.91428586,0.668909831 10.3100441,0.413767127 10.7477005,0.407511737 L12.4315508,0.407511737 C12.7303925,0.405749891 13.017505,0.523599195 13.2288217,0.734762648 C13.4401385,0.945926101 13.5580733,1.23283038 13.5563102,1.5314554 L13.5628877,1.5314554 Z" id="路径"></path>
                        <path d="M18.6144385,1.5314554 C18.610846,2.15069926 18.1093724,2.65180915 17.4896791,2.65539906 L15.8058289,2.65539906 C15.3866793,2.65507563 15.0024807,2.4218794 14.8089742,2.05034028 C14.6154678,1.67880116 14.6447587,1.23056202 14.8849733,0.887323944 L15.0165241,0.742723005 C15.2244063,0.531142463 15.5091066,0.412603371 15.8058289,0.414084507 L17.4896791,0.414084507 C17.7996303,0.417843142 18.0944625,0.548520671 18.3052941,0.775586854 C18.5029536,0.977674564 18.6138724,1.2488749 18.6144385,1.5314554 Z" id="路径"></path>
                    </g>
                </g>
                <path d="M434.951055,332.194235 L414.737091,343.931546 C414.737091,343.931546 388.547682,347.165768 405.99414,353.329347 C423.440599,359.492926 464,353.057619 464,353.057619 C464,353.057619 461.745239,334.686177 458.603036,332.121332 C455.460833,329.556488 434.951055,332.194235 434.951055,332.194235 Z" id="路径" stroke="#333333" stroke-width="3" fill="#FFFFFF"></path>
                <path d="M514.423123,202.299657 C514.423123,202.299657 504.353061,207.539646 486.463894,212.065685 C475.979183,214.68568 462.855194,216.545875 453.785557,217.606973 C444.290202,218.635325 436.357287,225.265065 433.698089,234.394586 C432.869855,237.02892 432.790127,239.839934 433.467728,242.516568 C436.449256,252.885194 432,337.170406 432,337.170406 L462.736723,340 C462.736723,340 458.544155,324.469985 464.908697,316.642752 C471.273239,308.81552 463.842455,249.236853 463.842455,249.236853 C463.842455,249.236853 474.978758,244.651863 508.256033,244.350563 C539.0849,252.210546 551.787657,218.628771 547.02906,209.216442 C542.270462,199.804113 514.423123,202.299657 514.423123,202.299657 Z" id="路径" stroke="#363636" stroke-width="3" fill="#FFFFFF"></path>
                <path d="M444.948537,339.193673 L424.732822,350.925458 C424.732822,350.925458 398.554292,354.13166 415.989114,360.318835 C433.423936,366.50601 474,360.047235 474,360.047235 C474,360.047235 471.745044,341.684441 468.602568,339.120804 C465.460093,336.557168 444.948537,339.193673 444.948537,339.193673 Z" id="路径" stroke="#3A3A3A" stroke-width="3" fill="#FFFFFF"></path>
                <path d="M517.269191,251.358387 C483.986174,251.659661 472.84795,256.244276 472.84795,256.244276 C472.84795,256.244276 480.280016,315.844268 473.914375,323.644663 C467.548735,331.445057 471.742027,347 471.742027,347 L441,344.170638 C441,344.170638 441.052663,343.175121 441.13824,341.393671 C441.875522,326.749102 445.12088,258.765814 442.454815,249.524541 C441.78205,246.856417 441.861772,244.055391 442.685216,241.429421 C445.332085,232.288282 453.265251,225.642323 462.769568,224.603885 C471.834187,223.549424 484.96044,221.715578 495.44696,219.063051 L495.960424,218.932062 C513.536701,214.439139 523.411013,209.297821 523.411013,209.297821 C523.411013,209.297821 551.263158,206.80903 556.022577,216.220589 C556.693816,217.713002 557.02645,219.334184 556.996842,220.96894 C557.233826,233.668323 544.133904,258.215661 517.269191,251.358387 Z" id="路径" stroke="#424242" stroke-width="3" fill="#FFFFFF"></path>
                <path d="M471,194.707752 L469.889993,207 C469.889993,207 467.222083,206.807311 463.255919,206.382065 C449.708645,204.940218 420.971807,200.887098 431.13064,193.093149 C439.867885,186.395535 454.616043,189.319096 463.515569,192.030035 C466.761203,193.026704 469.253849,193.990151 470.363856,194.448618 C470.772806,194.608085 471,194.707752 471,194.707752 Z" id="路径" stroke="#404040" stroke-width="3" fill="#FFFFFF"></path>
                <path d="M471,198.155723 L470.140611,207 C470.140611,207 467.268996,206.80701 463,206.3811 L463.279476,192 C466.772926,192.998225 469.455895,193.963177 470.650655,194.42236 L471,198.155723 Z" id="路径" fill="#000000" opacity="0.1"></path>
                <polygon id="路径" stroke="#333333" fill="#FFFFFF" points="472 208 464 207.221764 464.263736 192 470.66248 192.619951"></polygon>
                <path d="M553,115.263399 C553,115.263399 548.866471,118.493551 543.815114,122.040126 C538.275128,123.292634 531.843727,124.327601 527.208364,125 C528.865737,119.726283 527.868672,113.793351 526,108.592147 C532.827586,106.614503 542.593544,104.05675 546.324285,102 C547.963587,106.691608 550.207682,111.150205 553,115.263399 Z" id="路径" fill="#000000" opacity="0.1"></path>
                <path d="M547.191852,102 C547.191852,102 551.880024,112.762122 554.833307,117.624163 C557.78659,122.486204 520.519601,127 520.519601,127 C520.519601,127 516.652521,113.451915 518.499979,111.898205 C520.347436,110.344495 544.073026,105.147602 547.191852,102 Z" id="路径" stroke="#232323" stroke-width="2" fill="#FFFFFF"></path>
                <path d="M556.998975,220.047186 C555.442031,222.798734 553.502418,225.314437 551.238399,227.518727 C534.890463,243.081143 508.093264,226.859861 496,217.991524 C513.55792,213.471703 523.421919,208.299604 523.421919,208.299604 C523.421919,208.299604 551.244975,205.795913 555.999423,215.263818 C556.679954,216.765122 557.021261,218.398452 556.998975,220.047186 Z" id="路径" fill="#000000" opacity="0.1"></path>
                <path d="M551.031888,226.524496 C532.577349,244.217152 500.748822,220.789544 492.168049,213.887826 C490.777102,212.767203 490,212.075054 490,212.075054 C493.389209,208.871391 496.367012,202.081736 498.724438,193.775943 C500.921576,185.82938 502.508777,177.723714 503.471944,169.53094 C505.114826,155.679322 509.925883,142.403037 517.525081,130.750801 C518.524212,129.234664 519.484161,127.817406 520.483292,126.578129 C527.451089,117.632922 539.15986,111.950706 539.15986,111.950706 C563.870395,104.660066 567.194302,141.660393 566.534745,142.72828 C565.875188,143.796168 572.483819,205.95118 551.031888,226.524496 Z" id="路径" stroke="#202020" stroke-width="3" fill="#FFFFFF"></path>
                <path d="M553.847034,176.555788 C553.847034,176.555788 537.852405,215.431677 531.455869,217.650351 C527.794131,218.91349 508.236375,216.518107 492.18258,214.233985 C490.78231,213.121376 490,212.434175 490,212.434175 C493.411924,209.253421 496.409685,202.512316 498.782912,194.265915 L519.458254,195.247629 C519.458254,195.247629 518.307797,183.375431 521.345002,156.751337 C524.382206,130.127244 541.218311,136.724364 541.218311,136.724364 C569.0725,146.011382 553.847034,176.555788 553.847034,176.555788 Z" id="路径" fill="#000000" opacity="0.1"></path>
                <polygon id="路径" fill="#000000" opacity="0.1" points="472 208 468.048851 207.656566 467 192 470.469828 192.296296"></polygon>
                <path d="M541.226188,134.722983 C541.226188,134.722983 524.38459,128.13186 521.346395,154.751621 C518.3082,181.371382 519.459031,193.251113 519.459031,193.251113 L469,190.848986 L470.137679,208.88785 C470.137679,208.88785 525.055361,217.861465 531.453984,215.649152 C537.852608,213.436838 553.852454,174.551173 553.852454,174.551173 C553.852454,174.551173 569.063159,144.004228 541.226188,134.722983 Z" id="路径" stroke="#323232" stroke-width="3" fill="#FFFFFF"></path>
                <rect id="矩形" stroke="#4D4D4D" stroke-width="2" fill="#FFFFFF" x="537" y="274" width="10" height="76"></rect>
                <rect id="矩形" stroke="#4D4D4D" stroke-width="2" fill="#FFFFFF" x="502" y="350" width="78" height="7" rx="3.5"></rect>
                <path d="M527,333 C527,333 523.071675,337.5 517,333" id="路径" fill="#000000" opacity="0.1"></path>
                <rect id="矩形" stroke="#494949" stroke-width="3" fill="#FFFFFF" x="449" y="214" width="13" height="164"></rect>
                <rect id="矩形" fill="#000000" opacity="0.1" x="449" y="214" width="13" height="11"></rect>
                <rect id="矩形" stroke="#494949" stroke-width="3" fill="#FFFFFF" x="134" y="214" width="13" height="164"></rect>
                <rect id="矩形" fill="#000000" opacity="0.1" x="134" y="214" width="13" height="11"></rect>
                <rect id="矩形" stroke="#494949" stroke-width="3" fill="#FFFFFF" x="128" y="202" width="340" height="21"></rect>
                <g id="分组-2-copy-4" transform="translate(527.866935, 63.604759) scale(-1, 1) rotate(28.000000) translate(-527.866935, -63.604759) translate(487.366935, 13.104759)" fill-rule="nonzero">
                    <path d="M34.7555286,63.0645289 L39.7129441,63.0633145 C36.1296779,76.3719065 26.8391978,79.1898929 11.841504,71.5172738 C7.56548899,66.560445 -1.73730269,57.0658459 7.93133212,40.5932096 C14.3034044,35.8007076 17.9481471,34.8381444 21.7095562,27.7993123 C24.2171622,23.1067575 28.5702553,16.7051387 34.7688355,8.59445588 C44.5667718,2.13790641 52.5627667,1.33199533 58.7568201,6.17672263 C61.8218176,10.1086809 71.5067116,23.2347975 61.8399107,36.3810169 C61.1545377,34.7923624 60.5472823,32.8057685 60.0181446,30.4212354 L56.0549986,34.5880134 L58.7494411,36.381774 L45.2056407,38.1343533 L45.203803,45.6565753 L45.203298,47.7237233 L47.1471022,47.7232471 L45.2026496,50.3778837 L47.1461942,51.4397919 L47.1457636,53.2026298 L47.1439923,60.4529533 L37.0859977,51.4422564 C29.943084,50.5026677 27.1923126,52.2049572 28.8336835,56.5491249 C29.9074986,58.9611346 31.881447,61.1329359 34.7555286,63.0645289 Z" id="路径-2-copy" fill="#141414" transform="translate(34.858773, 39.393689) rotate(-5.000000) translate(-34.858773, -39.393689) "></path>
                    <path d="M50.4117808,39.4350393 C51.4679476,35.6849239 53.9004772,34.4343758 57.7093696,35.6833949" id="路径-3-copy" stroke="#141414" stroke-width="2" transform="translate(54.060575, 37.325169) rotate(-5.000000) translate(-54.060575, -37.325169) "></path>
                    <path d="M56.2482058,46.8615579 C56.4462784,43.3058788 56.4467919,41.2039585 56.2497463,40.5557971 C55.4812617,38.0279459 60.1783564,35.4041158 61.6892966,41.1730596 C63.2002369,46.9420034 57.318785,43.005967 56.2497463,40.5557971 C55.5370538,38.9223505 55.5365403,41.0242708 56.2482058,46.8615579 Z" id="路径-4-copy" stroke="#232323" fill="#232323" transform="translate(58.825389, 42.285457) rotate(-5.000000) translate(-58.825389, -42.285457) "></path>
                    <path d="M65.5827979,36.6279902 C71.7721952,39.6973594 75.387113,42.247936 76.4275514,44.27972 C77.988209,47.3273959 79.4411298,49.1934776 76.4263508,49.1942162 C73.4115718,49.1949547 71.0196299,48.6277651 72.9385957,53.8649 C74.2179063,57.3563233 75.3791518,61.2825306 76.4223323,65.6435218 C76.6919797,68.1938803 74.2582595,70.9146527 69.1211714,73.8058389 C63.9840833,76.6970252 64.3757042,82.8710016 70.2960339,92.3277682" id="路径-5-copy" stroke="#141414" stroke-width="2" transform="translate(71.862613, 64.477879) rotate(-5.000000) translate(-71.862613, -64.477879) "></path>
                    <path d="M65.5417241,56.9429413 C68.9134046,58.1131524 71.6913428,58.5028176 73.8755387,58.1119368" id="路径-6-copy" stroke="#141414" transform="translate(69.708631, 57.600843) rotate(-5.000000) translate(-69.708631, -57.600843) "></path>
                    <path d="M24.2929293,68.9477848 C39.8682185,87.1916506 45.1801001,97.6979797 40.2285741,100.466772" id="路径-8" stroke="#141414" stroke-width="2"></path>
                </g>
                <ellipse id="椭圆形" stroke="#141414" fill="#FFFFFF" fill-rule="nonzero" cx="506" cy="65" rx="3" ry="7"></ellipse>
                <g id="分组-10" transform="translate(502.000000, 62.000000)" fill-rule="nonzero">
                    <ellipse id="椭圆形-copy-10" fill="#0E0E0E" transform="translate(3.000000, 3.000000) scale(-1, 1) translate(-3.000000, -3.000000) " cx="3" cy="3" rx="1" ry="2"></ellipse>
                    <path d="M0,3 C1.50355034,-1 2.50355034,-1 3,3" id="路径-13-copy-2"></path>
                </g>
                <path d="M511,67.5 L525.96582,67.5" id="路径-93" stroke="#141414" stroke-width="2" fill-rule="nonzero"></path>
            </g>
        </g>
    </g>
</svg>
