<?xml version="1.0" encoding="UTF-8"?>
<svg width="167px" height="46px" viewBox="0 0 167 46" version="1.1" xmlns="http://www.w3.org/2000/svg" xmlns:xlink="http://www.w3.org/1999/xlink">
    <!-- Generator: Sketch 52.5 (67469) - http://www.bohemiancoding.com/sketch -->
    <title>提交按钮</title>
    <desc>Created with Sketch.</desc>
    <g id="Page-1" stroke="none" stroke-width="1" fill="none" fill-rule="evenodd">
        <g id="密封拍卖4" transform="translate(-699.000000, -816.000000)">
            <g id="提交按钮" transform="translate(699.000000, 816.000000)">
                <path d="M139.339117,2.01737549 C133.102047,3.85996657 126.845192,4.40051494 120.585037,3.63463298 C118.443349,3.37261381 116.76134,3.13123435 115.082378,2.85793465 C115.33095,2.89839688 112.521792,2.42783014 111.898142,2.33904029 C110.160803,2.09169296 108.458488,2 105.025722,2 C101.978162,2 99.8669169,2.13787989 97.2512185,2.45795496 C96.8920243,2.50190846 93.6869497,2.92272987 92.5552442,3.0552001 C90.4971699,3.29610516 88.4232898,3.48636657 85.9640124,3.64527261 C83.9350069,3.77637667 77.5919998,4.22724587 76.2230448,4.29996781 C73.7919477,4.4291131 71.3790466,4.47415201 66.7350077,4.47415201 C62.1494077,4.47415201 59.8478086,4.40204648 57.3554266,4.21014345 C56.8430898,4.17069565 54.8142254,3.9999137 54.2721128,3.95687743 C52.8459817,3.84366224 51.4151156,3.74566238 49.660611,3.64623064 C47.5265256,3.5252872 45.9437011,3.40538399 44.6477123,3.27543981 C44.1608137,3.22662023 43.7415381,3.17947912 43.2542218,3.12046811 C43.1254958,3.10488017 42.9713838,3.08594954 42.714626,3.05440967 C42.51808,3.03039474 42.3743271,3.01331438 42.2354293,2.99766161 C41.1118816,2.87104605 40.039486,2.82471734 37.630209,2.82471734 C35.2490327,2.82471734 30.0119483,2.91749755 21.9380849,3.10300527 L21.9380846,3.10299348 C10.8532684,3.35768183 2,12.4167024 2,23.5044441 C2.00005861,23.5642991 2.00005861,23.5642991 2.00035164,23.6241534 C2.06646528,34.8775971 11.2427792,43.9467124 22.4962178,43.8805754 C28.3076393,43.8464335 33.9783592,43.6737586 39.508354,43.3626118 C44.4781437,43.0829851 47.7804628,42.8405003 49.8941931,42.6203838 C50.6789055,42.5386665 51.2628253,42.4641861 51.7583519,42.387378 C52.0143527,42.3476971 52.6844917,42.2309943 52.776746,42.2162791 C53.7906913,42.0545479 54.8421443,42.0179264 58.6306257,42.0179264 C61.0468227,42.0179264 62.8655952,41.9668479 65.5262616,41.8486181 C65.6289358,41.8440556 66.6005168,41.8003781 66.8808686,41.7880949 C67.3910898,41.7657405 67.807144,41.7487072 68.2082723,41.7341294 C72.4830007,41.5787769 76.0563505,41.7191068 82.1405622,42.3929366 C88.0585079,43.0483523 90.9553755,43.1469213 94.0060224,42.8923598 C94.7974177,42.8263218 97.9880207,42.4846788 98.7792344,42.4098483 C100.192027,42.2762309 101.604987,42.1674512 103.195767,42.0761603 C105.187921,41.9618357 106.869246,41.8526721 108.566343,41.7308728 C109.438584,41.6682727 112.022158,41.4737528 112.419492,41.4448444 C115.878711,41.1931664 118.827095,41.051416 124.287668,40.9043034 C124.630121,40.8951384 124.630121,40.8951384 124.981713,40.8859731 C129.811039,40.7609032 136.693053,41.0000798 145.646493,41.601526 C146.051137,41.6287073 146.456579,41.6423094 146.862135,41.6423094 C156.879401,41.6423094 165,33.5217105 165,23.5044441 C165,12.2897421 156.260193,3.01789689 145.065044,2.35594217 L139.339117,2.01737549 Z" id="矩形-copy" stroke="#282828" stroke-width="4" fill="#FFE8B2" fill-rule="nonzero"></path>
                <path d="M10.0304829,29.1291504 C9.37553498,11.2365723 19.2746235,5.27237956 39.7277485,11.2365723" id="路径-30" stroke="#2E2E2E" fill-rule="nonzero"></path>
                <path d="M128.030483,36.1291504 C127.375535,18.2365723 137.274624,12.2723796 157.727749,18.2365723" id="路径-30-copy" stroke="#2E2E2E" fill-rule="nonzero" transform="translate(142.863874, 26.064575) scale(-1, -1) translate(-142.863874, -26.064575) "></path>
            </g>
        </g>
    </g>
</svg>
