<?xml version="1.0" encoding="UTF-8"?>
<svg width="106px" height="69px" viewBox="0 0 106 69" version="1.1" xmlns="http://www.w3.org/2000/svg" xmlns:xlink="http://www.w3.org/1999/xlink">
    <!-- Generator: Sketch 52.5 (67469) - http://www.bohemiancoding.com/sketch -->
    <title>信封</title>
    <desc>Created with Sketch.</desc>
    <g id="Page-1" stroke="none" stroke-width="1" fill="none" fill-rule="evenodd">
        <g id="密封拍卖4" transform="translate(-576.000000, -776.000000)" fill-rule="nonzero">
            <g id="信封" transform="translate(576.000000, 776.000000)">
                <path d="M104.54195,13.8152114 C104.061628,10.4434156 105.708447,4.75013249 103.376636,1.85062307 C100.655599,-1.52587211 95.3046191,0.77564287 91.7471582,0.648759961 C74.9690041,0.0531151965 58.3742242,0.531275787 41.6019854,1.41945615 C34.0304027,1.81890234 26.5510986,2.19367686 18.9854311,2.68241102 C17.7727948,2.69063491 16.5601585,2.71178206 15.3463392,2.75525121 C12.1307826,2.87273538 7.80788209,2.43216973 5.46305756,5.09201144 C2.44388894,8.51784997 2.58467306,15.9005555 2.20609392,20.165231 C1.50690558,28.0366707 0.459897652,35.9175091 0.0683048572,43.8124457 C-0.156476506,48.3508593 0.215004273,52.6237587 0.580569752,57.1104794 C0.760394843,59.3297554 0.372351227,62.2269152 1.26674444,64.3392806 C2.82010196,68.0106611 6.03447545,68.5052695 9.62506195,68.6979435 C17.5338167,69.1232362 25.1456235,69.028074 33.068575,68.8447987 C49.2764943,68.4700242 65.5128071,69.236021 81.692333,67.9472196 C84.8167939,67.6981532 87.9164106,67.2752101 91.0325901,66.9591777 C93.879032,66.6701666 97.9594053,67.4643597 100.579883,66.051025 C103.961068,64.2276707 104.200046,59.6551866 104.651975,56.237572 C106.45969,42.6164568 106.47507,27.4010813 104.54195,13.8152114 Z M83.1415812,62.6545576 C77.0973287,63.1961596 71.0424286,63.438177 64.9827963,63.5533115 C65.4808645,61.8474413 67.1265007,59.9841423 68.0161616,58.5261637 C69.0927461,56.7639011 70.2225682,55.108549 70.3053824,52.9867848 C70.3290436,52.384091 69.387328,52.3852659 69.3589345,52.9867848 C69.2571914,55.4539525 67.4009705,57.803636 66.1102523,59.8267135 C65.3270667,61.0532483 64.1274441,62.1153052 63.8624387,63.5756335 C56.7262219,63.6931177 49.5840899,63.6425995 42.4490562,63.6743202 C43.5575833,62.2562862 44.1964355,60.5703883 45.2032194,59.0689406 C46.5933147,56.9953449 48.4755629,55.309447 49.8171527,53.1947318 C50.1034531,52.7424178 49.3853358,52.3300483 49.0978523,52.777663 C47.8722024,54.6867808 46.2218339,56.2070261 44.838837,57.9869113 C43.4771352,59.7362507 42.7258922,61.8427419 41.2447013,63.5086675 C41.1999558,63.5598753 41.1650676,63.618813 41.1417751,63.6825441 C40.2923382,63.6825441 39.4429013,63.6895931 38.5946474,63.697817 C34.7224926,63.7365868 30.8479718,63.9621564 26.9770001,64.113711 C29.6873901,60.7066699 31.5412448,56.689886 34.0907387,53.1641859 C34.3581102,52.7941108 33.7429191,52.444008 33.4779137,52.8117334 C30.7758051,56.5183591 28.5208931,60.5010726 25.747801,64.1607047 C22.6186078,64.2676153 19.4905977,64.3087347 16.3685028,64.1372078 C13.0642168,63.9551074 10.060428,64.4896604 7.85875367,62.9071485 C11.2139113,60.5374927 14.3584842,57.2197397 17.0866201,54.9370221 C20.3991876,52.169095 23.8513561,49.5820935 27.1343471,46.7777462 C30.2860184,44.0850089 32.950269,40.7860533 36.4805195,38.5679521 C38.9649451,37.010112 36.807044,33.5643011 34.2185092,34.7250448 C31.4406847,35.970377 29.7406278,38.0322243 27.686836,40.2233041 C24.8616892,43.2355984 21.6768922,45.9048388 18.5985706,48.657493 C15.9319538,51.0412469 13.3931074,53.5142888 10.8294168,56.0084778 C9.46298276,57.3395735 7.82799411,59.2099216 6.11137434,60.8511755 C5.95439967,60.5579802 5.81302681,60.2568066 5.68783893,59.948897 C5.07264783,58.4380505 4.85023258,56.3527064 4.7674184,54.2379913 C4.83222282,54.2725419 4.90445582,54.2910792 4.97800304,54.292034 L5.56953295,54.269712 C6.11137434,54.2497397 6.17762568,53.6153252 5.82152468,53.3744826 C8.28110602,49.1086322 11.5936735,45.4396015 14.551323,41.5203294 C14.8328912,41.1479046 14.1869406,40.647422 13.8970909,41.0198468 C10.7856436,45.0143088 7.3015325,48.7385571 4.7437572,53.1277659 C4.71418071,51.4030982 4.75085556,49.7207248 4.72956048,48.4013775 C4.67868891,45.3796845 4.83012057,42.3579916 5.05963417,39.3398231 C5.10725914,39.303964 5.14743508,39.2592795 5.17794015,39.2082409 C6.53964198,36.9924893 8.25389564,35.0481262 9.8060701,32.9733557 C11.4623538,30.7658281 12.8394354,28.4408163 15.1298392,26.7936881 C15.4504484,26.5587198 15.1475851,26.0276913 14.8151453,26.2579603 C12.8418016,27.6231264 11.5025779,29.4088859 10.0900045,31.3097798 C8.50943656,33.4432924 6.73484685,35.4217259 5.19923523,37.5834347 C5.44649473,34.7262196 5.74580886,31.8701793 6.02737709,29.0188384 C8.20302407,25.6576162 10.7040125,22.5125648 13.681774,19.8010301 C14.0615362,19.4556266 13.5007659,18.9069755 13.1186376,19.2418054 C10.540218,21.5192796 8.23174545,24.0813222 6.23796173,26.8782768 C6.32905734,25.9149065 6.41542071,24.9503615 6.49231959,23.9881661 C6.79163372,20.2462951 6.46510922,15.4388427 7.6753794,11.8990445 C7.93131745,11.132801 8.30483013,10.4103826 8.78272337,9.75730801 C9.85575862,11.1671181 11.0234386,12.9293807 11.6066871,13.5825927 C13.245225,15.4035974 15.3309594,16.9637873 17.104366,18.6802311 C20.9161847,22.3692341 24.6286264,26.0629366 28.9101198,29.2314848 C33.838747,32.8793684 39.0749697,36.312256 44.2768836,39.5700921 C47.5149183,41.5955193 51.4509583,44.85688 55.2888043,45.3479638 C60.1641937,45.9718048 65.4784984,42.6094077 70.2533277,38.6020225 C71.6942946,40.2045067 72.9944773,42.0854283 74.2035644,43.3754045 C77.1387358,46.5075326 79.9544181,49.7453965 82.958207,52.8070341 C85.03566,54.9217492 88.1116155,59.2392926 91.3236228,61.7193835 C88.6108667,62.0812348 85.8815477,62.4078408 83.1415812,62.6545576 Z M100.53256,30.8515915 C100.235612,38.2366467 100.446197,45.7720817 99.7529239,53.1289407 C99.4240333,56.6170458 99.3246563,58.4815197 98.4432767,59.6011439 C98.231509,59.0971368 97.8221703,58.6401233 97.141911,58.3088179 C94.5853187,57.0811083 92.2132838,54.3343283 90.1251833,52.4980507 C86.7605612,49.5397992 83.3809537,46.5976038 79.9863607,43.6714647 C77.7988832,41.7764449 75.1358155,38.9215795 72.2515157,36.8667813 C75.420933,34.0260139 78.2661918,31.0994831 80.4643169,29.1762672 C85.1291217,25.0936921 89.3242518,20.6633639 93.54186,16.1355238 C95.6358758,13.8892264 97.6707387,12.1293135 99.3258394,9.94763237 C99.3128257,10.0510184 99.298629,10.1544045 99.2844323,10.2566157 C100.435549,16.995508 100.812946,24.0128377 100.537293,30.8504167 L100.53256,30.8515915 Z" id="形状" fill="#333333"></path>
                <path d="M15.4687978,31.1734187 C14.1002392,34.2324001 12.4535208,37.1611376 10.549096,39.923254 C9.69515509,41.1674803 8.74103112,42.3442272 7.96699805,43.640543 C7.32057907,44.7225819 6.36884041,47.6455075 5.24535943,48.1865269 C4.69077488,48.4528932 5.17499279,49.2519919 5.72242142,49.0010157 C6.61810529,48.596139 6.94608541,48.2113878 7.38498243,47.3661189 C8.28901489,45.621124 8.7601136,43.9258508 9.90386971,42.2554385 C12.256978,38.8222735 14.3763258,35.3275483 16.0424648,31.5072644 C16.2106291,31.1213293 15.6429254,30.7827482 15.4687978,31.1734187 Z M21.0897806,52.1820207 C19.2328168,53.2474857 18.164198,55.4754913 16.7854888,57.0358056 C15.6119164,58.3652692 13.7621085,60.0297623 13.7132097,61.9239222 C13.6977051,62.5265019 14.5766918,62.4980895 14.6387099,61.9239222 C14.8402686,60.0759324 16.7854888,58.5025958 17.8922726,57.1399844 C19.0348361,55.7394899 19.8947403,53.8027113 21.4833567,52.8461605 C21.9103272,52.5916328 21.5250997,51.9322283 21.0897806,52.1820207 Z M25.7399423,53.9163609 C24.6331585,55.6104502 23.2699539,57.1234105 22.1834452,58.8293384 C21.2460184,60.3020477 20.7522592,62.004424 19.3353851,63.12553 C18.8046537,63.5469806 19.5524483,64.2655775 20.0772165,63.8618847 C21.4249166,62.8248321 21.8435385,61.3035848 22.5937185,59.8498171 C23.6229797,57.8585814 25.0982939,56.1277927 26.314802,54.2490227 C26.5473697,53.8903162 25.97251,53.5612059 25.7399423,53.9163609 Z M39.9933617,53.9353025 C38.4429103,57.2086477 36.7207165,60.3730787 34.4045806,63.1823548 C34.2914357,63.3044799 34.2572784,63.4794695 34.3162839,63.6347033 C34.3752894,63.7899372 34.5173856,63.8989172 34.6836028,63.9164168 C34.84982,63.9339165 35.0117855,63.8569487 35.1022837,63.717455 C37.3540163,60.8099194 39.0237332,57.5791928 40.5050107,54.2324488 C40.6600559,53.8915 40.1567555,53.5896183 39.9933617,53.9353025 Z M55.4919129,53.2356472 C55.4167757,52.9361331 54.9611815,53.0628051 55.0279702,53.3623191 C55.453748,55.2931784 52.1524791,57.8408236 50.9657874,59.274466 C50.0116634,60.4204327 48.461212,61.9061645 48.5065328,63.4937073 C48.519652,63.954225 49.269832,64.1033901 49.3557032,63.6120923 C49.7134997,61.5439064 51.6682611,59.3916671 53.0195392,57.8112274 C54.129901,56.5078085 55.9773235,55.1534841 55.4919129,53.2356472 Z M64.2424224,53.2202571 C64.1541659,52.842609 63.5804989,53.0036126 63.6592141,53.3800768 C64.0337078,55.1617711 61.6841775,56.898479 60.7574846,58.2575388 C59.6232697,59.9196642 58.6691458,61.6646591 57.2808954,63.1480231 C56.8455763,63.6120923 57.5671326,64.3176669 57.9785985,63.8417592 C59.6614347,61.8955098 60.6024395,59.4863751 62.2029824,57.4927717 C63.2453629,56.1929044 64.6622369,55.0350991 64.2424224,53.2202571 Z M76.1820912,53.9696341 C75.3734712,57.3021719 71.347068,59.0601891 71.3399121,62.7088148 C71.3399121,63.3729546 72.3071552,63.3516453 72.3644027,62.7088148 C72.670915,59.2602598 76.276311,57.4927717 77.0038305,54.1945656 C77.119518,53.6665685 76.310898,53.4404532 76.1820912,53.9696341 Z M83.4525159,55.5086391 C82.7369229,56.5539787 82.0094034,58.3498791 80.5424378,58.4540579 C80.3628448,58.4646315 80.2226566,58.6122829 80.2226566,58.7908632 C80.2226566,58.9694436 80.3628448,59.117095 80.5424378,59.1276686 C82.3457321,59.2460536 83.1782052,57.0429087 83.9534309,55.7986824 C84.1526043,55.4790429 83.6612305,55.2043897 83.4525159,55.5086391 Z" id="形状" fill="#333333"></path>
                <path d="M10,36.7373046 L43.5287529,9.55381564 C52.228185,4.81539479 59.6596151,4.81539479 65.8230431,9.55381564 C71.986471,14.2922365 75.9988194,17.4752476 77.8600882,19.1028491 L100,39 L10,36.7373046 Z" id="路径-8" fill="#FFFFFF" transform="translate(55.000000, 22.500000) scale(1, -1) translate(-55.000000, -22.500000) "></path>
            </g>
        </g>
    </g>
</svg>