<?xml version="1.0" encoding="UTF-8"?>
<svg width="168px" height="170px" viewBox="0 0 168 170" version="1.1" xmlns="http://www.w3.org/2000/svg" xmlns:xlink="http://www.w3.org/1999/xlink">
    <!-- Generator: Sketch 52.5 (67469) - http://www.bohemiancoding.com/sketch -->
    <title>分组 8</title>
    <desc>Created with Sketch.</desc>
    <g id="Page-1" stroke="none" stroke-width="1" fill="none" fill-rule="evenodd">
        <g id="密封拍卖3" transform="translate(-347.000000, -214.000000)" fill-rule="nonzero">
            <g id="分组-8" transform="translate(348.000000, 214.000000)">
                <path d="M47.8607022,48.5790653 C57.0314576,65.8590133 61.6168353,75.9179955 61.6168353,78.7560121 C68.8144104,82.5615148 79.8002509,82.5615148 94.5743569,78.7560121 C100.57515,65.1842716 102.25621,54.3108362 99.6175381,46.135706 C100.466171,42.6806278 101.030624,35.416956 98.3382413,27.8241825 C96.5433194,22.7623336 86.8203376,17.1936487 69.1692959,11.1181278 C56.0169522,14.7828414 48.9140876,17.0666955 47.8607022,17.9696903 C46.2806241,19.3241825 42.6985928,32.6171513 44.4896084,37.4286747 C45.6836189,40.636357 46.8073168,44.3531539 47.8607022,48.5790653 Z" id="路径-72" stroke="#0E0E0E" stroke-width="2" fill="#FFFFFF"></path>
                <ellipse id="椭圆形" fill="#0E0E0E" cx="77.5" cy="40.1181278" rx="1.5" ry="3"></ellipse>
                <ellipse id="椭圆形-copy-9" fill="#0E0E0E" cx="97.5" cy="38.1181278" rx="1.5" ry="3"></ellipse>
                <path d="M53.3650056,53.7318887 C33.4920917,37.6860683 30.6764444,24.6110133 44.9180636,14.5067236 C47.3516373,13.882437 50.1672847,13.882437 53.3650056,14.5067236 C58.138065,7.73747262 66.8838,3.07630165 79.6022106,0.523210732 C88.2856441,-0.451363067 106.913163,-1.30196955 103.945577,18.7578489 C102.880093,22.091616 105.636494,24.8140025 112.214778,26.9250083 C102.573548,29.4505099 95.1591548,29.4505099 89.9715996,26.9250083 C82.1902667,23.1367558 73.0172865,18.7578489 67.5525878,18.7578489 C62.0878891,18.7578489 57.7418365,18.5971193 54.8467142,16.5519214 C56.1958247,20.8665297 59.7423762,33.9683246 56.5536909,38.7860417 C56.2612089,40.047807 56.6325512,42.1331136 57.6677178,45.0419616 C55.7306486,42.7749768 53.8035618,41.1655772 51.8864572,40.213763 C49.0108004,38.7860417 45.8648723,44.8922268 48.2419122,46.9630591 C49.8266055,48.3436139 51.5343033,50.5998905 53.3650056,53.7318887 Z" id="路径-7" fill="#0E0E0E"></path>
                <path d="M57,40.8991786 L64.0096002,39.1181278" id="路径-9" stroke="#0E0E0E"></path>
                <path d="" id="路径-10" stroke="#979797"></path>
                <path d="M63,38.6872155 C66.4676142,48.3913679 70.3403062,52.7257933 74.618076,51.6904918 C78.3900061,50.8589287 84.6721271,49.6785743 79.6451016,33.1237156 C76.7296482,33.0159409 71.181281,34.4672085 63,37.4775183" id="路径-11" stroke="#0E0E0E" stroke-width="2"></path>
                <path d="M94.3631672,47.6910461 C97.7276779,46.8594583 103.331245,45.6790686 98.8472061,29.1237158 C96.2466611,29.0159378 91.2975923,30.4672487 84,33.4776484 C87.0930651,43.9885793 90.5474541,48.7263786 94.3631672,47.6910461 Z" id="路径-11-copy" stroke="#0E0E0E" stroke-width="2"></path>
                <path d="M84,35.1181278 C90.1715781,47.9129345 90.1715781,53.7937944 84,52.7607074" id="路径-12" stroke="#0E0E0E" stroke-width="2"></path>
                <path d="M71,38.759254 C74.7123218,35.2377525 77.181359,35.2377525 78.4071117,38.759254" id="路径-13" stroke="#0E0E0E"></path>
                <path d="M91,36.759254 C94.7123218,33.2377525 97.181359,33.2377525 98.4071117,36.759254" id="路径-13-copy" stroke="#0E0E0E"></path>
                <path d="M79.2386634,59.568838 C83.5242498,64.6416118 88.3092293,64.6416118 93.593602,59.568838" id="路径-15" stroke="#0E0E0E" transform="translate(86.416133, 61.471128) rotate(-12.000000) translate(-86.416133, -61.471128) "></path>
                <path d="M96.0031792,78.4760887 C95.5465393,75.8959531 144.47559,87.2924264 117.295606,111.736871 C127.818491,111.237112 133.918723,102.767579 119.357563,123.387475" id="路径-21" stroke="#0E0E0E" stroke-width="2" stroke-linecap="round"></path>
                <path d="M133,151.306099 C149.242727,145.615142 158.511974,128.885818 160.807739,101.118128" id="路径-23" stroke="#0E0E0E" stroke-width="2" stroke-linecap="round"></path>
                <path d="M104,97.7596742 L117.069145,111.234292 C127.625176,116.91788 135.193815,113.426341 139.775061,100.759674 C141.118243,96.7809068 148.867629,82.0575137 144.992936,69.4636641 C143.895766,65.3813985 143.091833,53.1181278 144.992936,53.1181278" id="路径-26" stroke="#0E0E0E" stroke-width="2" stroke-linecap="round"></path>
                <path d="M160.158857,59.1181278 C164.84117,68.6480056 164.300631,78.5349844 158.53724,88.7790643 C158.089654,89.7388998 156.243907,92.5111404 153,97.095786" id="路径-28" stroke="#000000"></path>
                <path d="M157.823332,103.150934 C159.756329,103.150934 160.50669,102.246746 161.323332,98.150934 C162.139974,94.0551217 156.146945,93.6929728 154.213948,93.6929728 C152.280952,93.6929728 153.328618,95.3184942 153.328618,98.0799179 C153.328618,100.841342 155.890335,103.150934 157.823332,103.150934 Z" id="椭圆形" fill="#000000" transform="translate(157.222240, 98.421953) rotate(-39.000000) translate(-157.222240, -98.421953) "></path>
                <path d="M111.515761,97.1181278 C110.33031,115.350438 111.188383,125.133259 114.08998,126.466593 C119.166976,127.096257 127.513434,127.096257 139.129356,126.466593 C137.334876,110.094122 136.437636,100.3113 136.437636,97.1181278 C132.800266,97.4831439 124.492975,97.4831439 111.515761,97.1181278 Z" id="路径-69" stroke="#0E0E0E" stroke-width="2" fill="#FFFFFF"></path>
                <path d="M145,83.1181278 C148.998264,95.1181278 152.922309,101.451461 156.772135,102.118128" id="路径-70" stroke="#000000"></path>
                <path d="M27.3693532,107.118128 C25.5435489,123.58661 25.5435489,133.162414 27.3693532,135.845542 C31.347966,136.626619 50.116663,137.845542 51.4806672,136.845542 C52.8446713,135.845542 46.8409135,112.390714 51.4806672,107.118128 C48.2790909,107.362044 40.2419863,107.362044 27.3693532,107.118128 Z" id="路径-31" stroke="#000000" stroke-width="2" fill="#FFFFFF"></path>
                <path d="M131,23.8123139 C137.005028,35.5364169 139.636213,45.396812 138.893552,53.3934991 C144.302996,52.3539571 161.568135,45.329877 165.008459,45.329877 C164.116448,43.7760281 163.009288,21.5016893 156.301441,17.1181278 C154.19185,17.8412083 145.758036,20.0726036 131,23.8123139 Z" id="路径-71" stroke="#000000" stroke-width="2" fill="#FFFFFF"></path>
                <path d="M148.406664,52.0657553 C146.531112,63.0408844 146.531112,67.5393133 148.406664,65.5610419 C150.282216,63.5827705 152.633308,58.5234272 155.459939,50.3830122 C152.660251,55.3738198 150.952922,57.2874286 150.337954,56.1238386 C149.415502,54.3784536 152.077464,48.794417 154.008946,48.0243562 C155.940428,47.2542954 161.401826,44.9594366 158.430883,52.8972759 C155.459939,60.8351152 151.524614,70.8037642 156.314698,69.0043253 C155.308891,71.1447584 155.857513,81.9587168 161.017892,74.3360332" id="路径-27" stroke="#000000" fill="#FFFFFF"></path>
                <path d="M66,30.9999226 C67.4644571,29.7453927 69.3319353,29.1181278 71.6024343,29.1181278" id="路径-17" stroke="#0E0E0E" stroke-width="2"></path>
                <path d="M61.4833027,79.1181278 C24.118552,84.2896664 3.6241178,106.706711 -3.55271368e-15,146.369263" id="路径-33" stroke="#0E0E0E" stroke-width="2"></path>
                <polygon id="路径-16" fill="#2E2E2E" points="81.2668246 85.1181278 70 95.5637135 92.5336492 169.461491 92.5336492 93.4614906"></polygon>
                <path d="M72,137.469996 C79.8672283,150.116075 87.1760444,156.492613 93.9264482,156.599609 C97.9492593,153.414424 103.913413,148.587264 111.818909,142.118128 C101.818379,136.118128 95.5055836,129.784795 92.8805237,123.118128 C90.5973478,124.420059 83.6371732,129.204015 72,137.469996 Z" id="路径-68" stroke="#1F1F1F" stroke-width="2" fill="#FFFFFF"></path>
                <path d="M35,87.6596061 C50.2055585,86.1335945 57.0453243,85.840975 55.5192973,86.7817475 C37.6761988,97.7817475 78.3712275,95.2928657 82.866537,94.8839703 C91.0470195,94.13987 110.076416,91.9516547 107.386831,89.09617 C97.9678176,79.09617 104.467664,82.7817475 114.291034,82.7817475" id="路径-18" stroke="#2E2E2E" stroke-width="2"></path>
            </g>
        </g>
    </g>
</svg>