<?xml version="1.0" encoding="UTF-8"?>
<svg width="99px" height="285px" viewBox="0 0 99 285" version="1.1" xmlns="http://www.w3.org/2000/svg" xmlns:xlink="http://www.w3.org/1999/xlink">
    <!-- Generator: Sketch 52.5 (67469) - http://www.bohemiancoding.com/sketch -->
    <title>拍卖成功人1</title>
    <desc>Created with Sketch.</desc>
    <g id="Page-1" stroke="none" stroke-width="1" fill="none" fill-rule="evenodd">
        <g id="密封拍卖3" transform="translate(-355.000000, -450.000000)" fill-rule="nonzero">
            <g id="拍卖成功人1" transform="translate(357.000000, 450.000000)">
                <g id="分组-copy-3" transform="translate(0.380200, 66.000000)" stroke="#282828">
                    <path d="M16.320549,96.2242287 L35.8594783,96.2242287 C55.2766777,99.5090058 70.1893049,100.219255 80.5973601,98.3549752 C82.27178,112.052449 86.0912344,114.163765 92.055723,104.688924 C92.6792729,91.3406833 93.471783,79.9791252 94.4332532,70.6042497 C90.1251921,50.9742669 91.6846292,29.5261299 87.3597003,19.0199203 C83.745472,3.45816733 68.1861067,-2.4726608 40.6816042,1.22743594 C12.0716137,-0.682223404 -1.11388657,19.081274 1.12510332,60.5179283 C1.44295707,67.201734 2.83060325,82.2170755 5.28804185,105.563953 L5.28807964,105.563949 C5.55923143,108.140025 7.73152362,110.095667 10.3218303,110.095667 L10.3218303,110.095667 C12.817828,110.095667 14.8412339,108.072261 14.8412339,105.576263 C14.8412339,105.565128 14.8411928,105.553993 14.8411105,105.542858 C14.8066799,100.88242 14.7895049,97.7762102 14.7896033,96.2242287 C14.7923373,53.0954227 17.5588067,28.1588544 23.0890116,21.4145239" id="路径-59" stroke-width="4" fill="#FFE8B2" transform="translate(47.657300, 55.330703) scale(-1, 1) translate(-47.657300, -55.330703) "></path>
                    <path d="M38.6397306,0.308120655 C13.1947776,-2.63860211 0.472301136,17.6346879 0.472301136,61.1279908 C0.472301136,65.4725863 1.33083387,80.1837925 3.04789934,105.261609 L3.0478607,105.261612 C3.27535058,108.584112 6.0368544,111.163002 9.36713316,111.163002 L9.36713316,111.163002 C12.4650129,111.163002 14.9763407,108.651675 14.9763407,105.553795 C14.9763407,105.46245 14.9741094,105.371119 14.9696488,105.279884 C13.0127394,65.2541887 15.0385768,40.5181192 21.047138,31.0716763" id="路径-59-copy" stroke-width="4" fill="#FFE8B2"></path>
                    <path d="M15.1829405,98.071171 C16.2158861,100.166271 21.62606,100.900149 31.4134621,100.272804 C46.0945654,99.3317861 52.078007,95.8385184 58.3425899,95.3047588 C62.5189784,94.9489192 69.8121892,95.218721 80.2222222,96.1141642" id="路径-55" stroke-width="3"></path>
                    <path d="M22.6464646,101.013438 C26.9315451,108.99764 27.8936027,127.709896 25.5326375,157.150208 C21.9911898,201.310675 29.9368089,202.953864 29.9368089,202.953864 C29.9368089,202.953864 33.712597,202.953864 41.2641731,202.953864 L43.8852725,163.547 C46.1704465,143.486944 47.3130336,129.945837 47.3130336,122.923678 C47.3130336,115.901518 46.1704465,107.711951 43.8852725,98.3549752 L22.6464646,101.013438 Z" id="路径-56" stroke-width="4" fill="#FFFFFF"></path>
                    <path d="M54.6329966,96.220304 C54.6329966,103.641881 55.5989293,122.450286 57.5307946,152.645516 C60.4285926,197.938363 61.9527053,198.684521 61.9527053,198.684521 C61.9527053,198.684521 65.7437017,198.684521 73.3256945,198.684521 L75.9573513,152.645516 C75.9573513,141.224817 75.9573513,131.139367 75.9573513,122.389166 C75.9573513,113.638965 75.0801324,104.916011 73.3256945,96.220304 L54.6329966,96.220304 Z" id="路径-56-copy" stroke-width="4" fill="#FFFFFF"></path>
                    <path d="M32.1471037,209.317208 C18.5395432,212.602874 12.2041823,214.819823 13.141021,215.968053 C14.0778597,217.116284 22.2220237,217.116284 37.5735129,215.968053 L37.5735129,202.953864 L32.1471037,202.953864 L32.1471037,209.317208 Z" id="路径-60" stroke-width="4" fill="#FFFFFF"></path>
                    <path d="M82.2593371,203.98053 C68.6517767,207.266196 62.3164158,209.483145 63.2532544,210.631375 C64.1900931,211.779606 72.3342571,211.779606 87.6857464,210.631375 L87.6857464,197.617186 L82.2593371,197.617186 L82.2593371,203.98053 Z" id="路径-60-copy" stroke-width="4" fill="#FFFFFF" transform="translate(75.424242, 204.554867) scale(-1, 1) translate(-75.424242, -204.554867) "></path>
                </g>
                <path d="M57.368893,67.1654902 C45.1389253,65.5513314 39.4973497,64.4812648 40.4441661,63.9552904 C41.3909826,63.429316 39.7921082,58.2463776 35.647543,48.4064752 L39.3001783,25.6017751 L61.5260374,19.6491123 L63.7983745,25.8930054 C68.0002288,27.9731189 70.454413,29.7014629 71.1609271,31.0780374 C72.2206983,33.142899 73.2071938,34.4072666 71.160702,34.4074051 C69.1142101,34.4075436 67.4904443,34.0230091 68.793705,37.5711817 C69.6625454,39.9366301 70.4512932,42.5966124 71.1599482,45.5511288 C71.3432964,47.2789236 69.6915652,49.1218422 66.2047546,51.0798848 C62.717944,53.0379274 60.1317402,57.0931773 58.4461431,63.2456346 L57.368893,67.1654902 Z" id="路径-5-copy-2" stroke="#141414" stroke-width="2" fill="#FFFFFF" transform="translate(54.000615, 43.407301) rotate(-5.000000) translate(-54.000615, -43.407301) "></path>
                <path d="M42.9895719,42.3988191 C43.921083,42.9555686 45.0428137,42.9554926 46.354764,42.3985913 C43.9239688,51.4141819 37.6177443,53.3221362 27.4360906,48.1224542 C24.5328517,44.7638945 18.2167922,38.3305799 24.7780769,27.1722105 C29.1029911,23.9262533 31.5769994,23.274594 34.129474,18.5065278 C35.8311237,15.327817 38.7853216,10.9915075 42.9920677,5.49759924 C49.6423269,1.12472991 55.0700706,0.57971811 59.2752987,3.86256383 C61.3563518,6.52667077 67.9322258,15.4202341 61.3717868,24.3250939 C60.9063513,23.2487639 60.4938959,21.9028559 60.1344205,20.2873698 L57.4446582,23.1097139 L59.2739147,24.3252359 L50.0803238,25.5109105 L50.0799792,30.6069045 L50.0798845,32.0073117 L51.3993773,32.0072224 L50.0797628,33.8053955 L51.399207,34.5250277 L51.3991263,35.7192774 L51.398794,40.6310715 L44.5701458,34.5254899 C39.7212812,33.8881002 37.8542071,35.0410008 38.9689237,37.9841917 C40.0627485,40.4354402 41.5923051,41.5636949 42.9895719,42.3988191 Z" id="路径-2-copy-2" fill="#141414" transform="translate(43.056797, 26.363182) rotate(-5.000000) translate(-43.056797, -26.363182) "></path>
                <path d="M53.6149157,26.3904114 C54.3314127,23.8499901 55.982512,23.0030874 58.5682139,23.8497033" id="路径-3-copy-2" stroke="#141414" stroke-width="2" transform="translate(56.091565, 24.961344) rotate(-5.000000) translate(-56.091565, -24.961344) "></path>
                <path d="M57.5771421,31.4216543 C57.711171,29.0128525 57.7112673,27.5888886 57.577431,27.1497623 C57.055465,25.4371555 60.2436315,23.6601828 61.2699801,27.568585 C62.2963287,31.4769871 58.3034098,28.8097794 57.577431,27.1497623 C57.0934452,26.0430843 57.0933489,27.4670483 57.5771421,31.4216543 Z" id="路径-4-copy-2" stroke="#232323" fill="#232323" transform="translate(59.325983, 28.321674) rotate(-5.000000) translate(-59.325983, -28.321674) "></path>
                <path d="M63.8852589,38.2510188 C66.1741631,39.0441931 68.0599295,39.3085085 69.5425583,39.0439651" id="路径-6-copy-2" stroke="#141414" transform="translate(66.713909, 38.697115) rotate(-5.000000) translate(-66.713909, -38.697115) "></path>
            </g>
        </g>
    </g>
</svg>