<?xml version="1.0" encoding="utf-8"?>
<!-- Generator: Adobe Illustrator 23.0.2, SVG Export Plug-In . SVG Version: 6.00 Build 0)  -->
<svg version="1.1" id="图层_1" xmlns="http://www.w3.org/2000/svg" xmlns:xlink="http://www.w3.org/1999/xlink" x="0px" y="0px"
	 viewBox="0 0 196 196" style="enable-background:new 0 0 196 196;" xml:space="preserve">
<style type="text/css">
	.st0{fill:#4F3D91;}
	.st1{fill:#5C5797;}
	.st2{fill:#F5CD1F;}
	.st3{fill:#F2921A;}
	.st4{fill:#F5A238;}
</style>
<g>
	<path class="st0" d="M188.6,56.8L139.1,7.3c-4.6-4.6-11.9-4.6-16.5,0L7.3,122.7c-4.6,4.6-4.6,11.9,0,16.5l49.4,49.4
		c4.6,4.6,11.9,4.6,16.5,0L188.6,73.2C193.1,68.7,193.1,61.3,188.6,56.8z"/>
	<path class="st1" d="M188.6,73.2l-20.9,20.9l-94.5,94.5c-4.1,4.1-10.6,4.6-15.1,1.1c-0.4-0.3-0.9-0.7-1.3-1.1L7.2,139.2
		c-4.6-4.6-4.6-11.9,0-16.5L122.7,7.3c4.6-4.6,11.9-4.6,16.5,0l49.4,49.4C193.1,61.3,193.1,68.7,188.6,73.2z"/>
	<path class="st2" d="M182.6,21.8l-8.5-8.5c-4.7-4.7-12.3-4.7-17,0l-8.5,8.5c-4.7,4.7-4.7,12.3,0,17l8.5,8.5c4.7,4.7,12.3,4.7,17,0
		l8.5-8.5C187.2,34.2,187.2,26.6,182.6,21.8z"/>
	<path class="st0" d="M167.7,94.2l-94.5,94.5c-4.1,4.1-10.6,4.6-15.1,1.1l-6.6-6.6L154.1,80.6L167.7,94.2z"/>
	<path class="st3" d="M188.6,56.8L139.1,7.3c-4.6-4.6-11.9-4.6-16.5,0L95.5,34.5l65.9,65.9l27.2-27.2
		C193.1,68.7,193.1,61.3,188.6,56.8z M103.7,108.2c-0.3-0.8-1.1-1.3-2-1.3L85.2,109L91,83.1c0.2-0.9-0.2-2-1.1-2.5
		c-0.8-0.4-2-0.2-2.6,0.5l-30,39.7c-0.5,0.6-0.7,1.6-0.3,2.4c0.3,0.8,1.1,1.3,2,1.3l16.4-2.2l-5.6,25.8c-0.3,0.9,0.1,2.1,0.9,2.6
		c0.3,0.2,0.7,0.3,1,0.3c0.6,0,1.1-0.2,1.6-0.7l30-39.7C103.9,109.9,104.1,109,103.7,108.2z"/>
	<path class="st4" d="M188.6,56.8L139.1,7.3c-4.6-4.6-11.9-4.6-16.5,0L95.5,34.5l65.9,65.9l27.2-27.2
		C193.1,68.7,193.1,61.3,188.6,56.8z M103.7,108.2c-0.3-0.8-1.1-1.3-2-1.3L85.2,109L91,83.1c0.2-0.9-0.2-2-1.1-2.5
		c-0.8-0.4-2-0.2-2.6,0.5l-30,39.7c-0.5,0.6-0.7,1.6-0.3,2.4c0.3,0.8,1.1,1.3,2,1.3l16.4-2.2l-5.6,25.8c-0.3,0.9,0.1,2.1,0.9,2.6
		c0.3,0.2,0.7,0.3,1,0.3c0.6,0,1.1-0.2,1.6-0.7l30-39.7C103.9,109.9,104.1,109,103.7,108.2z"/>
	<path class="st3" d="M188.6,73.2l-27.2,27.2l-13.7-13.6l35.4-35.4l5.4,5.4C193.1,61.3,193.1,68.7,188.6,73.2z"/>
</g>
</svg>
