<?xml version="1.0" encoding="utf-8"?>
<!-- Generator: Adobe Illustrator 23.0.2, SVG Export Plug-In . SVG Version: 6.00 Build 0)  -->
<svg version="1.1" id="图层_1" xmlns="http://www.w3.org/2000/svg" xmlns:xlink="http://www.w3.org/1999/xlink" x="0px" y="0px"
	 viewBox="0 0 196 196" style="enable-background:new 0 0 196 196;" xml:space="preserve">
<style type="text/css">
	.st0{fill:#FCE0BA;}
	.st1{fill:#DEA561;}
	.st2{fill:#FF605E;}
	.st3{fill:#E63E3B;}
	.st4{fill:#D3D3D3;}
	.st5{fill:#919192;}
	.st6{fill:#FFFFFF;}
</style>
<g>
	<g>
		<path class="st0" d="M127.2,9.8L82,19.6l-3.9,25L75,44.2l-3.3-0.5L76,16.4c0.2-1.3,1.2-2.4,2.5-2.7l47.3-10.3l0.8,3.8L127.2,9.8z"
			/>
		<path class="st1" d="M127.2,9.8L82,19.6l-3.9,25L75,44.2l3.8-24.4c0.2-1.3,1.2-2.4,2.5-2.7l45.3-9.8L127.2,9.8z"/>
	</g>
	<rect x="52.9" y="54.1" class="st2" width="89.9" height="126.8"/>
	<rect x="128.6" y="54.1" class="st3" width="14.3" height="126.8"/>
	<path class="st4" d="M142.8,54.1H52.9l5.5-9.7c0.6-1,1.6-1.6,2.8-1.6h73.5c0.2,0,0.5,0,0.7,0.1c0.9,0.2,1.6,0.8,2.1,1.5L142.8,54.1
		z"/>
	<path class="st4" d="M142.8,180.9l-5.4,9.7c-0.5,0.8-1.3,1.4-2.2,1.6c-0.2,0-0.4,0.1-0.6,0.1H61.1c-1.2,0-2.2-0.6-2.8-1.6l-5.5-9.7
		L142.8,180.9L142.8,180.9z"/>
	<path class="st5" d="M142.8,54.1h-14.3l-6.3-11.2h13.2c0.9,0.2,1.6,0.8,2.1,1.5L142.8,54.1z"/>
	<path class="st6" d="M97.3,171.6c-1.9-1.6-3.3-3.7-4.7-5.9c-1.3-2.1-2.4-4.5-3.3-6.8c-0.1-0.3-0.2-0.6-0.3-0.9l-0.3-0.9l-0.6-1.8
		c-0.2-0.6-0.3-1.2-0.5-1.8c-0.2-0.6-0.3-1.2-0.5-1.9c-0.3-1.2-0.6-2.5-0.8-3.7c-0.2-1.3-0.4-2.5-0.5-3.8c-0.1-1.3-0.3-2.5-0.3-3.9
		c-0.1-0.7,0-1.4,0-2.1c0-0.7,0.1-1.4,0.1-2.1c0.2-2.8,0.8-5.5,1.7-8.2c0.9-2.6,2.1-5.1,3.3-7.3c1.3-2.3,2.6-4.3,3.7-6.3
		c2.4-3.9,4.3-7.6,5.4-11.6c0.6-2,1-4.1,1.3-6.2c0.1-1.1,0.2-2.1,0.3-3.3l0.1-1.7c0-0.6,0.1-1.2,0.1-1.7c0.1-4.5-0.1-9.1-0.8-13.7
		c-0.3-2.3-0.8-4.6-1.5-6.8c-0.7-2.3-1.4-4.5-2.6-6.7c2.1,1.4,3.8,3.3,5.3,5.3c0.4,0.5,0.8,1,1.1,1.6l1,1.6c0.3,0.5,0.6,1.1,0.9,1.7
		c0.1,0.3,0.3,0.6,0.4,0.8l0.4,0.8c2.1,4.7,3.5,9.7,4.2,14.7c0.3,2.5,0.6,5,0.6,7.7c0,2.7-0.2,5.4-0.8,8.1c-0.5,2.7-1.4,5.3-2.5,7.8
		c-0.5,1.3-1.2,2.4-1.7,3.6c-0.6,1.2-1.3,2.3-1.9,3.3c-1.3,2.1-2.6,4.1-3.7,6.1c-1.2,1.9-2.2,3.8-3,5.6c-0.8,1.9-1.4,3.8-1.9,5.8
		c-0.4,2-0.6,4.1-0.8,6.4c-0.1,2.3-0.2,4.6-0.2,6.9c0,1.1,0.1,2.3,0.1,3.5l0.1,1.7l0.1,0.9l0.1,0.9c0.2,2.3,0.5,4.6,1,7
		C95.8,166.9,96.4,169.3,97.3,171.6L97.3,171.6z"/>
	<path class="st5" d="M142.8,180.9l-5.4,9.7c-0.5,0.8-1.3,1.4-2.2,1.6h-13l6.3-11.2L142.8,180.9L142.8,180.9z"/>
</g>
</svg>
