<?xml version="1.0" encoding="UTF-8"?>
<svg width="77px" height="342px" viewBox="0 0 77 342" version="1.1" xmlns="http://www.w3.org/2000/svg" xmlns:xlink="http://www.w3.org/1999/xlink">
    <!-- Generator: Sketch 52.5 (67469) - http://www.bohemiancoding.com/sketch -->
    <title>分组 6</title>
    <desc>Created with Sketch.</desc>
    <g id="Page-1" stroke="none" stroke-width="1" fill="none" fill-rule="evenodd">
        <g id="公共品" transform="translate(-1058.000000, -344.000000)" fill-rule="nonzero">
            <g id="分组-6" transform="translate(1042.000000, 324.000000)">
                <g id="人2" transform="translate(55.500000, 180.500000) scale(-1, 1) translate(-55.500000, -180.500000) ">
                    <g id="分组-2-copy-6" transform="translate(55.620586, 58.700569) rotate(28.000000) translate(-55.620586, -58.700569) translate(18.120586, 12.200569)">
                        <path d="M32.1046864,58.0308573 L36.6811973,58.0416756 C33.403458,70.2870289 24.833206,72.8593402 10.9704411,65.7586098 C7.01172176,61.1842785 -1.59784286,52.4196592 7.29051545,37.275642 C13.1621132,32.8782543 16.5246281,32.0007433 19.9810536,25.5287451 C22.2853373,21.2140797 26.2894313,15.3302249 31.9933356,7.87718088 C41.0237949,1.95585848 48.4035902,1.23306297 54.1327215,5.70879433 C56.9711454,9.33655292 65.9416963,21.4458379 57.0474807,33.5270374 C56.4111623,32.0626221 55.8460561,30.2319895 55.3521622,28.0351395 L51.7029813,31.8621876 L54.1944684,33.5202932 L41.6952805,35.1013821 L41.7106579,42.0275173 L41.7148836,43.9308573 L43.509335,43.9350992 L41.7203094,46.3746929 L43.5169326,47.3571322 L43.5205363,48.9802767 L43.5353578,55.6560596 L34.2297143,47.3351783 C27.6334921,46.4528465 25.0979394,48.0136184 26.6230562,52.0174939 C27.6198398,54.2409546 29.4470498,56.245409 32.1046864,58.0308573 Z" id="路径-2-copy" fill="#141414" transform="translate(32.145924, 36.243339) rotate(-5.000000) translate(-32.145924, -36.243339) "></path>
                        <path d="M46.4889407,36.2801559 C47.4555197,32.8231931 49.6984648,31.675426 53.2177759,32.8368544" id="路径-3-copy" stroke="#141414" stroke-width="2" transform="translate(49.853358, 34.339449) rotate(-5.000000) translate(-49.853358, -34.339449) "></path>
                        <path d="M51.8836313,43.1129166 C52.0581151,39.8400646 52.0538314,37.905055 51.8707801,37.3078879 C51.156874,34.9789162 55.4794718,32.5747607 56.8849116,37.8892455 C58.2903514,43.2037303 52.8614814,39.5660711 51.8707801,37.3078879 C51.2103126,35.8024324 51.2145963,37.737442 51.8836313,43.1129166 Z" id="路径-4-copy" stroke="#232323" fill="#232323" transform="translate(54.247222, 38.902976) rotate(-5.000000) translate(-54.247222, -38.902976) "></path>
                        <path d="M60.4400934,33.6967883 C66.159271,36.5349568 69.501284,38.88975 70.4661324,40.7611679 C71.9134051,43.5682947 73.2585552,45.2882802 70.4762229,45.2817382 C67.6938906,45.2751962 65.4850793,44.7477405 67.2680231,49.5696877 C68.4566522,52.7843192 69.5373101,56.3986016 70.5099967,60.412535 C70.7646653,62.7591146 68.524789,65.2559731 63.7903679,67.9031105 C59.0559467,70.5502479 59.4314413,76.2302854 64.9168517,84.9432229" id="路径-5-copy" stroke="#141414" stroke-width="2" transform="translate(66.268110, 59.320006) rotate(-5.000000) translate(-66.268110, -59.320006) "></path>
                        <path d="M60.4408998,52.387542 C63.5518052,53.4593815 66.1135796,53.8202007 68.1262231,53.4699997" id="路径-6-copy" stroke="#141414" transform="translate(64.283561, 52.993453) rotate(-5.000000) translate(-64.283561, -52.993453) "></path>
                        <path d="M22.402343,63.4329632 C36.7654923,80.2175846 41.6639791,89.88356 37.0978034,92.4308893" id="路径-8" stroke="#141414" stroke-width="2"></path>
                    </g>
                    <g id="分组-4-copy" transform="translate(20.445093, 92.250873)">
                        <path d="M24.7735029,113.381129 C24.3329095,192.8071 21.0727645,241.811007 14.993068,260.392852 C23.7827831,260.621967 33.3589204,260.621967 43.72148,260.392852 C41.0520748,253.222811 36.2640062,249.637791 29.357274,249.637791 C22.4505419,249.637791 24.3845992,236.600213 35.1594459,210.525056 C48.5409318,168.843409 51.3949431,134.811218 43.72148,108.428482" id="路径-37-copy" stroke="#393939" stroke-width="4" fill="#FFFFFF"></path>
                        <path d="M29.0032748,120.15791 C28.5256401,199.58388 24.9914096,248.587787 18.4005835,267.169632 C27.9292637,267.398747 38.3104819,267.398747 49.5442382,267.169632 C46.6504119,259.999592 41.4598028,256.414571 33.9724109,256.414571 C26.4850189,256.414571 28.5816754,243.376993 40.2623804,217.301836 C54.7688688,175.620189 57.8628214,141.587998 49.5442382,115.205262" id="路径-37" stroke="#393939" stroke-width="4" fill="#FFFFFF"></path>
                        <polygon id="路径-38" stroke="#232323" stroke-width="4" fill="#FFFFFF" points="14.993068 108.428482 14.993068 230.137447 50.8700084 230.137447 65.2357436 108.428482"></polygon>
                        <path d="M50.2274327,115.252095 C69.1596294,115.252095 75.8064108,107.026072 70.1677769,90.5740255 L68.235378,83.7169605 C66.8307938,78.7328302 66.4073302,73.5233903 66.9884958,68.3778428 C71.9694631,24.2771529 63.4355596,1.79110721 41.3867853,0.919705872 C19.4566156,0.0529919712 5.78603014,33.8486075 0.375028906,102.306552 L0.375032204,102.306553 C-0.147178226,108.913362 4.78536368,114.692574 11.3921729,115.214785 C11.7067416,115.239649 12.0221687,115.252095 12.3377185,115.252095 C23.9153347,115.252095 36.5452394,115.252095 50.2274327,115.252095 Z" id="路径-20" stroke="#000000" stroke-width="4" fill="#FFFFFF" transform="translate(36.182919, 58.077774) scale(-1, 1) translate(-36.182919, -58.077774) "></path>
                        <path d="" id="路径-25" stroke="#979797"></path>
                    </g>
                </g>
                <g id="分组-11-copy-2" transform="translate(54.500000, 195.500000) scale(-1, 1) translate(-54.500000, -195.500000) translate(18.000000, 141.000000)" fill="#FFFFFF" stroke="#171717" stroke-width="3">
                    <path d="M-13.0016741,64.6697301 C-0.324434823,67.9632205 17.7038955,63.6304946 41.0833169,51.6715524 C45.8310852,49.637791 50.1480971,46.8568337 54.0343524,43.3286805 C57.9206077,39.8005273 64.7745393,36.6414099 74.5961473,33.8513283 L84.7700522,30.8237812 C86.4182322,31.6759513 86.1604431,33.301754 83.9966848,35.7011892 C80.7510475,39.3003422 63.9991313,44.5590936 67.252811,48.8635971 C70.4507959,48.379202 71.1430816,48.1364341 75.5190533,46.6458009 C77.9283279,47.99235 76.6147793,49.7627664 74.5346647,51.7372497 C72.4545501,53.711733 71.5915962,54.2981708 67.6206955,56.4561714 C64.9734284,57.8948385 61.3134506,58.6576871 56.6407622,58.744717 L42.9415072,66.9667992 C25.1787248,75.2723442 12.3198024,78.9106159 4.36473988,77.8816143" id="路径-94" transform="translate(36.418661, 54.437772) rotate(106.000000) translate(-36.418661, -54.437772) "></path>
                </g>
            </g>
        </g>
    </g>
</svg>