<?xml version="1.0" encoding="UTF-8"?>
<svg width="291px" height="140px" viewBox="0 0 291 140" version="1.1" xmlns="http://www.w3.org/2000/svg" xmlns:xlink="http://www.w3.org/1999/xlink">
    <!-- Generator: Sketch 52.5 (67469) - http://www.bohemiancoding.com/sketch -->
    <title>分组 4</title>
    <desc>Created with Sketch.</desc>
    <g id="Page-1" stroke="none" stroke-width="1" fill="none" fill-rule="evenodd">
        <g id="古诺竞争2" transform="translate(-585.000000, -536.000000)" fill-rule="nonzero">
            <g id="分组-4" transform="translate(585.000000, 537.000000)">
                <ellipse id="椭圆形" stroke="#141414" stroke-width="2" fill="#F3F3F3" cx="145" cy="107" rx="144" ry="31"></ellipse>
                <ellipse id="椭圆形" stroke="#333333" stroke-width="2" cx="145" cy="31" rx="144" ry="31"></ellipse>
                <ellipse id="椭圆形" stroke="#141414" stroke-width="2" cx="146.5" cy="26.5" rx="135.5" ry="26.5"></ellipse>
                <path d="M1,32 L1,105" id="路径-124" stroke="#141414" stroke-width="2"></path>
                <path d="M289.145883,107 L289.145883,30" id="路径-125" stroke="#141414" stroke-width="2"></path>
                <path d="M46,27.5341311 C59.5478677,24.1213448 65.1525304,24.1556306 62.8139882,27.6369886 C59.3061748,32.8590256 79.7390718,26.3538214 79.7390718,29.2063827" id="路径-127" stroke="#141414"></path>
                <path d="M106,24.5341311 C119.547868,21.1213448 125.15253,21.1556306 122.813988,24.6369886 C119.306175,29.8590256 139.739072,23.3538214 139.739072,26.2063827" id="路径-127-copy" stroke="#141414"></path>
                <path d="M89,39.5341311 C102.547868,36.1213448 108.15253,36.1556306 105.813988,39.6369886 C102.306175,44.8590256 122.739072,38.3538214 122.739072,41.2063827" id="路径-127-copy-2" stroke="#141414"></path>
                <path d="M147,41.5341311 C160.547868,38.1213448 166.15253,38.1556306 163.813988,41.6369886 C160.306175,46.8590256 180.739072,40.3538214 180.739072,43.2063827" id="路径-127-copy-3" stroke="#141414"></path>
                <path d="M222,29.5341311 C235.547868,26.1213448 241.15253,26.1556306 238.813988,29.6369886 C235.306175,34.8590256 255.739072,28.3538214 255.739072,31.2063827" id="路径-127-copy-5" stroke="#141414"></path>
                <path d="M170,22.5341311 C183.547868,19.1213448 189.15253,19.1556306 186.813988,22.6369886 C183.306175,27.8590256 203.739072,21.3538214 203.739072,24.2063827" id="路径-127-copy-4" stroke="#141414"></path>
            </g>
        </g>
    </g>
</svg>