<?xml version="1.0" encoding="UTF-8"?>
<svg width="81px" height="53px" viewBox="0 0 81 53" version="1.1" xmlns="http://www.w3.org/2000/svg" xmlns:xlink="http://www.w3.org/1999/xlink">
    <!-- Generator: Sketch 52.5 (67469) - http://www.bohemiancoding.com/sketch -->
    <title>头发3</title>
    <desc>Created with Sketch.</desc>
    <g id="Page-1" stroke="none" stroke-width="1" fill="none" fill-rule="evenodd">
        <g id="匹配机制4" transform="translate(-954.000000, -322.000000)" fill="#282828" fill-rule="nonzero" stroke="#282828">
            <g id="分组-2" transform="translate(909.000000, 323.000000)">
                <g id="分组-copy-4" transform="translate(29.000000, 0.000000)">
                    <path d="M22.8008237,47.7741993 C21.1851409,36.7173476 -4.56404551,-5.50397731 63.4349779,3.04394531 C65.1976732,-0.668945313 87.8851732,-4.12214138 93.8748289,15.7864921 C99.8644846,35.6951255 92.5816616,37.4517799 79.449201,41.7140799 C79.0061935,37.5488509 79.0061935,31.5160077 79.449201,23.6155502 C66.8179741,21.5294022 63.928142,22.686849 70.7797045,27.0878906 C66.3295092,39.1481481 37.5682685,18.3164063 37.5682685,32.8332854 C37.4328166,37.4638135 37.4328166,43.5841009 37.5682685,51.1941475 C36.0019909,43.4241811 32.8301179,39.5391978 28.0526495,39.5391978 C27.823178,41.9483239 24.4165064,58.831051 22.8008237,47.7741993 Z" id="头发3" transform="translate(56.344822, 25.841292) scale(-1, 1) translate(-56.344822, -25.841292) "></path>
                </g>
            </g>
        </g>
    </g>
</svg>