<?xml version="1.0" encoding="UTF-8"?>
<svg width="78px" height="62px" viewBox="0 0 78 62" version="1.1" xmlns="http://www.w3.org/2000/svg" xmlns:xlink="http://www.w3.org/1999/xlink">
    <!-- Generator: Sketch 52.5 (67469) - http://www.bohemiancoding.com/sketch -->
    <title>头发2</title>
    <desc>Created with Sketch.</desc>
    <g id="Page-1" stroke="none" stroke-width="1" fill="none" fill-rule="evenodd">
        <g id="匹配机制4" transform="translate(-416.000000, -313.000000)" fill="#282828" fill-rule="nonzero" stroke="#282828">
            <g id="分组-4" transform="translate(369.000000, 314.000000)">
                <g id="分组-copy-5" transform="translate(29.000000, 0.000000)">
                    <path d="M24.2840195,56.7741993 C22.6683367,45.7173476 11.495766,36.1582411 26.7006408,24.7864921 C29.6550859,19.7323814 29.035991,3.16452519 49.6119323,6.87327975 C62.2161305,0.825193958 95.3580247,-11.1626753 95.3580247,24.7864921 C94.1102736,34.8802731 94.0648574,46.4517799 80.9323967,50.7140799 C80.4893893,46.5488509 80.4893893,40.5160077 80.9323967,32.6155502 C72.3170538,37.8734298 62.8470712,37.8734298 52.5224489,32.6155502 C49.9767498,36.9981862 42.323823,38.1124973 39.0514643,41.8332854 C38.9160124,46.4638135 38.9160124,52.5841009 39.0514643,60.1941475 C37.4851867,52.4241811 34.3133136,48.5391978 29.5358452,48.5391978 C29.3063738,50.9483239 25.8997022,67.831051 24.2840195,56.7741993 Z" id="头发2" transform="translate(57.086420, 30.246914) scale(-1, 1) translate(-57.086420, -30.246914) "></path>
                </g>
            </g>
        </g>
    </g>
</svg>