<?xml version="1.0" encoding="UTF-8"?>
<svg width="76px" height="54px" viewBox="0 0 76 54" version="1.1" xmlns="http://www.w3.org/2000/svg" xmlns:xlink="http://www.w3.org/1999/xlink">
    <!-- Generator: Sketch 52.5 (67469) - http://www.bohemiancoding.com/sketch -->
    <title>头发4</title>
    <desc>Created with Sketch.</desc>
    <g id="Page-1" stroke="none" stroke-width="1" fill="none" fill-rule="evenodd">
        <g id="匹配机制4" transform="translate(-1087.000000, -453.000000)" fill="#282828" fill-rule="nonzero" stroke="#282828">
            <g id="分组-copy" transform="translate(1039.000000, 454.000000)">
                <g id="分组-copy-6" transform="translate(29.000000, 0.000000)">
                    <path d="M24.236478,48.7741993 C22.6207952,37.7173476 15.5366228,32.4698739 24.236478,12.2349369 C30.0363814,-1.25502102 43.6036509,-3.48502604 64.9382863,5.54492187 C87.3354217,-0.818359375 96.8489982,5.53851674 93.4790158,24.6155502 C91.4709636,29.5991104 94.0173159,38.4517799 80.8848553,42.7140799 C80.4418478,38.5488509 80.4418478,32.5160077 80.8848553,24.6155502 C52.9642336,36.616706 43.9263878,33.1627661 53.7713179,14.2537303 C51.2256188,18.6363663 39.2071007,26.8874933 39.0039228,33.8332854 C38.8684709,38.4638135 38.8684709,44.5841009 39.0039228,52.1941475 C37.4376452,44.4241811 34.2657722,40.5391978 29.4883038,40.5391978 C29.2588323,42.9483239 25.8521607,59.831051 24.236478,48.7741993 Z" id="头发4" transform="translate(57.062649, 26.303778) scale(-1, 1) translate(-57.062649, -26.303778) "></path>
                </g>
            </g>
        </g>
    </g>
</svg>