<?xml version="1.0" encoding="UTF-8"?>
<svg width="214px" height="504px" viewBox="0 0 214 504" version="1.1" xmlns="http://www.w3.org/2000/svg" xmlns:xlink="http://www.w3.org/1999/xlink">
    <!-- Generator: Sketch 52.5 (67469) - http://www.bohemiancoding.com/sketch -->
    <title>人</title>
    <desc>Created with Sketch.</desc>
    <g id="Page-1" stroke="none" stroke-width="1" fill="none" fill-rule="evenodd">
        <g id="匹配机制2" transform="translate(-362.000000, -385.000000)" fill-rule="nonzero">
            <g id="人" transform="translate(295.000000, 356.000000)">
                <g id="人1" transform="translate(39.000000, 0.000000)">
                    <g id="分组-8">
                        <g id="分组-2-copy-6" transform="translate(81.646329, 86.375910) rotate(28.000000) translate(-81.646329, -86.375910) translate(26.646329, 17.875910)">
                            <path d="M47.0269366,85.6168676 L53.7359097,85.6147387 C48.8852483,103.683618 36.3119629,107.510383 16.0160535,97.0950333 C10.2297378,90.3657633 -2.35895733,77.4762343 10.7274811,55.1110718 C19.3514256,48.6038703 24.2840291,47.2966847 29.3751376,37.7399852 C32.7692099,31.3688522 38.6609917,22.677214 47.0504832,11.6650707 C60.3108896,2.89832809 71.1321168,1.80340117 79.514165,8.38028992 C83.6616898,13.7182524 96.7671226,31.5381075 83.6835043,49.3871293 C82.7561364,47.2303442 81.9345271,44.5332856 81.2186765,41.2959535 L75.8548454,46.9534018 L79.5011078,49.3884565 L61.1718242,51.7691734 L61.1685725,61.9817874 L61.1676789,64.7882699 L63.7982693,64.7874352 L61.1665315,68.3917153 L63.7966627,69.8332366 L63.7959007,72.2265697 L63.7927665,82.0700383 L50.1819902,69.8375568 C40.5154329,68.5626072 36.792584,70.8740026 39.0134435,76.7717429 C40.4664145,80.046326 43.1375789,82.9947009 47.0269366,85.6168676 Z" id="路径-2-copy" fill="#141414" transform="translate(47.169081, 53.479630) rotate(-5.000000) translate(-47.169081, -53.479630) "></path>
                            <path d="M68.2137727,53.5382868 C69.6434961,48.4459516 72.9356371,46.7476134 78.0901956,48.443272" id="路径-3-copy" stroke="#141414" stroke-width="2" transform="translate(73.151984, 50.673094) rotate(-5.000000) translate(-73.151984, -50.673094) "></path>
                            <path d="M76.1120622,63.619995 C76.3804358,58.7926525 76.3813447,55.9390066 76.1147886,55.0590574 C75.075211,51.627226 81.4311072,48.0645618 83.4749699,55.8965503 C85.5188327,63.7285388 77.5610531,58.3853966 76.1147886,55.0590574 C75.1506122,52.8414979 75.1497034,55.6951438 76.1120622,63.619995 Z" id="路径-4-copy" stroke="#232323" fill="#232323" transform="translate(79.599755, 57.407197) rotate(-5.000000) translate(-79.599755, -57.407197) "></path>
                            <path d="M88.741671,49.7294495 C97.1211766,53.8956382 102.015151,57.3577958 103.423593,60.1159224 C105.536257,64.2531124 107.503175,66.7862514 103.42147,66.7875476 C99.3397654,66.7888437 96.1013761,66.0190941 98.6989314,73.1285272 C100.430635,77.8681493 102.002446,83.1980194 103.414366,89.1181377 C103.779183,92.5803251 100.483897,96.2741193 93.5285088,100.19952 C86.5731202,104.124922 87.1027105,112.506303 95.1172798,125.343665" id="路径-5-copy" stroke="#141414" stroke-width="2" transform="translate(97.241125, 87.536557) rotate(-5.000000) translate(-97.241125, -87.536557) "></path>
                            <path d="M88.6878822,77.3072689 C93.2501303,78.8938873 97.0090388,79.4220488 99.9646076,78.8917535" id="路径-6-copy" stroke="#141414" transform="translate(94.326245, 78.199142) rotate(-5.000000) translate(-94.326245, -78.199142) "></path>
                            <path d="M32.8719608,93.603396 C53.9476528,118.371237 61.1354218,132.634612 54.4352678,136.39352" id="路径-8" stroke="#141414" stroke-width="2"></path>
                        </g>
                        <g id="分组-4-copy" transform="translate(30.000000, 136.000000)">
                            <path d="M36.3512699,167.308261 C35.7047675,284.511371 30.9210109,356.822862 22,384.242734 C34.8975424,384.580823 48.9490375,384.580823 64.1544851,384.242734 C60.2375474,373.662429 53.2117998,368.372276 43.0772426,368.372276 C32.9426853,368.372276 35.7806141,349.133673 51.5910291,310.656466 C71.2262824,249.1499 75.4141011,198.931079 64.1544851,160" id="路径-37-copy" stroke="#393939" stroke-width="4" fill="#FFFFFF"></path>
                            <path d="M42.5578037,177.308261 C41.8569488,294.511371 36.6710142,366.822862 27,394.242734 C40.9818591,394.580823 56.2146853,394.580823 72.6984788,394.242734 C68.452238,383.662429 60.8358248,378.372276 49.8492394,378.372276 C38.862654,378.372276 41.939172,359.133673 59.0787934,320.656466 C80.3648132,259.1499 84.9047084,208.931079 72.6984788,170" id="路径-37" stroke="#393939" stroke-width="4" fill="#FFFFFF"></path>
                            <polygon id="路径-38" stroke="#232323" stroke-width="4" fill="#FFFFFF" points="22 160 22 339.59704 74.6438408 339.59704 95.7233273 160"></polygon>
                            <path d="M73.7009608,170.069108 C101.481021,170.069108 111.234141,157.930566 102.960321,133.653482 L99.0967906,119.86646 C97.6769134,114.799624 97.2707132,109.502424 97.9014616,104.278342 C106.027919,36.9721372 93.6369925,2.66507069 60.728683,1.35714286 C27.8939163,0.0521379607 7.67771274,52.0013371 0.0800721556,157.20474 L0.0800759186,157.204741 C-0.397303315,163.81494 4.57432982,169.560558 11.1845293,170.037937 C11.472185,170.058711 11.7604961,170.069108 12.0489009,170.069108 C30.6623117,170.069108 51.2129983,170.069108 73.7009608,170.069108 Z" id="路径-20" stroke="#000000" stroke-width="4" fill="#FFFFFF" transform="translate(53.092817, 85.701133) scale(-1, 1) translate(-53.092817, -85.701133) "></path>
                            <path d="" id="路径-25" stroke="#979797"></path>
                        </g>
                    </g>
                    <g id="分组-11" transform="translate(82.000000, 132.000000)" stroke="#171717" stroke-width="3">
                        <path d="M-2.4158453e-13,51.4873781 C20.1258892,56.054997 49.3998299,49.456725 87.8218221,31.6925621 C95.6739761,28.4996833 103.066702,23.1221719 110,15.560028 C116.933298,7.99788406 125.151912,5.5615686 134.655843,8.25108161 L147,1.96620069 C157.106092,-0.146285052 160.388046,0.663779861 156.845864,4.39639543 C151.532591,9.99531879 126.225233,19.2241389 131.26557,25.666864 C136.390121,24.8152479 135.396981,24.2914643 142.439107,21.8649102 C146.370948,23.363505 147.872101,23.8210521 144.478859,26.9032439 C141.085618,29.9854356 135.19993,33.562269 132.147949,37.0850224 C130.113295,39.4335246 123.207325,40.4006176 111.43004,39.9863014 L89.2556601,53 C60.5889935,66.2852033 39.9223268,72.2852033 27.2556601,71" id="路径-94" fill="#FFFFFF"></path>
                        <path d="M134,18 C140.157369,19.3056302 141.316339,21.240509 137.47691,23.8046366" id="路径-95"></path>
                    </g>
                </g>
            </g>
        </g>
    </g>
</svg>