<?xml version="1.0" encoding="utf-8"?>
<!-- Generator: Adobe Illustrator 23.0.2, SVG Export Plug-In . SVG Version: 6.00 Build 0)  -->
<svg version="1.1" id="图层_1" xmlns="http://www.w3.org/2000/svg" x="0px" y="0px"
	 viewBox="0 0 196 196" style="enable-background:new 0 0 196 196;" xml:space="preserve">
<style type="text/css">
	.st0{fill:#CB261C;}
	.st1{fill:#DD4F42;}
	.st2{fill:#EAE238;}
	.st3{fill:#455963;}
	.st4{fill:#ADBBC4;}
	.st5{fill:#6D838C;}
	.st6{fill:#ECEEF0;}
	.st7{fill:#CFD7DB;}
</style>
<g>
	<path class="st0" d="M160.8,63.3c0-33.8-27.4-61.5-61.2-61.5S38.3,29.5,38.3,63.3c0,13.4,7.1,30.7,18.5,43.4
		c11.3,12.6,19.7,33.9,19.7,50.8v6.6h46v-6.6c0-16.9,8.4-38.2,19.7-50.8C153.6,93.9,160.8,75.1,160.8,63.3L160.8,63.3z"/>
	<path class="st1" d="M134.7,63.3c0,11.8-7.1,30.6-18.6,43.5c-11.3,12.7-19.7,33.9-19.7,50.8v6.6h-20v-6.6
		c0-16.9-8.4-38.2-19.7-50.8C45.4,94,38.3,76.7,38.3,63.3C38.3,34,58.9,9.3,86.5,3.3C114.1,9.3,134.7,34,134.7,63.3z"/>
	<path class="st2" d="M97.2,72.4H81.4c-2.4,0-4.1-2.4-3.2-4.7l11.3-29.1c0.5-1.3,1.8-2.2,3.2-2.2h20c2.6,0,4.3,2.8,3,5l-15.5,29.1
		C99.6,71.8,98.4,72.4,97.2,72.4z"/>
	<path class="st2" d="M90.8,99.1l30.5-32.6c2.3-2.4,0.6-6.4-2.8-6.4h-20c-1.7,0-3.1,1.1-3.6,2.7L84.4,95.3
		C83.1,99.2,88,102.1,90.8,99.1z"/>
	<path class="st3" d="M122,183.7l-4.2,8.4c-0.6,1.2-1.6,1.9-2.7,1.9H84c-1.1,0-2.1-0.7-2.7-1.9l-4.2-8.4H122z"/>
	<path class="st4" d="M128.8,148.3v31.2c0,4.2-3.4,7.6-7.7,7.6H77.9c-0.3,0-0.7,0-1-0.1c-3.8-0.5-6.7-3.7-6.7-7.6v-31.2
		c0-4.2,3.4-7.6,7.6-7.6h43.3C125.4,140.7,128.8,144.1,128.8,148.3z"/>
	<path class="st5" d="M98.7,183.7V194H84c-1.1,0-2.1-0.7-2.7-1.9l-4.2-8.4H98.7z"/>
	<path class="st6" d="M98.7,140.7v46.4H76.9c-3.8-0.5-6.7-3.7-6.7-7.6v-31.2c0-4.2,3.4-7.6,7.6-7.6L98.7,140.7L98.7,140.7z"/>
	<path class="st7" d="M104.8,154.4H70.4v-6.9h34.4c1.9,0,3.4,1.5,3.4,3.4C108.3,152.9,106.7,154.4,104.8,154.4z M70.4,160.4h58.3
		v6.9H70.4V160.4z M128.7,180.1H96.3c-1.9,0-3.4-1.5-3.4-3.4s1.5-3.4,3.4-3.4h32.4V180.1z"/>
</g>
</svg>
