<?xml version="1.0" encoding="UTF-8"?>
<svg width="167px" height="50px" viewBox="0 0 167 50" version="1.1" xmlns="http://www.w3.org/2000/svg" xmlns:xlink="http://www.w3.org/1999/xlink">
    <!-- Generator: Sketch 52.5 (67469) - http://www.bohemiancoding.com/sketch -->
    <title>输入框</title>
    <desc>Created with Sketch.</desc>
    <g id="Page-1" stroke="none" stroke-width="1" fill="none" fill-rule="evenodd">
        <g id="密封拍卖4" transform="translate(-700.000000, -751.000000)" fill="#FFFFFF" fill-rule="nonzero" stroke="#282828" stroke-width="4">
            <path d="M839.358279,753.020452 C833.110418,755.023219 826.838822,755.610334 820.564218,754.775764 C818.420322,754.49061 816.736194,754.227858 815.055184,753.930371 C815.3016,753.973979 812.495473,753.462942 811.87412,753.366768 C810.145694,753.099238 808.451041,753 805.025722,753 C801.985468,753 799.881156,753.149407 797.272041,753.496509 C796.913995,753.544141 793.708331,754.001732 792.575204,754.145931 C790.514289,754.408199 788.437489,754.615337 785.975202,754.788308 C783.947552,754.930745 777.603048,755.421035 776.232264,755.500202 C773.797547,755.640815 771.38186,755.689836 766.735008,755.689836 C762.145275,755.689836 759.839381,755.611299 757.342131,755.402259 C756.829042,755.359309 754.799902,755.173614 754.258413,755.12688 C752.833542,755.003904 751.403964,754.897457 749.650782,754.789439 C747.514355,754.657808 745.929106,754.527252 744.630514,754.385697 C744.142359,754.332484 743.721979,754.281099 743.233605,754.216804 C743.104711,754.199835 742.95042,754.17923 742.693833,754.144964 C742.497757,754.118918 742.354471,754.100409 742.216182,754.083466 C741.099811,753.946692 740.03354,753.896612 737.630209,753.896612 C735.445879,753.896612 730.850807,753.981658 723.863127,754.151722 L723.863128,754.151744 C711.703352,754.447685 702,764.390068 702,776.553444 C702,776.648005 702.000601,776.742565 702.001804,776.837118 C702.158473,789.156774 712.272532,799.016835 724.592197,798.860206 C729.669815,798.795634 734.638618,798.614681 739.498595,798.317395 C744.465907,798.013543 747.765751,797.750118 749.876354,797.511166 C750.658406,797.422627 751.239615,797.342029 751.732355,797.258995 C751.986501,797.216168 752.656176,797.089379 752.750054,797.0731 C753.775937,796.895199 754.832573,796.855189 758.630626,796.855189 C761.043831,796.855189 762.860224,796.79973 765.518539,796.671307 C765.621125,796.666352 766.592783,796.618863 766.873254,796.605503 C767.383871,796.581181 767.800331,796.562645 768.20195,796.546777 C772.485296,796.377541 776.067124,796.530466 782.159491,797.264019 C788.067339,797.975355 790.953481,798.08212 793.991638,797.8065 C794.780635,797.734923 797.969935,797.363649 798.762983,797.282106 C800.177807,797.136632 801.592861,797.018194 803.185815,796.918809 C805.177127,796.794571 806.857636,796.675948 808.553934,796.543594 C809.425801,796.475566 812.009262,796.264098 812.406916,796.232644 C815.868855,795.958811 818.819856,795.804566 824.282976,795.644555 C824.625522,795.634588 824.625522,795.634588 824.977203,795.624621 C829.486047,795.497672 835.776248,795.715282 843.865495,796.27532 C844.319955,796.306784 844.775366,796.32253 845.230914,796.32253 C856.149079,796.32253 865,787.471609 865,776.553444 C865,764.246199 855.442315,754.054387 843.16042,753.264866 L839.358279,753.020452 Z" id="输入框"></path>
        </g>
    </g>
</svg>