<?xml version="1.0" encoding="UTF-8"?>
<svg width="17px" height="20px" viewBox="0 0 17 20" version="1.1" xmlns="http://www.w3.org/2000/svg" xmlns:xlink="http://www.w3.org/1999/xlink">
    <!-- Generator: Sketch 52.5 (67469) - http://www.bohemiancoding.com/sketch -->
    <title>锁定 </title>
    <desc>Created with Sketch.</desc>
    <g id="Page-1" stroke="none" stroke-width="1" fill="none" fill-rule="evenodd">
        <g id="首页-copy" transform="translate(-544.000000, -98.000000)">
            <g id="锁定-" transform="translate(542.000000, 98.000000)">
                <rect id="矩形" fill="#000000" opacity="0" x="0" y="0" width="20" height="20"></rect>
                <path d="M16.7982328,8.38843014 L15.3677065,8.38843014 L15.3677065,5.05986193 C15.3677065,2.27221428 13.1032983,0.00531375 10.3172024,0.00531375 C7.53105955,0.00531375 5.26406496,2.27221428 5.26406496,5.05986193 L5.26406496,8.38843014 L3.83476131,8.38843014 C3.14566719,8.38843014 2.58711252,8.94726695 2.58711252,9.63683131 L2.58711252,18.7502351 C2.58711252,19.4410221 3.14566719,19.9999059 3.83476131,19.999906 L16.7994554,19.999906 C17.4887377,19.999906 18.0459756,19.4410221 18.0459757,18.7502351 L18.0459757,9.63683131 C18.0458816,8.94717289 17.4875621,8.38843014 16.7982328,8.38843014 Z M11.0178645,14.4310059 L11.0178645,16.4210274 C11.0178645,16.5099503 10.9443185,16.5848601 10.8540789,16.5848601 L9.78154861,16.5848601 C9.69018039,16.5848601 9.61658736,16.5099033 9.61658734,16.4210274 L9.61658734,14.4310059 C9.11267492,14.1731717 8.76361354,13.6562806 8.76361354,13.0504665 C8.76361354,12.1932605 9.45919701,11.4960782 10.3159798,11.4960782 C11.1740322,11.4960782 11.8696628,12.1932605 11.8696627,13.0504665 C11.8708854,13.6563276 11.521777,14.1731717 11.0178645,14.4310059 Z M13.4295059,8.38843014 L7.20475791,8.38843014 L7.20475791,5.14229555 C7.20475791,3.42525018 8.60227314,2.02702957 10.318378,2.02702957 C12.0344829,2.02702957 13.4294588,3.42525018 13.4294588,5.14229555 L13.4295059,8.38843014 Z" id="形状" fill="#999999" fill-rule="nonzero"></path>
            </g>
        </g>
    </g>
</svg>