<?xml version="1.0" encoding="UTF-8"?>
<svg width="65px" height="73px" viewBox="0 0 65 73" version="1.1" xmlns="http://www.w3.org/2000/svg" xmlns:xlink="http://www.w3.org/1999/xlink">
    <!-- Generator: Sketch 52.5 (67469) - http://www.bohemiancoding.com/sketch -->
    <title>脸4</title>
    <desc>Created with Sketch.</desc>
    <g id="Page-1" stroke="none" stroke-width="1" fill="none" fill-rule="evenodd">
        <g id="匹配机制4" transform="translate(-962.000000, -332.000000)" fill-rule="nonzero">
            <g id="分组-2" transform="translate(909.000000, 323.000000)">
                <g id="分组-copy-4" transform="translate(29.000000, 0.000000)">
                    <g id="脸4" transform="translate(26.000000, 11.000000)">
                        <path d="M3.83158955,28.9824219 C2.82632185,41.9731267 6.13941049,48.0568669 13.7708555,47.2336426 C14.698224,50.2005365 25.3286817,74.7925874 41.3074456,67.5655382 C46.4614976,64.259049 56.9410584,60.4349881 58.9479512,29.382716 C63.0732068,12.8489432 59.255611,3.17449621 47.4951638,0.359375 C32.9473328,-0.546875 21.7058967,1.38932292 13.7708555,6.16796875 C5.83581422,10.9466146 2.52272558,18.5514323 3.83158955,28.9824219 Z" id="路径-53" stroke="#282828" stroke-width="4" fill="#FFFFFF" transform="translate(32.054223, 34.515780) scale(-1, 1) translate(-32.054223, -34.515780) "></path>
                        <path d="M13,27.7037037 C14.7284817,25.7748456 17.6091402,25.4838135 21.6419753,26.8306074 C20.2363111,27.1076314 19.0306203,27.1147129 18.0249031,26.8518519 L13,27.7037037 Z" id="路径-50-copy" stroke="#282828" fill="#171717" transform="translate(17.320988, 26.851852) scale(-1, -1) translate(-17.320988, -26.851852) "></path>
                        <path d="M35,27.7037037 C36.7284817,25.7748456 39.6091402,25.4838135 43.6419753,26.8306074 C42.2363111,27.1076314 41.0306203,27.1147129 40.0249031,26.8518519 L35,27.7037037 Z" id="路径-50-copy-2" stroke="#282828" fill="#171717" transform="translate(39.320988, 26.851852) scale(-1, -1) translate(-39.320988, -26.851852) "></path>
                        <path d="M26.0266894,32 C30.7243654,41.9917695 31.4301165,46.9876543 28.1439427,46.9876543 C26.7026838,46.8114095 25.3213696,46.4648918 24,45.9481013" id="路径-51" stroke="#282828" stroke-width="2" stroke-linecap="round" transform="translate(27.086420, 39.493827) scale(-1, 1) translate(-27.086420, -39.493827) "></path>
                        <path d="M24,53 C25.1916823,54.6460905 27.6608181,54.6460905 31.4074074,53" id="路径-52" stroke="#282828" stroke-width="3" stroke-linecap="round" transform="translate(27.703704, 53.617284) scale(-1, 1) translate(-27.703704, -53.617284) "></path>
                        <ellipse id="椭圆形" stroke="#282828" fill="#000000" transform="translate(37.641975, 36.172840) scale(-1, 1) translate(-37.641975, -36.172840) " cx="37.6419753" cy="36.1728395" rx="2.85185185" ry="3.08641975"></ellipse>
                        <ellipse id="椭圆形-copy" stroke="#282828" fill="#000000" transform="translate(16.851852, 35.586420) scale(-1, 1) translate(-16.851852, -35.586420) " cx="16.8518519" cy="35.5864198" rx="2.85185185" ry="3.58641975"></ellipse>
                        <ellipse id="椭圆形" fill="#FFFFFF" transform="translate(35.907407, 35.851852) scale(-1, 1) translate(-35.907407, -35.851852) " cx="35.9074074" cy="35.8518519" rx="1.11728395" ry="1.85185185"></ellipse>
                        <ellipse id="椭圆形-copy-2" fill="#FFFFFF" transform="translate(15.117284, 34.851852) scale(-1, 1) translate(-15.117284, -34.851852) " cx="15.117284" cy="34.8518519" rx="1.11728395" ry="1.85185185"></ellipse>
                        <path d="M1.88059278,31 C8.17366621,32.5811447 7.54680195,37.1078937 0,44.5802469" id="路径-54" stroke="#282828" stroke-width="4" transform="translate(3.086420, 37.790123) scale(-1, 1) translate(-3.086420, -37.790123) "></path>
                    </g>
                </g>
            </g>
        </g>
    </g>
</svg>