<?xml version="1.0" encoding="UTF-8"?>
<svg width="65px" height="74px" viewBox="0 0 65 74" version="1.1" xmlns="http://www.w3.org/2000/svg" xmlns:xlink="http://www.w3.org/1999/xlink">
    <!-- Generator: Sketch 52.5 (67469) - http://www.bohemiancoding.com/sketch -->
    <title>脸3</title>
    <desc>Created with Sketch.</desc>
    <g id="Page-1" stroke="none" stroke-width="1" fill="none" fill-rule="evenodd">
        <g id="匹配机制4" transform="translate(-555.000000, -467.000000)" fill-rule="nonzero">
            <g id="分组-4-copy" transform="translate(502.000000, 450.000000)">
                <g id="脸3" transform="translate(55.000000, 19.000000)">
                    <path d="M4.88486305,29.9824219 C3.87959534,42.9731267 7.19268398,49.0568669 14.824129,48.2336426 C15.7514975,51.2005365 26.3819552,75.7925874 42.3607191,68.5655382 C47.5147711,65.259049 57.9943319,61.4349881 60.0012247,30.382716 C61.8469235,13.0757539 58.0293277,3.40130688 48.5484373,1.359375 C32.9572914,-0.979166667 21.7158553,0.95703125 14.824129,7.16796875 C7.93240259,13.3789062 4.61931395,20.983724 4.88486305,29.9824219 Z" id="路径-53" stroke="#282828" stroke-width="4" fill="#FFFFFF" transform="translate(32.580859, 35.144385) scale(-1, 1) translate(-32.580859, -35.144385) "></path>
                    <path d="M34.7901235,31.617284 C36.5186052,27.4241141 39.3992636,26.7914356 43.4320988,29.7192485 C42.0264345,30.3214746 40.8660249,30.3368691 39.9508698,29.7654321 L34.7901235,31.617284 Z" id="路径-50" stroke="#282828" fill="#171717" transform="translate(39.111111, 29.765432) scale(-1, 1) translate(-39.111111, -29.765432) "></path>
                    <path d="M13.8024691,29.1481481 C15.5309509,24.9549783 18.4116093,24.3222998 22.4444444,27.2501127 C21.0387802,27.8523388 19.8330894,27.8677333 18.8273722,27.2962963 L13.8024691,29.1481481 Z" id="路径-50-copy" stroke="#282828" fill="#171717" transform="translate(18.123457, 27.296296) scale(-1, 1) translate(-18.123457, -27.296296) "></path>
                    <path d="M25.7057018,26.6790123 C30.4033777,40.6707819 31.1091288,47.6666667 27.8229551,47.6666667 C26.3816962,47.4198659 25.0003819,46.9346269 23.6790123,46.2109499" id="路径-51" stroke="#282828" stroke-width="4" stroke-linecap="round" transform="translate(26.765432, 37.172840) scale(-1, 1) translate(-26.765432, -37.172840) "></path>
                    <path d="M24.9135802,53.8395062 C26.1052625,55.4855967 28.5743983,55.4855967 32.3209877,53.8395062" id="路径-52" stroke="#282828" stroke-width="4" stroke-linecap="round" transform="translate(28.617284, 54.456790) scale(-1, 1) translate(-28.617284, -54.456790) "></path>
                    <path d="M1.88059278,32 C8.17366621,33.5811447 7.54680195,38.1078937 0,45.5802469" id="路径-54" stroke="#282828" stroke-width="4" transform="translate(3.086420, 38.790123) scale(-1, 1) translate(-3.086420, -38.790123) "></path>
                    <ellipse id="椭圆形" stroke="#282828" fill="#000000" transform="translate(36.641975, 37.172840) scale(-1, 1) translate(-36.641975, -37.172840) " cx="36.6419753" cy="37.1728395" rx="1.85185185" ry="3.08641975"></ellipse>
                    <ellipse id="椭圆形-copy" stroke="#282828" fill="#000000" transform="translate(18.123457, 37.172840) scale(-1, 1) translate(-18.123457, -37.172840) " cx="18.1234568" cy="37.1728395" rx="1.85185185" ry="3.08641975"></ellipse>
                    <ellipse id="椭圆形" fill="#FFFFFF" transform="translate(35.876543, 36.172840) scale(-1, 1) translate(-35.876543, -36.172840) " cx="35.8765432" cy="36.1728395" rx="1" ry="1.85185185"></ellipse>
                    <ellipse id="椭圆形-copy-2" fill="#FFFFFF" transform="translate(16.617284, 37.333333) scale(-1, 1) translate(-16.617284, -37.333333) " cx="16.617284" cy="37.3333333" rx="1" ry="1.85185185"></ellipse>
                </g>
            </g>
        </g>
    </g>
</svg>