<?xml version="1.0" encoding="UTF-8"?>
<svg width="80px" height="60px" viewBox="0 0 80 60" version="1.1" xmlns="http://www.w3.org/2000/svg" xmlns:xlink="http://www.w3.org/1999/xlink">
    <!-- Generator: Sketch 52.5 (67469) - http://www.bohemiancoding.com/sketch -->
    <title>头发1</title>
    <desc>Created with Sketch.</desc>
    <g id="Page-1" stroke="none" stroke-width="1" fill="none" fill-rule="evenodd">
        <g id="匹配机制4" transform="translate(-271.000000, -451.000000)" fill="#282828" fill-rule="nonzero" stroke="#282828">
            <g id="分组-3-copy-2" transform="translate(224.875596, 451.000000)">
                <g id="分组-copy-7" transform="translate(29.000000, 0.000000)">
                    <path d="M24.1073644,55.5435513 C22.4916816,44.4866996 12.8727759,29.9551949 21.6389239,19.4220182 C21.6389239,15.3425168 27.3776587,14.3679075 31.4588819,17.7112286 C36.3952724,15.3425168 34.0247137,5.62229974 42.6389628,2.48687719 C56.0196721,-2.38344604 95.8190649,1.68604339 95.8190649,23.5558441 C94.5713138,33.6496252 93.8882023,45.2211319 80.7557417,49.4834319 C80.3127342,45.3182029 80.3127342,39.2853597 80.7557417,31.3849022 C70.2000543,31.4234097 59.7598995,28.8137237 49.4352772,23.5558441 C46.8895781,27.9384801 42.1471679,36.8818493 38.8748092,40.6026374 C38.7393573,45.2331655 38.7393573,51.3534529 38.8748092,58.9634996 C37.3085316,51.1935331 34.1366586,47.3085498 29.3591902,47.3085498 C29.1297187,49.7176759 25.7230471,66.600403 24.1073644,55.5435513 Z" id="头发1" transform="translate(56.909532, 29.955195) scale(-1, 1) translate(-56.909532, -29.955195) "></path>
                </g>
            </g>
        </g>
    </g>
</svg>