<?xml version="1.0" encoding="UTF-8"?>
<svg width="98px" height="281px" viewBox="0 0 98 281" version="1.1" xmlns="http://www.w3.org/2000/svg" xmlns:xlink="http://www.w3.org/1999/xlink">
    <!-- Generator: Sketch 52.5 (67469) - http://www.bohemiancoding.com/sketch -->
    <title>背影</title>
    <desc>Created with Sketch.</desc>
    <g id="Page-1" stroke="none" stroke-width="1" fill="none" fill-rule="evenodd">
        <g id="匹配机制1" transform="translate(-787.000000, -367.000000)" fill-rule="nonzero" stroke="#282828">
            <g id="背影" transform="translate(789.000000, 368.000000)">
                <path d="M16.1487537,159.089402 L35.4820101,159.089402 C54.6948179,162.323451 69.4504701,163.022732 79.7489668,161.187243 C81.4057613,174.673182 85.1850108,176.751893 91.0867154,167.423375 C91.7037016,154.281275 92.4878695,143.095176 93.4392189,133.865079 C89.1765059,114.538248 90.7195279,93.4213402 86.4401245,83.077381 C82.8639408,67.7559524 67.4683582,61.9167157 40.2533768,65.5596708 C11.9445441,63.6795028 -1.10216145,83.1377872 1.11326012,123.934524 C1.42766728,130.513001 2.79992766,145.289092 5.23004127,168.262798 L5.23005135,168.262797 C5.49969949,170.811985 7.64976942,172.74662 10.2131794,172.74662 L10.2131794,172.74662 C12.6828255,172.74662 14.6848692,170.744576 14.6848692,168.27493 C14.6848692,168.263863 14.6848281,168.252797 14.684746,168.241731 C14.6507648,163.665705 14.6338261,160.614929 14.6339233,159.089402 C14.6366285,116.626646 17.3739772,92.07518 22.8459694,85.435004" id="路径-59" stroke-width="4" fill="#FFFFFF" transform="translate(47.155645, 118.827406) scale(-1, 1) translate(-47.155645, -118.827406) "></path>
                <path d="M38.2329966,64.6545527 C13.0558852,61.753337 0.467329545,81.7135411 0.467329545,124.535165 C0.467329545,128.811 1.3161635,143.285402 3.0138314,167.958371 L3.01385337,167.95837 C3.24007148,171.246099 5.973029,173.797472 9.26853176,173.797472 L9.26853176,173.797472 C12.3330341,173.797472 14.8173041,171.313202 14.8173041,168.2487 C14.8173041,168.157961 14.8150784,168.067236 14.8106289,167.976607 C12.8767335,128.585856 14.8817145,104.241327 20.8255892,94.9430184" id="路径-59-copy" stroke-width="4" fill="#FFFFFF"></path>
                <path d="M17.5585533,16.0726637 C16.2026944,7.96552832 21.0873641,5.09359368 29.9997181,6.6677032 C37.6690756,-4.11496444 59.7188998,-2.15989377 71.9722964,16.0726637 C70.9252007,23.4736537 63.1412647,19.473489 63.1412647,29.3742316 C62.7694989,26.3201909 61.6287106,29.9774523 59.7188998,40.3460157 C56.0672466,54.5401088 49.9092791,59.7095569 41.2449973,55.8543599 C39.1086815,59.0678084 35.8401467,50.6197054 33.0940281,53.3478719 C33.006048,55.975763 30.1650561,55.3903248 26.6538186,48.5951439 C25.9703215,47.2723947 25.1462733,44.3871721 24.181674,39.9394762 C24.181674,35.3232351 22.8723053,30.7201346 20.2535679,26.1301747 C20.0609985,27.8966008 18.9144121,24.179799 17.5585533,16.0726637 Z" id="路径-48" fill="#282828" transform="translate(44.653495, 28.579324) scale(-1, 1) translate(-44.653495, -28.579324) "></path>
                <path d="M65.5315804,33 C70.2897723,35.3389981 69.7540883,39.1921237 63.9245283,44.5593768 C62.9044699,45.5276257 61.5962938,47.3411668 60,50" id="路径-54" stroke-width="2"></path>
                <path d="M31.9034341,34 C36.5120915,37.8531256 35.9764075,41.7062512 30.2963821,45.5593768 C29.3515937,46.4676467 28.1099177,47.4864035 26.5713541,48.6156474" id="路径-54-copy" stroke-width="2" transform="translate(30.785677, 41.307824) scale(-1, 1) translate(-30.785677, -41.307824) "></path>
                <path d="M15.0231201,160.907821 C16.0451926,162.970566 21.3984172,163.69311 31.0827941,163.075454 C45.6093594,162.148969 51.5298174,158.709648 57.7284573,158.184132 C61.8608839,157.833787 69.0773241,158.099423 79.3777778,158.981037" id="路径-55" stroke-width="3"></path>
                <path d="M22.4080808,163.80465 C26.6480551,171.66555 27.5999858,190.088828 25.2638729,219.074485 C21.7597036,262.552969 29.6216846,264.170782 29.6216846,264.170782 C29.6216846,264.170782 33.3577276,264.170782 40.8298134,264.170782 L43.4233223,225.372489 C45.6844418,205.622227 46.8150016,192.290238 46.8150016,185.376524 C46.8150016,178.46281 45.6844418,170.399716 43.4233223,161.187243 L22.4080808,163.80465 Z" id="路径-56" stroke-width="4" fill="#FFFFFF"></path>
                <path d="M54.0579125,159.085538 C54.0579125,166.392502 55.0136774,184.910443 56.9252073,214.63936 C59.7925021,259.232737 61.3005716,259.967372 61.3005716,259.967372 C61.3005716,259.967372 65.0516628,259.967372 72.5538451,259.967372 L75.1578002,214.63936 C75.1578002,203.395034 75.1578002,193.465336 75.1578002,184.850267 C75.1578002,176.235197 74.2898152,167.646954 72.5538451,159.085538 L54.0579125,159.085538 Z" id="路径-56-copy" stroke-width="4" fill="#FFFFFF"></path>
                <path d="M31.8087131,270.435856 C18.3443901,273.67078 12.0757172,275.853492 13.0026945,276.98399 C13.9296717,278.114488 21.9881076,278.114488 37.1780022,276.98399 L37.1780022,264.170782 L31.8087131,264.170782 L31.8087131,270.435856 Z" id="路径-60" stroke-width="4" fill="#FFFFFF"></path>
                <path d="M81.3934494,265.181593 C67.9291264,268.416518 61.6604535,270.59923 62.5874307,271.729728 C63.5144079,272.860226 71.5728439,272.860226 86.7627385,271.729728 L86.7627385,258.91652 L81.3934494,258.91652 L81.3934494,265.181593 Z" id="路径-60-copy" stroke-width="4" fill="#FFFFFF" transform="translate(74.630303, 265.747061) scale(-1, 1) translate(-74.630303, -265.747061) "></path>
                <path d="M35,51 C37.7454427,57.3828125 37.7454427,61.5615234 35,63.5361328" id="路径-82" stroke-width="2"></path>
                <path d="M56,51 C58.7454427,58.401119 58.7454427,63.2464966 56,65.5361328" id="路径-82-copy" stroke-width="2" transform="translate(57.029541, 58.268066) scale(-1, 1) translate(-57.029541, -58.268066) "></path>
            </g>
        </g>
    </g>
</svg>