<?xml version="1.0" encoding="UTF-8"?>
<svg width="109px" height="112px" viewBox="0 0 109 112" version="1.1" xmlns="http://www.w3.org/2000/svg" xmlns:xlink="http://www.w3.org/1999/xlink">
    <!-- Generator: Sketch 52.5 (67469) - http://www.bohemiancoding.com/sketch -->
    <title>想法</title>
    <desc>Created with Sketch.</desc>
    <g id="Page-1" stroke="none" stroke-width="1" fill="none" fill-rule="evenodd">
        <g id="密封拍卖3" transform="translate(-839.000000, -390.000000)" fill-rule="nonzero">
            <g id="想法" transform="translate(840.000000, 391.000000)">
                <circle id="椭圆形-copy-7" stroke="#141414" stroke-width="2" fill="#FFFFFF" cx="9" cy="101" r="9"></circle>
                <path d="M24.6863686,15.3152651 C30.1293085,3.79871006 38.9522616,0.657060982 51.1552278,5.89031791 C56.7587134,2.34067819 70.7292368,-9.92083312 87.7239872,16.8891163 C92.7268754,18.9448081 125.702017,51.6228011 92.056536,78.6930413 C90.6734308,82.8903813 83.5206417,105.417034 64.5818005,95.0187206 C60.2673885,98.6373676 41.5148567,110.49331 26.7101147,85.4545481 C22.2563884,85.998132 0.211396042,82.4206473 7.81227203,55.2898743 C6.06323782,50.9702582 1.26756995,27.8879147 20.8099697,16.8891163 C21.950319,16.3644993 23.242452,15.8398822 24.6863686,15.3152651 Z" id="路径-24-copy-4" stroke="#232323" stroke-width="2" fill="#FFFFFF"></path>
                <path d="M10,92 C18.0687523,97.2857143 18.0687523,103.452381 10,110.5" id="路径-29-copy" stroke="#232323"></path>
            </g>
        </g>
    </g>
</svg>