<?xml version="1.0" encoding="utf-8"?>
<!-- Generator: Adobe Illustrator 23.0.2, SVG Export Plug-In . SVG Version: 6.00 Build 0)  -->
<svg version="1.1" id="图层_1" xmlns="http://www.w3.org/2000/svg" xmlns:xlink="http://www.w3.org/1999/xlink" x="0px" y="0px"
	 viewBox="0 0 196 196" style="enable-background:new 0 0 196 196;" xml:space="preserve">
<style type="text/css">
	.st0{fill:#BAA77D;}
	.st1{fill:#8E7C59;}
</style>
<circle class="st0" cx="29.5" cy="130.2" r="25.8"/>
<path class="st1" d="M47.9,112.8c2.1,3.7,3.3,8,3.3,12.6c0,14.2-11.5,25.8-25.8,25.8c-7.2,0-13.7-3-18.4-7.8
	c4.4,7.9,12.8,13.2,22.5,13.2c14.2,0,25.8-11.5,25.8-25.8C55.3,123.8,52.5,117.5,47.9,112.8z"/>
<circle class="st0" cx="49.1" cy="94.3" r="20.9"/>
<path class="st1" d="M70,94.3c0,11.6-9.4,20.9-20.9,20.9c-4.2,0-8.2-1.3-11.5-3.4c1.3-15.3,11-28.1,24.5-33.9
	C66.9,81.7,70,87.7,70,94.3z"/>
<circle class="st0" cx="76.3" cy="120.4" r="40.6"/>
<path class="st1" d="M111.1,99.3c1.2,3.8,1.8,7.8,1.8,12c0,22.5-18.2,40.6-40.6,40.6c-14.7,0-27.6-7.8-34.8-19.6
	C42.6,149,58.1,161,76.3,161c22.5,0,40.6-18.2,40.6-40.6C117,112.7,114.8,105.5,111.1,99.3z"/>
<circle class="st0" cx="126" cy="128.1" r="28.7"/>
<path class="st1" d="M150.3,112.7c0.9,2.7,1.3,5.6,1.3,8.6c0,15.9-12.9,28.7-28.7,28.7c-10.2,0-19.2-5.3-24.3-13.3
	c3.7,11.7,14.6,20.1,27.4,20.1c15.9,0,28.7-12.9,28.7-28.7C154.8,122.4,153.1,117.1,150.3,112.7z"/>
<circle class="st0" cx="106.6" cy="82.4" r="26.2"/>
<circle class="st0" cx="143" cy="29" r="6.8"/>
<circle class="st0" cx="106.6" cy="19.5" r="2.7"/>
<circle class="st0" cx="64.2" cy="59" r="2.7"/>
<path class="st1" d="M146.1,23c0.3,0.7,0.4,1.5,0.4,2.4c0,3.7-3,6.8-6.8,6.8c-1.1,0-2.2-0.3-3.2-0.8c1,2.6,3.4,4.4,6.3,4.4
	c3.7,0,6.8-3,6.8-6.8C149.7,26.4,148.3,24.2,146.1,23z"/>
<circle class="st0" cx="149.5" cy="172.9" r="6.8"/>
<path class="st1" d="M152.7,166.9c0.3,0.7,0.4,1.5,0.4,2.4c0,3.7-3,6.8-6.8,6.8c-1.1,0-2.2-0.3-3.2-0.8c1,2.6,3.4,4.4,6.3,4.4
	c3.7,0,6.8-3,6.8-6.8C156.3,170.3,154.9,168.1,152.7,166.9z"/>
<circle class="st0" cx="143" cy="97.9" r="26.2"/>
<path class="st1" d="M143.8,71.7c7.9,4.5,13.2,13,13.2,22.7c0,14.5-11.7,26.2-26.2,26.2c-0.3,0-0.6,0-0.8,0c3.8,2.2,8.3,3.5,13,3.5
	c14.5,0,26.2-11.7,26.2-26.2C169.1,83.7,157.9,72.1,143.8,71.7z"/>
<circle class="st0" cx="173.4" cy="96.4" r="19.4"/>
<path class="st1" d="M188.1,83.2c1.6,2.8,2.6,6.1,2.6,9.6c0,10.7-8.7,19.4-19.4,19.4c-5.8,0-11-2.6-14.6-6.6
	c3.3,5.8,9.6,9.8,16.9,9.8c10.7,0,19.4-8.7,19.4-19.4C192.9,91.1,191,86.6,188.1,83.2z"/>
<circle class="st0" cx="161.3" cy="125.2" r="31.6"/>
<path class="st1" d="M188.6,109.4c0.4,2,0.6,4.2,0.6,6.3c0,17.5-14.2,31.6-31.6,31.6c-11.7,0-21.9-6.4-27.4-15.8
	c2.9,14.4,15.7,25.3,31,25.3c17.5,0,31.6-14.2,31.6-31.6C192.9,119.4,191.3,114,188.6,109.4z"/>
<g>
	<circle class="st0" cx="23.8" cy="48.8" r="13.8"/>
	<path class="st1" d="M37.6,48.8c0,6.3-4.2,11.6-10,13.2c3.5-2.5,5.7-6.6,5.7-11.2c0-7.6-6.2-13.8-13.8-13.8c-1.3,0-2.6,0.2-3.8,0.5
		c2.3-1.6,5-2.6,8.1-2.6C31.4,35.1,37.6,41.2,37.6,48.8z"/>
</g>
</svg>
