<?xml version="1.0" encoding="utf-8"?>
<!-- Generator: Adobe Illustrator 23.0.2, SVG Export Plug-In . SVG Version: 6.00 Build 0)  -->
<svg version="1.1" id="图层_1" xmlns="http://www.w3.org/2000/svg" xmlns:xlink="http://www.w3.org/1999/xlink" x="0px" y="0px"
	 viewBox="0 0 196 196" style="enable-background:new 0 0 196 196;" xml:space="preserve">
<style type="text/css">
	.st0{fill:#9E9E9E;}
	.st1{fill:#7C7C7C;}
	.st2{fill:#353535;}
	.st3{fill:#161616;}
	.st4{fill:#B79EA2;}
	.st5{fill:#272A3B;}
	.st6{fill:#E0DDD3;}
	.st7{fill:#FFFFFF;}
	.st8{fill:#E50012;}
</style>
<rect x="49.7" y="82.2" class="st0" width="103.9" height="52.6"/>
<rect x="116.8" y="82.2" class="st1" width="11.5" height="52.6"/>
<path class="st2" d="M124,73.4c0,33.9,13.8,61.4,30.7,61.4s30.7-27.5,30.7-61.4S171.6,12,154.7,12S124,39.5,124,73.4z"/>
<path class="st3" d="M154.7,12.1c-2.4,0-4.8,0.5-7.1,1.6c13.5,6.5,23.6,30.7,23.6,59.7s-10.1,53.3-23.6,59.7
	c2.3,1.1,4.7,1.6,7.1,1.6c17,0,30.7-27.5,30.7-61.4S171.7,12.1,154.7,12.1z"/>
<path class="st4" d="M145.9,73.4c0,8.1,3.9,14.7,8.8,14.7s8.8-6.6,8.8-14.7s-3.9-14.7-8.8-14.7S145.9,65.3,145.9,73.4z"/>
<path class="st5" d="M154.7,91c-6.5,0-11.6-7.7-11.6-17.5s5-17.5,11.6-17.5c6.6,0,11.6,7.7,11.6,17.5S161.2,91,154.7,91z
	 M154.7,61.5c-2.9,0-6,5.2-6,12c0,6.8,3.2,12,6,12c2.9,0,6-5.2,6-12S157.6,61.5,154.7,61.5z"/>
<path class="st6" d="M124,73.4c0-33.9,13.8-61.4,30.7-61.4H73.1c-34.5,0-62.6,28.1-62.6,62.6v109.2l22.8-17.7l15.5,17.7l18.6-17.2
	l17.7,17.2l15.7-18.6l23.1,17.2L124,73.4L124,73.4z"/>
<path class="st7" d="M39.4,126.1c-1.5,0-2.7-1.2-2.7-2.7V74.8c0-1.5,1.2-2.7,2.7-2.7c1.5,0,2.7,1.2,2.7,2.7v48.6
	C42.2,124.9,41,126.1,39.4,126.1z"/>
<path class="st8" d="M44.8,49.3c-1.3,3-2.4,6.1-3.3,9.4"/>
<path class="st7" d="M41.5,61.5c-0.2,0-0.4,0-0.7-0.1c-1.5-0.4-2.4-1.9-2-3.4c0.9-3.4,2.1-6.7,3.4-9.9c0.7-1.4,2.3-2,3.6-1.4
	c1.4,0.7,2,2.3,1.4,3.6c-1.3,2.9-2.3,5.9-3.2,9C43.8,60.7,42.7,61.5,41.5,61.5z"/>
</svg>
