<?xml version="1.0" encoding="utf-8"?>
<!-- Generator: Adobe Illustrator 23.0.2, SVG Export Plug-In . SVG Version: 6.00 Build 0)  -->
<svg version="1.1" id="图层_1" xmlns="http://www.w3.org/2000/svg" xmlns:xlink="http://www.w3.org/1999/xlink" x="0px" y="0px"
	 viewBox="0 0 196 196" style="enable-background:new 0 0 196 196;" xml:space="preserve">
<style type="text/css">
	.st0{fill:#547333;}
	.st1{fill:#79A62C;}
	.st2{fill:#DDDCDC;}
	.st3{fill:#FFFFFF;}
</style>
<g>
	<path class="st0" d="M177.8,96c0.9-9-1.1-18-5.6-25.8c1.5-3.9,2.5-7.9,2.9-12c2.1-21.8-12-40.9-31.4-42.8c-3.6-0.3-7.3,0-10.9,0.9
		c-5.3-7.4-13.4-12.2-22.3-13.4c-9-1.1-18.1,1.5-25,7.4c-1.3-0.3-2.5-0.5-3.8-0.6c-19.6-1.9-37.2,14.3-39,36.2c-0.1,1.7-0.1,3.4,0,5
		c-10.3,7-17,18.3-18,30.8c-1.8,18.8,8.4,35.5,23.7,41c-0.3,28,9.7,52.3,25.4,63.8l2,1.4l2,1.2l1.9,1h0.3l1.8,0.8l0.6,0.2l1.7,0.6
		l0.8,0.3l1.5,0.4l1.3,0.3l1.1,0.2l2.4,0.3h4.9l1.9,0.2h0.9l1.8-0.3h0.6l1.9-0.5h0.4l2.1-0.6h0.2l2.2-0.8l2.2-1
		c17.5-8.4,31.9-30.5,36.8-57.9c16-2.5,29.2-17.1,30.9-35.9"/>
	<path class="st1" d="M137.8,120.6c0,40.1-21,72.5-46.8,72.5c-25.8,0-46.8-32.3-46.8-72.5s21-72.5,46.8-72.5
		C116.8,48.1,137.8,80.6,137.8,120.6"/>
	<path class="st1" d="M85.1,92.7c0,21-14.8,38.1-33.2,38.1s-33.1-17.2-33.1-38.1S33.6,54.5,52,54.5S85.1,71.5,85.1,92.7"/>
	<path class="st1" d="M98.9,57c0,21-14.8,38.1-33.2,38.1S32.5,78.1,32.5,57s14.8-38.1,33.2-38.1C84,18.8,98.9,35.8,98.9,57"/>
	<path class="st1" d="M124.2,48c0,21-14.8,38.1-33.2,38.1S57.8,69.2,57.8,48S72.6,9.9,91,9.9S124.2,26.9,124.2,48"/>
	<path class="st1" d="M157.3,57c0,21-14.8,38.1-33.2,38.1S91,78.1,91,57s14.8-38.1,33.2-38.1S157.3,35.8,157.3,57"/>
	<path class="st1" d="M163.2,92.7c0,21-14.8,38.1-33.2,38.1s-33.2-17-33.2-38.1s14.8-38.1,33.2-38.1S163.2,71.6,163.2,92.7"/>
	<g>
		<path class="st2" d="M102.6,163l4.2-31.8l-6.5,20.3c0,0,0.2,1.1,0.4,2.5c-1.3-6.4-2.6-13-3.8-19.6l4.3-32.3l-6.4,20.1
			c-2.4-14.4-4.1-27.7-4.1-36.2c0,15.7-5.6,46.8-10.8,72.4l1.3-7.4l-6.5-20.3l4.3,32.2c-2.1,10-4,18.9-5.4,25.3
			c5.2,3.2,11.1,4.9,17.1,5c6.1-0.1,12-1.8,17.1-5C106.5,181.7,104.6,172.9,102.6,163z"/>
		<polygon class="st2" points="86.8,121.9 80.3,101.6 84.7,134.3 		"/>
	</g>
	<g>
		<path class="st3" d="M97.8,192.2c-2.3,0.5-4.7,0.8-7.1,0.9c-6.1-0.1-12-1.8-17.1-5c1.4-6.4,3.4-15.3,5.4-25.3l-4.3-32.2l6.5,20.3
			l-1.3,7.4c3-14.6,6-30.9,8.2-45.2L97.8,192.2z"/>
		<polygon class="st3" points="86.7,121.8 84.5,134.1 80.2,101.5 		"/>
	</g>
	<polygon class="st3" points="84.5,134.1 80.2,101.5 86.7,121.8 	"/>
	<path class="st3" d="M97.8,192.2c-2.3,0.5-4.7,0.8-7.1,0.9c-6.1-0.1-12-1.8-17.1-5c1.4-6.4,3.4-15.3,5.4-25.3l-4.3-32.2l6.5,20.3
		l-1.3,7.4c3-14.6,6-30.9,8.2-45.2L97.8,192.2z"/>
</g>
</svg>
