<?xml version="1.0" encoding="utf-8"?>
<!-- Generator: Adobe Illustrator 23.0.2, SVG Export Plug-In . SVG Version: 6.00 Build 0)  -->
<svg version="1.1" id="图层_1" xmlns="http://www.w3.org/2000/svg" xmlns:xlink="http://www.w3.org/1999/xlink" x="0px" y="0px"
	 viewBox="0 0 196 196" style="enable-background:new 0 0 196 196;" xml:space="preserve">
<style type="text/css">
	.st0{fill:#9AB6D5;}
	.st1{fill:#C2D0DE;}
	.st2{fill:#CDC0B5;}
	.st3{fill:#6082A6;}
	.st4{fill:#4A557A;}
	.st5{fill:#7D9FC9;}
	.st6{fill:#52749A;}
	.st7{fill:#FEF6EC;}
	.st8{fill:#CC5A44;}
</style>
<g>
	<path class="st0" d="M129.7,72.1v-5.3c0-5.8-18-36.9-18.3-38.2c-0.4-1.4,0-2.8,0-2.8H85.6c0,0,0.4,1.5,0,2.8
		c-0.4,1.4-18.3,32.4-18.3,38.2v113.6c0,7.1,14,12.9,31.2,12.9s31.2-5.8,31.2-12.9L129.7,72.1L129.7,72.1z"/>
	<path class="st1" d="M101.8,26.4H85.7c0.1,0.5,0.1,1.4-0.1,2.1c-0.4,1.4-18.3,32.4-18.3,38.2v113.6c0,7.1,14,12.9,31.2,12.9h0.4
		c12.4-1.7,21.2-6.5,21.2-12.2V67.4c0-5.8-18-36.9-18.3-38.2C101.4,27.9,101.8,26.4,101.8,26.4z"/>
	<path class="st2" d="M129.7,66.1c0,6.1-14,11.1-31.2,11.1s-31.2-5-31.2-11.1v46.8c0,6.1,14,11.1,31.2,11.1s31.2-5,31.2-11.1V66.1z"
		/>
	<path class="st3" d="M85,24.6c0,2.9,6,5.2,13.5,5.2s13.5-2.3,13.5-5.2c0,0,0,0,0,0c0-2.9-6-5.2-13.5-5.2C91,19.4,85,21.7,85,24.6
		L85,24.6z"/>
	<path class="st4" d="M112,21V8.9c0-0.8-0.7-1.5-1.5-1.5h-24c-0.8,0-1.5,0.7-1.5,1.5V21c0,0.1,0,0.2,0,0.3c0.5,3.1,6.3,5.5,13.5,5.5
		s13-2.4,13.5-5.5C112,21.2,112,21.1,112,21z"/>
	<path class="st5" d="M112,21V8.9c0-0.8-0.7-1.5-1.5-1.5h-24c-0.8,0-1.5,0.7-1.5,1.5V21c0,0.1,0,0.2,0,0.3c0.5,3.1,6.3,5.5,13.5,5.5
		s13-2.4,13.5-5.5C112,21.2,112,21.1,112,21z"/>
	<path class="st6" d="M112,9v12.1c0,0.1,0,0.2,0,0.3c-0.3,1.8-2.4,3.4-5.5,4.4V7.5h4.1C111.3,7.5,112,8.2,112,9z"/>
	<path class="st5" d="M85,8.6c0,3.3,6,5.9,13.5,5.9S112,11.9,112,8.6c0,0,0,0,0,0c0-3.3-6-5.9-13.5-5.9C91,2.7,85,5.3,85,8.6L85,8.6
		z"/>
	<path class="st5" d="M78.1,183.1c0,3.1,9.1,5.6,20.4,5.6c11.3,0,20.4-2.5,20.4-5.6c0,0,0,0,0,0c0-3.1-9.2-5.6-20.4-5.6
		C87.2,177.5,78.1,180,78.1,183.1z M109.1,12.3c-2.1-5.2-8.2-8.7-15.2-8.3c-2.8,0.1-5.3,0.9-7.5,2C85.4,6.8,85,7.7,85,8.6
		c0,3.3,6.1,5.9,13.5,5.9C102.8,14.6,106.6,13.7,109.1,12.3z"/>
	<path class="st7" d="M119.9,73.8v46.8c-5.6,1.9-13.1,3-21.4,3c-17.2,0-31.2-5-31.2-11.1V65.8c0,6.1,14,11.1,31.2,11.1
		C106.8,76.9,114.3,75.7,119.9,73.8z"/>
	<path class="st8" d="M73.7,91.8c-0.3-0.4-0.5-0.8-0.7-1.3c-0.2-0.5-0.3-1-0.4-1.6c-0.1-0.6-0.1-1.3,0-2.2c0.1-0.8,0.2-1.8,0.5-2.9
		l2.4,0.6c-0.3,1.4-0.4,2.6-0.5,3.4c-0.1,0.8,0,1.5,0,2.1c0.2-0.1,0.4-0.2,0.5-0.4c0.2-0.1,0.3-0.3,0.6-0.5c0.2-0.2,0.4-0.4,0.6-0.6
		c0.2-0.2,0.5-0.5,0.8-0.8h0l0.4-0.5l2.2,0.6c0.2,1.1,0.4,1.9,0.6,2.5s0.4,1,0.6,1.4c0.3-0.5,0.7-1.2,1.2-2c0.4-0.9,0.9-2.1,1.4-3.6
		l2.3,1c-0.4,1.2-0.8,2.1-1.2,2.9c-0.3,0.8-0.7,1.4-1,1.9c-0.3,0.5-0.7,1-1,1.3s-0.7,0.7-1.1,1l-2-0.4c-0.2-0.2-0.3-0.5-0.5-0.8
		c-0.2-0.3-0.3-0.6-0.5-0.9s-0.3-0.7-0.3-1c-0.1-0.3-0.2-0.7-0.2-0.9c-0.1,0.1-0.3,0.3-0.5,0.5c-0.2,0.2-0.4,0.5-0.7,0.7
		c-0.3,0.2-0.6,0.5-0.9,0.7c-0.3,0.2-0.6,0.4-1,0.5L73.7,91.8L73.7,91.8L73.7,91.8z M95.8,85.9c0,0.3,0,0.6,0.1,0.8
		c0,0.3,0.1,0.5,0.1,0.8c0.1,0.9,0.2,2,0.3,3.1c0.1,1.1,0.1,2.2,0,3.2c0,0.2,0,0.4,0,0.6c0,0.2,0,0.4-0.1,0.6l-2.3,0l0-0.4v-0.2
		c-0.4,0.2-0.8,0.3-1.3,0.4c-0.5,0.1-0.9,0.1-1.4,0.1c-0.1,0-0.2,0-0.4,0c-0.1,0-0.3,0-0.4-0.1c-0.3-0.1-0.6-0.2-1-0.3
		c-0.4-0.1-0.8-0.4-1.2-0.7c-0.4-0.3-0.6-0.8-0.9-1.3s-0.3-1.3-0.3-2.2c0-0.7,0.2-1.2,0.4-1.7c0.2-0.5,0.4-0.8,0.7-1.2
		c0.3-0.3,0.6-0.5,0.8-0.7c0.3-0.2,0.6-0.3,0.9-0.3c0.3,0,0.6,0,0.8-0.1c0.3,0,0.5,0,0.7,0c0.9,0,1.7,0.3,2.4,0.6c0-0.1,0-0.3,0-0.4
		c0-0.2,0-0.3,0-0.4l1.7-0.3L95.8,85.9L95.8,85.9z M94,89.3c-0.3-0.2-0.7-0.3-1.2-0.6c-0.5-0.2-1-0.3-1.4-0.3c-0.3,0-0.6,0-0.8,0.1
		c-0.3,0.1-0.6,0.3-0.8,0.6c-0.2,0.3-0.3,0.6-0.4,1.1c0,0.7,0,1.2,0.3,1.7c0.2,0.5,0.6,0.7,1,0.8h0l0.3,0.1c0.1,0,0.2,0,0.4,0
		c0.5,0,0.9,0,1.4-0.1s0.8-0.2,1.2-0.4C94,92.3,94,89.3,94,89.3z M98,87l2.1,0.2c0-1.2,0-2.2,0.1-3c0.1-0.8,0.1-1.2,0.1-1.3l2.5,0.2
		c-0.1,0.6-0.1,1.2-0.2,1.9s-0.1,1.5-0.2,2.3c0.4,0,0.9,0,1.3,0h1.7l0.4,1.4c-0.6,0.2-1.2,0.3-1.8,0.4s-1.1,0.1-1.7,0.2v1.2
		c0,0.3,0,0.6,0,0.9c0,0.3,0,0.5,0.1,0.6c0.1,0.4,0.3,0.7,0.6,0.8c0.2,0.2,0.5,0.2,0.7,0.2c0.4,0,0.7-0.1,1.1-0.3
		c0.2-0.1,0.4-0.2,0.5-0.3l0.9,1.6c-0.2,0.2-0.5,0.4-0.8,0.6c-0.3,0.2-0.6,0.3-0.8,0.5c-0.3,0.1-0.6,0.2-0.8,0.3
		c-0.3,0.1-0.4,0.1-0.6,0.1c-0.3,0-0.7,0-1.1-0.1s-0.7-0.3-1-0.6c-0.3-0.3-0.6-0.7-0.8-1.3c-0.2-0.6-0.3-1.3-0.4-2.3
		c0-0.3,0-0.5,0-0.7v-0.6l0-0.5c-0.3,0-0.6,0-0.9-0.1s-0.7-0.1-1.2-0.1C97.9,89.1,98,87,98,87z M116.7,89.4L116.7,89.4
		c-0.7,0.3-1.4,0.6-2,0.8c-0.6,0.2-1.2,0.3-1.7,0.4c-0.6,0.1-1.2,0.1-1.7,0.1s-1,0-1.6-0.1c0.2,0.7,0.6,1.2,1.2,1.3
		c0.6,0.2,1.2,0.2,1.9,0.1c0.4-0.1,0.8-0.2,1.2-0.3c0.4-0.1,0.8-0.3,1.2-0.4c0.1,0.3,0.3,0.6,0.4,0.9c0.1,0.3,0.2,0.6,0.4,0.9
		c-1.1,0.5-2,0.8-2.9,0.9c-0.8,0.1-1.5,0.1-2.2,0c-0.7-0.1-1.3-0.5-1.9-1c-0.2-0.2-0.5-0.5-0.8-0.9c-0.3-0.5-0.6-1.1-0.7-1.9
		c-0.1-0.6-0.1-1.4,0.1-2.4c0.1-0.3,0.3-0.7,0.5-1s0.6-0.6,0.9-0.9c0.4-0.3,0.8-0.5,1.2-0.7c0.4-0.2,0.8-0.3,1.2-0.4
		c0.8,0,1.6,0.1,2.3,0.3c0.6,0.2,1.2,0.5,1.6,0.8c0.4,0.3,0.8,0.7,1,1.2c0.3,0.4,0.4,0.8,0.5,1.2c0.1,0.5,0.1,0.8,0,1L116.7,89.4
		L116.7,89.4z M109.7,89.1L109.7,89.1L109.7,89.1L109.7,89.1L109.7,89.1L109.7,89.1L109.7,89.1z M109.7,89.1c0.2,0,0.5,0,0.9,0
		c0.4,0,0.9-0.1,1.4-0.2c0.4-0.1,0.8-0.1,1.2-0.2c0.4-0.1,0.7-0.2,1-0.3c-0.1-0.4-0.3-0.7-0.5-0.9s-0.4-0.3-0.6-0.4
		c-0.2-0.1-0.5-0.1-0.7-0.1c-0.3,0-0.5,0.1-0.7,0.1c-0.4,0.1-0.7,0.2-0.9,0.3c-0.2,0.2-0.4,0.4-0.6,0.6c-0.2,0.2-0.3,0.4-0.3,0.6
		C109.8,88.8,109.8,88.9,109.7,89.1l0-0.1C109.7,89,109.7,89,109.7,89.1L109.7,89.1C109.7,89.1,109.7,89.1,109.7,89.1L109.7,89.1
		L109.7,89.1L109.7,89.1z M124.3,84.4c-0.6-0.1-1.2,0-1.9,0.2c-0.4,0.1-0.8,0.3-1.1,0.6c-0.3,0.3-0.6,0.5-0.9,0.8l2.4,5l-2.3,0.9
		c-0.5-0.7-0.9-1.5-1.3-2.5s-0.8-1.8-1.1-2.6c-0.2-0.4-0.3-0.8-0.5-1.3c-0.1-0.4-0.3-0.7-0.3-1l-0.3-1l1.8-0.8l0.6,1.4
		c0.2-0.3,0.5-0.6,0.8-0.9c0.4-0.3,0.9-0.6,1.6-0.8c0.3-0.1,0.6-0.2,1-0.3c0.4-0.1,0.8-0.2,1.3-0.3l0.2,2.5L124.3,84.4L124.3,84.4z"
		/>
	<path class="st1" d="M128.8,91.9c-10.9,2.4-7.7,13.6-15.2,13.4c-7.5-0.2-6-5.2-13.7-5.2c-11.1,0-10.9,9-19.7,7.3
		c-7-1.3-8.3-6.8-13.1-7.3v15c0,1.5,0.9,3,2.5,4.3c6.6,2.8,16.2,4.5,27,4.5c14.8,0,27.5-3.3,32.9-8c0-0.3,0.1-0.6,0.1-0.8V91.7
		L128.8,91.9L128.8,91.9z"/>
	<path class="st4" d="M126.5,99.3c-9.5,2-6.7,11.4-13.3,11.3s-5.2-4.3-11.9-4.3c-9.7,0-9.4,6.1-17.1,6.1s-7.5-5.5-14.6-7.5
		c-0.8-0.2-1.6-0.3-2.3-0.4v10.6c0,6.1,14,11.1,31.2,11.1s31.2-5,31.2-11.1V98.7C128.7,98.9,127.7,99.1,126.5,99.3L126.5,99.3z"/>
</g>
</svg>
