<?xml version="1.0" encoding="utf-8"?>
<!-- Generator: Adobe Illustrator 23.0.2, SVG Export Plug-In . SVG Version: 6.00 Build 0)  -->
<svg version="1.1" id="图层_1" xmlns="http://www.w3.org/2000/svg" xmlns:xlink="http://www.w3.org/1999/xlink" x="0px" y="0px"
	 viewBox="0 0 196 196" style="enable-background:new 0 0 196 196;" xml:space="preserve">
<style type="text/css">
	.st0{fill:#F2CB90;}
	.st1{fill:#C0904F;}
	.st2{fill:#5B0F1C;}
	.st3{fill:#953044;}
	.st4{fill:#6CA4BC;}
	.st5{fill:#AFD9F2;}
	.st6{fill:#FFFFFF;}
</style>
<g>
	<path class="st0" d="M188.9,53.65c-40.65-20.87-63.41-32.07-68.27-33.61c-7.33-2.31-13.63-3.38-22.84-3.38s-12.2,0.52-22.15,3.38
		c-9.98,2.86-22.29,10.95-25.56,12.95L3.87,61.63c-2.13,1.28-2.51,4.17-0.96,6.19l17.42,33.14c2.39,2.95,5.43,1.83,6.4,1.11
		l3.85-2.92c2.8-2.13,6.79-1.58,8.9,1.23c0.96,1.25,1.4,2.83,1.25,4.44c-0.29,3.15-0.58,6.33-0.87,9.48
		c-0.87,9.6-2.21,26.87-4,51.91c-0.32,3.59,0.87,7.17,3.33,9.83c2.45,2.65,5.92,4.17,9.54,4.17h98.18c3.59,0,7.06-1.52,9.51-4.14
		c2.45-2.62,3.68-6.19,3.38-9.75l-4.96-67.81c-0.27-3.5,2.37-6.54,5.86-6.79c0.96-0.06,1.96,0.09,2.86,0.44l6.24,2.54
		c1.96,0.79,6.27,2.57,8.84,0c2.54-2.57,11.5-24.69,14.36-29.49C195.87,60.37,193.31,55.64,188.9,53.65L188.9,53.65z"/>
	<path class="st1" d="M193.01,65.1c-2.86,4.82-11.82,26.93-14.36,29.49c-2.57,2.57-6.89,0.79-8.84,0l-6.24-2.54
		c-0.9-0.35-1.9-0.49-2.86-0.44c-3.5,0.27-6.13,3.3-5.86,6.79l4.96,67.81c0.3,3.56-0.93,7.12-3.38,9.75
		c-2.45,2.62-5.92,4.14-9.51,4.14h-14.16c2.99-0.54,5.78-2.09,7.87-4.44c2.63-2.95,3.96-6.94,3.64-10.94l-5.33-76.11
		c-0.29-3.93,2.54-7.34,6.3-7.64c1.04-0.06,2.1,0.1,3.07,0.49l6.71,2.85c2.1,0.88,6.74,2.88,9.5,0
		c2.73-2.88,12.35-27.71,15.42-33.11c0.35-0.61,0.61-1.22,0.82-1.82c2.63,1.34,5.34,2.74,8.14,4.17
		C193.31,55.56,195.87,60.29,193.01,65.1z"/>
	<path class="st2" d="M95.64,76.94h4.9c2.24,0,4.09-1.83,4.09-4.09c0-2.24-1.83-4.09-4.09-4.09h-4.9c-2.24,0-4.09,1.83-4.09,4.09
		C91.56,75.1,93.39,76.94,95.64,76.94z M100.55,91.59h-4.9c-2.24,0-4.09,1.83-4.09,4.09c0,2.24,1.83,4.09,4.09,4.09h4.9
		c2.24,0,4.09-1.83,4.09-4.09C104.63,93.43,102.79,91.59,100.55,91.59z"/>
	<path class="st3" d="M96.73,68.77h-1.09c-2.24,0-4.09,1.83-4.09,4.09c0,2.24,1.83,4.09,4.09,4.09h1.09c2.24,0,4.09-1.83,4.09-4.09
		C100.81,70.62,98.97,68.77,96.73,68.77z"/>
	<path class="st3" d="M96.73,91.68h-1.09c-2.24,0-4.09,1.83-4.09,4.09c0,2.24,1.83,4.09,4.09,4.09h1.09c2.24,0,4.09-1.83,4.09-4.09
		S98.97,91.68,96.73,91.68z"/>
	<path class="st4" d="M120.33,65.45c-4.14,0-6.75,1.35-14.81-11.09c-2.6-4.02-5.41-10.17-7.42-12.3c4.26-1.9,8.45,0.84,14.85-2.87
		c6.74-3.94,13.74-8.99,17.09-11.23c4.9,2.07,8.55,4.9,10.95,6.36c6.07,4.41-4.11,16.08-10.95,24.07
		C129.02,59.64,124.47,65.45,120.33,65.45z"/>
	<path class="st4" d="M62.97,58.81c-6.83-7.99-17.01-19.67-10.95-24.07c2.39-1.46,6.04-4.29,10.95-6.36
		c3.35,2.24,10.36,7.3,17.09,11.23c6.39,3.71,10.59,0.97,14.85,2.87c-2.01,2.13-4.83,8.28-7.42,12.3
		c-8.06,12.44-10.67,11.09-14.81,11.09C68.53,65.87,63.98,60.07,62.97,58.81z"/>
	<path class="st5" d="M63.69,24.95c3.33,2.31,8.67,5.69,15.15,9.63c6.45,3.88,11.75,5.86,16.02,7.79c-2.04,2.21-3.97,5.63-6.83,8.34
		c-6.95,6.71-11.85,11.73-16.95,11.73c-4.44,0-7.76-4.55-9.51-7.15c-5.83-8.64-13.39-20.71-9.75-24.04
		C53.33,29.8,58.44,27.52,63.69,24.95z M121.18,60.78c-4.14,0-4.9-0.65-15.81-10.68c-2.8-2.59-5.28-5.95-7.3-8.09
		c4.26-1.9,9.34-3.79,15.73-7.5c6.74-3.94,13.74-8.99,17.09-11.23c4.9,2.07,8.55,4.9,10.95,6.36c6.07,4.41-4.11,16.08-10.95,24.07
		C129.87,54.98,125.32,60.78,121.18,60.78z"/>
	<path class="st6" d="M96.46,16.66c11.55,0,21.04,2.01,27.69,5.83c-2.45,2.07-22.7,16.66-27.69,16.66S71.22,25.32,68.77,23.25
		C78.37,16.72,96.46,16.66,96.46,16.66z"/>
</g>
</svg>
