<?xml version="1.0" encoding="utf-8"?>
<!-- Generator: Adobe Illustrator 23.0.2, SVG Export Plug-In . SVG Version: 6.00 Build 0)  -->
<svg version="1.1" id="图层_1" xmlns="http://www.w3.org/2000/svg" xmlns:xlink="http://www.w3.org/1999/xlink" x="0px" y="0px"
	 viewBox="0 0 196 196" style="enable-background:new 0 0 196 196;" xml:space="preserve">
<style type="text/css">
	.st0{fill:#734721;}
	.st1{fill:#9A693B;}
	.st2{fill:#43260F;}
	.st3{fill:#734C21;}
</style>
<g>
	<path class="st0" d="M192.5,48.5c0,5-3.4,9.2-7.6,9.2h-32.4V39.4h32.4C189.1,39.4,192.5,43.5,192.5,48.5z"/>
	<path class="st1" d="M152.5,39.4v18.3H11.1c-4.2,0-7.6-4.1-7.6-9.2c0-5,3.4-9.2,7.6-9.2L152.5,39.4L152.5,39.4z"/>
	<path class="st2" d="M177.3,57.7c0,52.8-35.5,95.6-79.3,95.6c-4.1,0-8.1-0.4-12.1-1.1c-38.1-7-67.3-46.6-67.3-94.5H177.3z"/>
	<path class="st3" d="M153.2,57.7c0,47.8-29.2,87.5-67.3,94.5c-38.1-7-67.3-46.6-67.3-94.5H153.2z"/>
	<path class="st0" d="M132.7,156.4c0,3.5-2.4,6.4-5.3,6.4H68.6c-2.9,0-5.3-2.9-5.3-6.4c0-3.5,2.4-6.4,5.3-6.4h58.8
		C130.3,150.1,132.7,153,132.7,156.4z"/>
	<path class="st1" d="M152.5,39.4v18.3H11.1c-4.2,0-7.6-4.1-7.6-9.2c0-5,3.4-9.2,7.6-9.2L152.5,39.4L152.5,39.4z"/>
	<path class="st1" d="M98,150.1v12.7H68.6c-2.9,0-5.3-2.9-5.3-6.4c0-3.5,2.4-6.4,5.3-6.4H98z"/>
</g>
</svg>
