<?xml version="1.0" encoding="UTF-8"?>
<svg width="189px" height="201px" viewBox="0 0 189 201" version="1.1" xmlns="http://www.w3.org/2000/svg" xmlns:xlink="http://www.w3.org/1999/xlink">
    <!-- Generator: Sketch 52.5 (67469) - http://www.bohemiancoding.com/sketch -->
    <title>分组 10 copy</title>
    <desc>Created with Sketch.</desc>
    <g id="Page-1" stroke="none" stroke-width="1" fill="none" fill-rule="evenodd">
        <g id="信任博弈5-copy" transform="translate(-475.000000, -85.000000)" fill-rule="nonzero">
            <g id="分组-10-copy" transform="translate(474.000000, 85.000000)">
                <g id="分组-5" transform="translate(34.000000, 0.000000)">
                    <path d="M59.0830679,27.419174 L59.0830653,47.5457153 C59.0830653,51.6887044 57.6538996,55.7048699 55.0367239,58.9165284 C49.7736298,65.375117 44.3489416,68.1695599 38.7626592,67.299857 C28.2186598,65.6583096 25.1470432,62.2383147 22.2060802,59.9813441 C20.2454381,58.476697 18.0105073,56.2088672 15.5012875,53.1778545 C10.178827,55.4640815 6.7818326,52.020512 5.31030419,42.8471458 C3.83877578,33.6737797 13.6738117,22.4045211 34.815412,9.03937008 L59.0830679,19.5065893 L59.0830679,27.419174 Z" id="路径-77" stroke="#020202" stroke-width="2" fill="#FFFFFF"></path>
                    <path d="M6.59786141,15.5621022 C8.85358505,5.1873674 16.1898964,1.0752099e-15 28.6067955,0 C42.7115801,2.39186594 55.5452411,4.63920432 55.5452411,3.51553513 C55.5452411,2.39186594 64.176119,6.27848534 57.2331266,10.9202938 C63.5106024,12.0947429 74.653773,16.2886461 59.5552717,29.684137 C56.5233291,27.1008697 58.229448,20.2169311 39.4842804,22.348387 C36.514852,22.8613948 32.2630127,22.8613948 26.7287623,22.348387 C25.4767401,27.0939255 25.4767401,30.2739657 26.7287623,31.8885078 C23.3425721,35.1852985 15.5308917,40.9885437 17.3815749,45.342595 C13.6541609,43.9858548 6.59786141,41.4685792 6.59786141,47.9252722 C3.64406163,45.0626501 6.79626247e-16,39.8143794 0,31.8885078 C0,26.6045933 2.19928714,21.1624581 6.59786141,15.5621022 Z" id="路径-29" fill="#020202"></path>
                    <path d="M31,30.901781 C33.8756569,29.4209161 36.4517663,29.4209161 38.728328,30.901781" id="路径-67" stroke="#020202"></path>
                    <path d="M46.5,30.9401915 C49.399968,29.3568987 51.9656583,29.3568987 54.1970708,30.9401915" id="路径-73" stroke="#020202"></path>
                    <path d="" id="路径-74" stroke="#979797"></path>
                    <path d="M41.3333333,42.621018 C44.7660048,42.5276986 46.4823405,43.388591 46.4823405,45.2036952 C46.4823405,47.0187994 45.6241726,48.0453126 43.9078369,48.283235" id="路径-75" stroke="#020202" stroke-width="2"></path>
                    <path d="M38.75,51.6535433 C42.0480764,53.6325525 44.8096635,54.6220571 47.0347611,54.6220571 C45.3344031,59.6297773 43.6638998,58.1327406 41.2588415,57.6171051 C39.6554694,57.273348 38.8191888,55.2854941 38.75,51.6535433 Z" id="路径-76" stroke="#020202" fill="#FFFFFF"></path>
                    <path d="M52.9583333,68.9388452 C58.6482136,74.4118701 63.2098502,77.8292806 66.6432432,79.1910766 C71.7933327,81.2337708 82.6386525,88.6743293 87.5704727,100.424877 C92.502293,112.175424 93.8587565,121.004035 93.1805248,123.112726 C96.0946854,117.613738 100.239672,111.794348 104.403823,111.794348 C104.860946,113.603217 109.550718,107.217489 118.473139,92.6371653 C119.779915,85.7516371 119.779915,80.0472554 118.473139,75.5240202 C118.074221,73.7343122 118.074221,70.9752381 118.473139,67.246798 C119.975825,61.7286498 122.114509,61.7286498 124.88919,67.246798 C124.377233,70.0994017 124.851037,72.8584757 126.310602,75.5240202 C137.068614,62.9151652 144.437597,57.1536111 148.41755,58.2393578 C150.424563,58.9472221 150.309191,60.2017998 149.803445,61.9645416 C153.696472,61.9645416 154.780719,63.3741351 153.696472,64.8591632 C152.890828,65.7057618 152.213943,66.4373345 151.665817,67.0538811 C154.863696,67.5848573 155.540581,68.9073518 153.696472,71.0213646 C152.777967,71.6437175 151.855912,72.2866499 150.930309,72.9501618 C152.605481,74.1703852 152.605481,75.5155936 150.930309,76.9857868 C149.255137,78.45598 143.714647,83.6731062 134.308839,92.6371653 C128.976681,101.696502 126.310602,107.607837 126.310602,110.371168 C125.093973,112.999669 122.481485,118.378018 118.473139,126.506217 C122.843493,128.153287 123.692081,131.265052 121.018904,135.84151 C118.345727,140.417968 115.744596,145.408145 113.215512,150.812041 L102.859967,159.210612 C95.5860825,165.21391 89.0374639,164.658142 83.2141113,157.543307" id="路径-83" stroke="#020202" stroke-width="2"></path>
                    <path d="M139.5,70.6787416 C144.709359,64.8824152 148.32695,61.984252 150.352773,61.984252" id="路径-84" stroke="#020202"></path>
                    <path d="M140.791667,74.8552148 C145.278431,70.8209205 148.811198,68.2523844 151.38997,67.1496063" id="路径-85" stroke="#020202"></path>
                    <path d="M143.375,78.6846749 C145.970807,75.4217575 148.789852,73.2985194 151.832135,72.3149606" id="路径-86" stroke="#020202"></path>
                    <path d="M129.815999,78.7716535 C130.138967,83.243476 129.491967,85.8520391 127.875,86.5973428" id="路径-87" stroke="#020202"></path>
                    <path d="M104.625,111.055118 C107.880985,122.813737 112.966922,127.979091 119.882813,126.551181" id="路径-88" stroke="#020202" stroke-width="2"></path>
                    <path d="M95.1809411,121.385827 C91.799657,136.67807 98.0608538,145.971781 113.964531,149.266957" id="路径-89" stroke="#020202" stroke-width="2"></path>
                    <g id="分组-6" transform="translate(42.654988, 40.225380) rotate(16.000000) translate(-42.654988, -40.225380) translate(25.154988, 30.225380)">
                        <ellipse id="椭圆形" fill="#0E0E0E" cx="12.9166667" cy="10.976378" rx="1.29166667" ry="1.93700787"></ellipse>
                        <ellipse id="椭圆形-copy-9" fill="#0E0E0E" cx="29.0164369" cy="7.91718401" rx="1.29166667" ry="1.93700787"></ellipse>
                        <path d="M9.09494702e-13,9.39070713 C3.14465176,16.7533973 6.65665373,20.0419928 10.5360059,19.2564936 C13.9566306,18.6255738 19.6536551,17.7300207 15.0948305,5.16959384 C12.4509131,5.08782351 7.41930291,6.18892262 9.09494702e-13,8.47289118" id="路径-11" stroke="#0E0E0E" stroke-width="2"></path>
                        <path d="M28.4636019,15.1248334 C31.3516287,14.5045191 36.1622517,13.6269167 32.258311,1.02753737 C30.0237225,0.936515226 25.7762532,2.02233465 19.515903,4.28499563 C22.205993,12.2851553 25.1885593,15.8984346 28.4636019,15.1248334 Z" id="路径-11-copy" stroke="#0E0E0E" stroke-width="2" transform="translate(26.619996, 8.124703) rotate(6.000000) translate(-26.619996, -8.124703) "></path>
                        <path d="M7.75,10.3307087 C10.5438943,7.1346282 12.4752143,7.25837275 13.5439601,10.7019423" id="路径-13" stroke="#0E0E0E"></path>
                        <path d="M23.3907783,7.88046285 C26.627588,4.4368933 28.7803658,4.4368933 29.8491116,7.88046285" id="路径-13-copy" stroke="#0E0E0E"></path>
                    </g>
                    <path d="M20.6666667,34.7407225 L31.6481241,33.7002223" id="路径-92" stroke="#020202"></path>
                </g>
                <polyline id="路径-96" stroke="#020202" points="40 69 44.076171 92.5033512 54.6724158 94.8835427 48.1315645 103.39263 60 169"></polyline>
                <polyline id="路径-96-copy" stroke="#020202" transform="translate(108.506328, 123.684488) scale(-1, 1) rotate(19.000000) translate(-108.506328, -123.684488) " points="102.5143 78.6715668 101.072259 93.0650193 108.249659 95.4458008 103.80917 103.987054 115.940398 168.697409"></polyline>
                <path d="M51,63 L64.4002293,104.485363 C66.5913324,111.268733 67.9500963,118.293206 68.44665,125.404357 L71.9150314,175.075085 L74,200" id="路径-98" stroke="#020202" stroke-width="2"></path>
                <path d="M86.873384,69.3637756 C98.1166853,123.382133 105.131127,157.405655 107.916711,171.434343 C108.768022,175.721701 110.129119,183.910253 112,196 L86.873384,69.3637756 Z" id="路径-99" stroke="#020202" stroke-width="2"></path>
                <path d="M50,65 C66.4277499,77.3002801 78.7610832,79.2848631 87,70.953749" id="路径-103" stroke="#020202" stroke-width="2"></path>
                <polyline id="路径-104" stroke="#020202" stroke-width="2" points="64 85 75.4756643 76 87.5743489 82.6963091"></polyline>
                <polyline id="路径-105" stroke="#020202" stroke-width="2" points="69 81.7289312 71.1317171 89 82 88.0971811 82 79.8382413"></polyline>
                <polygon id="路径-106" stroke="#020202" stroke-width="2" points="74 89 80.3566294 162.102827 90.8806852 171 98 160.813807 80.3566294 89"></polygon>
                <path d="M51.5706743,63.9839798 C29.4327376,71.5260131 16.4604809,80.8745875 12.6539042,92.029703 C8.84732746,103.184818 5.54413935,123.174917 2.74433985,152 C3.0469243,156.273416 3.0469243,159.621756 2.74433985,162.045021" id="路径-79" stroke="#1E1E1E" stroke-width="2"></path>
                <path d="M26,138 L16,150" id="路径-78" stroke="#020202" stroke-width="2"></path>
                <path d="M30,93 C32.6666667,100.284763 32.6666667,107.95143 30,116" id="路径-80" stroke="#020202"></path>
                <path d="M51,55 C52.3333333,59.8475132 52.3333333,62.8475132 51,64" id="路径-90" stroke="#020202"></path>
                <path d="M86.2222252,63.2266895 C81.911186,66.6646925 81.9130398,68.8157618 86.2277867,69.6798971" id="路径-91" stroke="#020202" transform="translate(84.609061, 66.453293) rotate(-16.000000) translate(-84.609061, -66.453293) "></path>
                <g id="分组-9" transform="translate(55.043022, 132.320998) rotate(23.000000) translate(-55.043022, -132.320998) translate(17.543022, 79.820998)" stroke="#020202">
                    <path d="M13.11176,65.0701603 C16.0291622,59.5654476 20.1787591,53.7399997 24.3475425,53.7399997 C24.8051742,55.5507511 29.5001629,49.1583756 38.4325087,34.5628732 C39.7407385,27.6701768 39.7407385,21.9598566 38.4325087,17.4319126 C38.0331468,15.6403414 38.0331468,12.878395 38.4325087,9.14607335 C39.9368664,3.62218054 42.077929,3.62218054 44.8556967,9.14607335 C44.3431701,12.0016467 44.8175011,14.7635931 46.2786897,17.4319126 C57.0486684,4.80993115 64.425848,-0.95762103 68.4102285,0.129256029 C70.4194733,0.837857249 70.3039728,2.09374104 69.7976644,3.85831791 C73.6950221,3.85831791 74.7804754,5.26937889 73.6950221,6.75595297 C72.8884817,7.60343292 72.2108436,8.33576714 71.6621078,8.95295561 C74.8635442,9.48448462 75.5411823,10.8083559 73.6950221,12.9245695 C72.775495,13.5475703 71.8524149,14.191172 70.9257817,14.8553746 C72.6028172,16.0768684 72.6028172,17.4234772 70.9257817,18.8952009 C69.2487462,20.3669247 63.7020935,25.5894821 54.2858235,34.5628732 C48.9477343,43.6316413 46.2786897,49.5491297 46.2786897,52.3153383 C45.0607072,54.9465753 42.4453135,60.3305239 38.4325087,68.4671839 C42.8077237,70.1159693 43.6572559,73.2309731 40.9811052,77.8121954 C38.3049545,82.3934178 35.7009305,87.38879 33.1690333,92.7983121 L22.8019695,101.205626 C13.5953556,106.581722 6.07713356,105.708649 0.247303439,98.5864074" id="路径-83-copy" stroke-width="2" fill="#FFFFFF"></path>
                    <path d="M63.362069,20.5958576 C65.9607634,17.3295434 68.782944,15.2040949 71.828611,14.2195122" id="路径-86-copy"></path>
                    <path d="M62.0689655,15.4251259 C64.6676599,12.1588117 67.4898406,10.0333632 70.5355076,9.04878049" id="路径-86-copy-2"></path>
                    <path d="M60.7758621,11.5470771 C63.3745565,8.28076292 66.1967371,6.15531445 69.2424041,5.17073171" id="路径-86-copy-3"></path>
                    <path d="M24.5689655,53 C27.8285722,64.7708599 32.920167,69.9415916 39.84375,68.5121951" id="路径-88-copy" stroke-width="2"></path>
                    <path d="M13.9354667,63 C10.3785459,78.3081635 16.964973,87.6115489 33.6947479,90.9101562" id="路径-89-copy" stroke-width="2"></path>
                </g>
            </g>
        </g>
    </g>
</svg>