<?xml version="1.0" encoding="UTF-8"?>
<svg width="84px" height="378px" viewBox="0 0 84 378" version="1.1" xmlns="http://www.w3.org/2000/svg" xmlns:xlink="http://www.w3.org/1999/xlink">
    <!-- Generator: Sketch 52.5 (67469) - http://www.bohemiancoding.com/sketch -->
    <title>人2</title>
    <desc>Created with Sketch.</desc>
    <g id="Page-1" stroke="none" stroke-width="1" fill="none" fill-rule="evenodd">
        <g id="双向拍卖4" transform="translate(-991.000000, -429.000000)" fill-rule="nonzero">
            <g id="人2" transform="translate(1033.927406, 606.000000) scale(-1, 1) translate(-1033.927406, -606.000000) translate(972.927406, 407.000000)">
                <g id="分组-8-copy-2">
                    <g id="分组-2-copy-6" transform="translate(60.892362, 64.870839) rotate(28.000000) translate(-60.892362, -64.870839) translate(19.892362, 13.370839)">
                        <path d="M35.283609,64.1401493 L40.3147777,64.1515867 C36.709978,77.6873999 27.2880034,80.5316875 12.0488539,72.6844497 C7.6973847,67.6286484 -1.76648461,57.9416281 8.00666646,41.2011291 C14.4620986,36.3397946 18.1587692,35.3694524 21.9593331,28.2152153 C24.4930423,23.4457239 28.8956148,16.9415307 35.1670506,8.70263576 C45.0953432,2.15645572 53.2083777,1.35667175 59.5061542,6.30328385 C62.6261413,10.3129154 72.4864691,23.6969316 62.7072365,37.0519359 C62.0078732,35.4333122 61.3868395,33.4098809 60.8441355,30.981642 L56.8319754,35.212297 L59.5707889,37.0448058 L45.8296692,38.7938896 L45.8457657,46.4497134 L45.8501891,48.5535759 L47.822912,48.5580605 L45.8558686,51.2548768 L47.8308648,52.3406148 L47.8346371,54.1347623 L47.8501518,61.5138586 L37.620999,52.3174046 C30.3695699,51.3428669 27.5819374,53.0683595 29.2581014,57.4938826 C30.3536521,59.9514785 32.3621546,62.1669008 35.283609,64.1401493 Z" id="路径-2-copy" fill="#141414" transform="translate(35.331504, 40.056922) rotate(-5.000000) translate(-35.331504, -40.056922) "></path>
                        <path d="M51.0948134,40.1008371 C52.1578356,36.2784154 54.6237737,35.0090914 58.4926277,36.2928653" id="路径-3-copy" stroke="#141414" stroke-width="2" transform="translate(54.793721, 37.954781) rotate(-5.000000) translate(-54.793721, -37.954781) "></path>
                        <path d="M57.0251859,47.6521637 C57.2173291,44.0345901 57.2128472,41.8957829 57.0117404,41.2357421 C56.2274168,38.6615607 60.9783098,36.0037046 62.5222924,41.8777592 C64.066275,47.7518138 58.100275,43.731648 57.0117404,41.2357421 C56.2860506,39.5718048 56.2905324,41.710612 57.0251859,47.6521637 Z" id="路径-4-copy" stroke="#232323" fill="#232323" transform="translate(59.623354, 42.998706) rotate(-5.000000) translate(-59.623354, -42.998706) "></path>
                        <path d="M66.4432186,37.2471848 C72.7268995,40.3832204 76.3986999,42.9853096 77.4586197,45.0534525 C79.0484993,48.1556668 80.5262977,50.0564066 77.4691786,50.0494927 C74.4120595,50.0425787 71.9851642,49.4598964 73.943631,54.7888107 C75.2492755,58.3414203 76.4362386,62.335728 77.5045204,66.771734 C77.7840663,69.3650966 75.3226846,72.1248277 70.1203754,75.0509274 C64.9180661,77.9770271 65.3299816,84.2544449 71.3561219,93.883181" id="路径-5-copy" stroke="#141414" stroke-width="2" transform="translate(72.846194, 65.565183) rotate(-5.000000) translate(-72.846194, -65.565183) "></path>
                        <path d="M66.4307197,57.9041004 C69.8497506,59.0860892 72.6653214,59.4838156 74.8774319,59.0972795" id="路径-6-copy" stroke="#141414" transform="translate(70.654076, 58.572131) rotate(-5.000000) translate(-70.654076, -58.572131) "></path>
                        <path d="M24.622395,70.1101172 C40.4089194,88.6615409 45.7928419,99.3449873 40.7741623,102.160457" id="路径-8" stroke="#141414" stroke-width="2"></path>
                    </g>
                    <g id="分组-4-copy" transform="translate(22.471183, 101.961491)">
                        <path d="M27.2285347,125.315985 C26.7442789,213.102584 23.1610565,267.264797 16.4788676,287.802626 C26.1396355,288.055858 36.6647594,288.055858 48.0542393,287.802626 C45.1202985,279.877844 39.8577365,275.915453 32.2665535,275.915453 C24.6753704,275.915453 26.801091,261.505498 38.6437154,232.685588 C53.3512944,186.616399 56.4881357,149.001872 48.0542393,119.842006" id="路径-37-copy" stroke="#393939" stroke-width="4" fill="#FFFFFF"></path>
                        <path d="M31.8774733,132.806111 C31.3525053,220.592709 27.4680358,274.754923 20.2240648,295.292751 C30.6970286,295.545983 42.1070162,295.545983 54.4540276,295.292751 C51.2734257,287.36797 45.5684319,283.405579 37.3390462,283.405579 C29.1096604,283.405579 31.4140937,268.995624 44.2523461,240.175713 C60.1964143,194.106525 63.5969748,156.491997 54.4540276,127.332131" id="路径-37" stroke="#393939" stroke-width="4" fill="#FFFFFF"></path>
                        <polygon id="路径-38" stroke="#232323" stroke-width="4" fill="#FFFFFF" points="16.4788676 119.842006 16.4788676 254.362441 55.9111804 254.362441 71.7005471 119.842006"></polygon>
                        <path d="M55.2049261,127.383894 C76.0132864,127.383894 83.3187578,118.291974 77.1213404,100.108133 L74.7632325,91.6935195 C73.3642377,86.7013818 72.9490568,81.4848857 73.5407928,76.3343057 C79.1982713,27.0905595 69.8473998,1.98462993 45.4881784,1.01651702 C21.2374993,0.0527179143 6.17617794,37.8694329 0.304214372,114.466662 L0.304213836,114.466662 C-0.20235937,121.074691 4.74384761,126.842215 11.3518763,127.348788 C11.6570607,127.372184 11.9630284,127.383894 12.2691083,127.383894 C25.3446625,127.383894 39.6566017,127.383894 55.2049261,127.383894 Z" id="路径-20" stroke="#000000" stroke-width="4" fill="#FFFFFF" transform="translate(39.768614, 64.191223) scale(-1, 1) translate(-39.768614, -64.191223) "></path>
                        <path d="" id="路径-25" stroke="#979797"></path>
                    </g>
                </g>
                <g id="分组-11-copy-2" transform="translate(21.000000, 156.000000)" fill="#FFFFFF" stroke="#171717" stroke-width="3">
                    <path d="M-13.4888445,70.6503026 C0.561809252,74.4955021 20.4299323,69.873686 46.1155246,56.7848543 C51.3365808,54.5686535 56.0722274,51.5108603 60.3224647,47.6114745 C64.572702,43.7120887 72.107072,40.2630262 82.9255747,37.264287 L94.1304054,34.0042378 C95.962474,34.9786238 95.6980363,36.7947839 93.3370921,39.452718 C89.7956758,43.4396191 71.3497221,49.1137934 74.9993807,53.9718203 C78.5272925,53.4699837 79.2892658,53.2070181 84.1062877,51.5939431 C86.7856348,53.1311559 85.3563256,55.0958656 83.0824716,57.2792968 C80.8086176,59.462728 79.8623641,60.1081403 75.5013638,62.4731502 C72.5940302,64.0498235 68.5590838,64.8574584 63.3965244,64.896055 L48.36123,73.9248466 C28.8364977,82.9959079 14.6722087,86.9056212 5.86836288,85.6539862" id="路径-94" transform="translate(40.921150, 59.942933) rotate(106.000000) translate(-40.921150, -59.942933) "></path>
                </g>
            </g>
        </g>
    </g>
</svg>