<?xml version="1.0" encoding="UTF-8"?>
<svg width="114px" height="255px" viewBox="0 0 114 255" version="1.1" xmlns="http://www.w3.org/2000/svg" xmlns:xlink="http://www.w3.org/1999/xlink">
    <!-- Generator: Sketch 52.5 (67469) - http://www.bohemiancoding.com/sketch -->
    <title>身体1</title>
    <desc>Created with Sketch.</desc>
    <g id="Page-1" stroke="none" stroke-width="1" fill="none" fill-rule="evenodd">
        <g id="匹配机制4" transform="translate(-252.000000, -533.000000)" fill-rule="nonzero">
            <g id="分组-3-copy-2" transform="translate(224.875596, 394.000000)">
                <g id="身体1" transform="translate(29.000000, 139.000000)">
                    <path d="M109.343767,3.41975309 C76.2164094,1.21088445 60.948988,24.0709668 63.5415027,72 C63.9095188,79.730512 65.5160735,97.0966507 68.3611666,124.098416 L68.3611481,124.098418 C68.6754484,127.081331 71.1909191,129.345679 74.1903444,129.345679 L74.1903444,129.345679 C77.0731084,129.345679 79.4100504,127.008737 79.4100504,124.125973 C79.4100504,124.111329 79.4099888,124.096684 79.4098655,124.08204 C78.9341019,67.55412 82.1219353,35.1167049 88.9733965,26.7697949" id="路径-59" stroke="#282828" stroke-width="4" fill="#FFFFFF" transform="translate(86.301513, 66.309731) scale(-1, 1) translate(-86.301513, -66.309731) "></path>
                    <path d="M44.7407407,2.35639762 C15.2781636,-1.05202364 0.546875,22.3977266 0.546875,72.7056483 C0.546875,77.7305543 1.54080351,94.7443782 3.52866053,123.74712 L3.52865169,123.74712 C3.79233608,127.594264 6.9899852,130.580247 10.8461542,130.580247 L10.8461542,130.580247 C14.4329954,130.580247 17.3407047,127.672538 17.3407047,124.085696 C17.3407047,123.979841 17.3381167,123.874002 17.332943,123.768273 C15.0676215,77.4754322 17.4134433,48.8660237 24.3703704,37.9400496" id="路径-59-copy" stroke="#282828" stroke-width="4" fill="#FFFFFF"></path>
                    <path d="M42.5103153,2.67892947 C41.9183763,9.35134671 42.4273273,13.4199271 44.037168,14.8846706 C47.8693019,18.3714089 58.4050114,17.1024538 65.7283951,14.2901176 C65.3916793,11.6574228 65.0528209,7.21092272 64.7118197,0.950617284 C61.0189149,4.40561831 57.3492237,6.40239232 53.702746,6.94093932 C50.0562683,7.47948631 46.325458,6.05881636 42.5103153,2.67892947 Z" id="路径-57" stroke="#282828" fill="#282828" transform="translate(54.000000, 8.975309) scale(-1, 1) translate(-54.000000, -8.975309) "></path>
                    <polyline id="路径" stroke="#282828" stroke-width="4" points="50.2070313 83.1751192 42.6171875 50.7125697 34 34.3622518 45.2407407 5 45.2407407 5"></polyline>
                    <polyline id="路径-58-copy-2" stroke="#282828" stroke-width="4" points="64.2592593 5.36377182 75.5 35.1369319 66.8828125 51.7160634 60 83.9611357"></polyline>
                    <path d="M17.5802469,115.437161 C18.7762892,117.860525 25.040701,118.709388 36.3734825,117.98375 C53.3726546,116.895292 60.3008502,112.854692 67.5545777,112.237302 C72.3903961,111.825708 80.8351665,112.137783 92.8888889,113.173526" id="路径-55" stroke="#282828" stroke-width="3"></path>
                    <path d="M26.2222222,118.840428 C31.1838943,128.075611 32.2978557,149.719742 29.5641066,183.772821 C25.4634829,234.85244 34.6636735,236.753086 34.6636735,236.753086 C34.6636735,236.753086 39.0356386,236.753086 47.7795689,236.753086 L50.8145261,191.171875 C53.460517,167.96877 54.7835125,152.306014 54.7835125,144.183609 C54.7835125,136.061203 53.460517,126.588477 50.8145261,115.765432 L26.2222222,118.840428 Z" id="路径-56" stroke="#282828" stroke-width="4" fill="#FFFFFF"></path>
                    <path d="M63.2592593,113.296296 C63.2592593,121.880701 64.3777076,143.636045 66.6146043,178.562325 C69.9699493,230.951747 71.7347115,231.814815 71.7347115,231.814815 C71.7347115,231.814815 76.1242862,231.814815 84.9034357,231.814815 L87.9506173,178.562325 C87.9506173,165.352208 87.9506173,153.686549 87.9506173,143.565348 C87.9506173,133.444148 86.9348901,123.354464 84.9034357,113.296296 L63.2592593,113.296296 Z" id="路径-56-copy" stroke="#282828" stroke-width="4" fill="#FFFFFF"></path>
                    <path d="M37.2229622,244.113453 C21.4668395,247.913924 14.1311585,250.478228 15.2159191,251.806366 C16.3006796,253.134504 25.7307642,253.134504 43.5061728,251.806366 L43.5061728,236.753086 L37.2229622,236.753086 L37.2229622,244.113453 Z" id="路径-60" stroke="#282828" stroke-width="4" fill="#FFFFFF"></path>
                    <path d="M95.2476535,237.940613 C79.4915309,241.741084 72.1558498,244.305389 73.2406104,245.633526 C74.325371,246.961664 83.7554556,246.961664 101.530864,245.633526 L101.530864,230.580247 L95.2476535,230.580247 L95.2476535,237.940613 Z" id="路径-60-copy" stroke="#282828" stroke-width="4" fill="#FFFFFF" transform="translate(87.333333, 238.604938) scale(-1, 1) translate(-87.333333, -238.604938) "></path>
                    <path d="M20.5,88.6666667 L93.8888889,88.4197531" id="直线-2-copy" stroke="#373737" stroke-width="2" stroke-linecap="square"></path>
                    <polygon id="矩形-copy-3" fill="#282828" points="49 9 60 9 60 46.2472003 54.5 52.8491211 49 46.2472003"></polygon>
                </g>
            </g>
        </g>
    </g>
</svg>