<?xml version="1.0" encoding="UTF-8"?>
<svg width="114px" height="255px" viewBox="0 0 114 255" version="1.1" xmlns="http://www.w3.org/2000/svg" xmlns:xlink="http://www.w3.org/1999/xlink">
    <!-- Generator: Sketch 52.5 (67469) - http://www.bohemiancoding.com/sketch -->
    <title>身体2</title>
    <desc>Created with Sketch.</desc>
    <g id="Page-1" stroke="none" stroke-width="1" fill="none" fill-rule="evenodd">
        <g id="匹配机制4" transform="translate(-1199.000000, -395.000000)" fill-rule="nonzero" stroke="#282828">
            <g id="分组" transform="translate(1172.000000, 267.000000)">
                <g id="身体2" transform="translate(29.000000, 130.000000)">
                    <path d="M18.8974778,111.300836 L41.5215012,111.300836 C64.0045741,115.100279 81.2718267,115.921811 93.323259,113.765432 C95.2620611,129.609053 99.6845871,132.051175 106.590837,121.091797 C107.312842,105.652127 108.230486,92.5104167 109.343767,81.6666667 C104.355486,58.9610183 106.16115,34.1523438 101.153337,22 C96.9684413,4 78.9523341,-2.8600823 47.1050154,1.41975309 C13.977658,-0.78911555 -1.2897634,22.0709668 1.30275121,70 C1.67076736,77.730512 3.27732201,95.0966507 6.12241515,122.098416 L6.12239665,122.098418 C6.43669699,125.081331 8.9521677,127.345679 11.951593,127.345679 L11.951593,127.345679 C14.8416881,127.345679 17.1845731,125.002794 17.1845731,122.112699 C17.1845731,122.099794 17.1845254,122.086888 17.1844299,122.073984 C17.144563,116.686419 17.1246899,113.09537 17.1248038,111.300836 C17.1279695,61.4145212 20.3312499,32.5708408 26.734645,24.7697949" id="路径-59" stroke-width="4" fill="#FFFFFF" transform="translate(55.182137, 64.000029) scale(-1, 1) translate(-55.182137, -64.000029) "></path>
                    <path d="M44.7407407,0.356397624 C15.2781636,-3.05202364 0.546875,20.3977266 0.546875,70.7056483 C0.546875,75.7305543 1.54080351,92.7443782 3.52866053,121.74712 L3.52865169,121.74712 C3.79233608,125.594264 6.9899852,128.580247 10.8461542,128.580247 L10.8461542,128.580247 C14.4329954,128.580247 17.3407047,125.672538 17.3407047,122.085696 C17.3407047,121.979841 17.3381167,121.874002 17.332943,121.768273 C15.0676215,75.4754322 17.4134433,46.8660237 24.3703704,35.9400496" id="路径-59-copy" stroke-width="4" fill="#FFFFFF"></path>
                    <path d="M44,63.2085339 L54.6036863,83.0113707 L65.5058594,64.59735 C62.2738976,24.4319559 58.8551552,4.23283926 55.2496323,4 C51.6441094,3.76716074 47.8942319,23.5033387 44,63.2085339 Z" id="路径-57" fill="#282828" transform="translate(54.752930, 43.504667) scale(-1, 1) translate(-54.752930, -43.504667) "></path>
                    <path d="M17.5802469,113.437161 C18.7762892,115.860525 25.040701,116.709388 36.3734825,115.98375 C53.3726546,114.895292 60.3008502,110.854692 67.5545777,110.237302 C72.3903961,109.825708 80.8351665,110.137783 92.8888889,111.173526" id="路径-55" stroke-width="3"></path>
                    <path d="M26.2222222,116.840428 C31.1838943,126.075611 32.2978557,147.719742 29.5641066,181.772821 C25.4634829,232.85244 34.6636735,234.753086 34.6636735,234.753086 C34.6636735,234.753086 39.0356386,234.753086 47.7795689,234.753086 L50.8145261,189.171875 C53.460517,165.96877 54.7835125,150.306014 54.7835125,142.183609 C54.7835125,134.061203 53.460517,124.588477 50.8145261,113.765432 L26.2222222,116.840428 Z" id="路径-56" stroke-width="4" fill="#FFFFFF"></path>
                    <path d="M63.2592593,111.296296 C63.2592593,119.880701 64.3777076,141.636045 66.6146043,176.562325 C69.9699493,228.951747 71.7347115,229.814815 71.7347115,229.814815 C71.7347115,229.814815 76.1242862,229.814815 84.9034357,229.814815 L87.9506173,176.562325 C87.9506173,163.352208 87.9506173,151.686549 87.9506173,141.565348 C87.9506173,131.444148 86.9348901,121.354464 84.9034357,111.296296 L63.2592593,111.296296 Z" id="路径-56-copy" stroke-width="4" fill="#FFFFFF"></path>
                    <path d="M37.2229622,242.113453 C21.4668395,245.913924 14.1311585,248.478228 15.2159191,249.806366 C16.3006796,251.134504 25.7307642,251.134504 43.5061728,249.806366 L43.5061728,234.753086 L37.2229622,234.753086 L37.2229622,242.113453 Z" id="路径-60" stroke-width="4" fill="#FFFFFF"></path>
                    <path d="M95.2476535,235.940613 C79.4915309,239.741084 72.1558498,242.305389 73.2406104,243.633526 C74.325371,244.961664 83.7554556,244.961664 101.530864,243.633526 L101.530864,228.580247 L95.2476535,228.580247 L95.2476535,235.940613 Z" id="路径-60-copy" stroke-width="4" fill="#FFFFFF" transform="translate(87.333333, 236.604938) scale(-1, 1) translate(-87.333333, -236.604938) "></path>
                </g>
            </g>
        </g>
    </g>
</svg>