<?xml version="1.0" encoding="UTF-8"?>
<svg width="66px" height="75px" viewBox="0 0 66 75" version="1.1" xmlns="http://www.w3.org/2000/svg" xmlns:xlink="http://www.w3.org/1999/xlink">
    <!-- Generator: Sketch 52.5 (67469) - http://www.bohemiancoding.com/sketch -->
    <title>脸1</title>
    <desc>Created with Sketch.</desc>
    <g id="Page-1" stroke="none" stroke-width="1" fill="none" fill-rule="evenodd">
        <g id="匹配机制4" transform="translate(-277.000000, -466.000000)" fill-rule="nonzero">
            <g id="分组-3-copy-2" transform="translate(224.875596, 451.000000)">
                <g id="分组-copy-7" transform="translate(29.000000, 0.000000)">
                    <g id="脸1" transform="translate(26.000000, 17.000000)">
                        <path d="M5.23811414,30.9824219 C4.23284643,43.9731267 7.54593507,50.0568669 15.17738,49.2336426 C16.1047486,52.2005365 26.7352063,76.7925874 42.7139702,69.5655382 C47.8680222,66.259049 58.347583,62.4349881 60.3544758,31.382716 C62.3613686,0.330443957 32.962159,-2.90506495 22.5149696,2.23493693 C15.5501767,5.66160485 9.79122483,15.2440998 5.23811414,30.9824219 Z" id="路径-53" stroke="#282828" stroke-width="4" fill="#FFFFFF" transform="translate(32.757485, 35.569534) scale(-1, 1) translate(-32.757485, -35.569534) "></path>
                        <path d="M27.3700421,33 C30.545671,42.9917695 31.0227587,47.9876543 28.8013053,47.9876543 C27.8270143,47.8114095 26.8932459,47.4648918 26,46.9481013" id="路径-51" stroke="#282828" stroke-width="2" stroke-linecap="round" transform="translate(28.086420, 40.493827) scale(-1, 1) translate(-28.086420, -40.493827) "></path>
                        <path d="M24.9135802,54.8395062 C26.1052625,59.1522634 28.5743983,59.1522634 32.3209877,54.8395062" id="路径-52" stroke="#282828" stroke-width="2" stroke-linecap="round" transform="translate(28.617284, 56.456790) scale(-1, 1) translate(-28.617284, -56.456790) "></path>
                        <path d="M1.88059278,33 C8.17366621,34.5811447 7.54680195,39.1078937 0,46.5802469" id="路径-54" stroke="#282828" stroke-width="4" transform="translate(3.086420, 39.790123) scale(-1, 1) translate(-3.086420, -39.790123) "></path>
                        <g id="分组-2-copy-2" transform="translate(7.000000, 32.000000)">
                            <rect id="矩形" stroke="#3D3D3D" stroke-width="2" x="4" y="1" width="12" height="11" rx="4"></rect>
                            <rect id="矩形-copy" stroke="#3D3D3D" stroke-width="2" x="24" y="0" width="12" height="11" rx="4"></rect>
                            <path d="M0.5,6.5 L4,6.5" id="直线" stroke="#3B3B3B" stroke-linecap="square"></path>
                            <path d="M35.5061728,6.5 L41.5,6.5" id="直线-copy" stroke="#3B3B3B" stroke-linecap="square"></path>
                        </g>
                        <ellipse id="椭圆形" stroke="#282828" fill="#000000" transform="translate(36.641975, 38.172840) scale(-1, 1) translate(-36.641975, -38.172840) " cx="36.6419753" cy="38.1728395" rx="1.85185185" ry="3.08641975"></ellipse>
                        <ellipse id="椭圆形-copy" stroke="#282828" fill="#000000" transform="translate(18.123457, 38.172840) scale(-1, 1) translate(-18.123457, -38.172840) " cx="18.1234568" cy="38.1728395" rx="1.85185185" ry="3.08641975"></ellipse>
                        <ellipse id="椭圆形" fill="#FFFFFF" transform="translate(37.617284, 38.172840) scale(-1, 1) translate(-37.617284, -38.172840) " cx="37.617284" cy="38.1728395" rx="1" ry="1.85185185"></ellipse>
                        <ellipse id="椭圆形-copy-2" fill="#FFFFFF" transform="translate(19.086420, 38.333333) scale(-1, 1) translate(-19.086420, -38.333333) " cx="19.0864198" cy="38.3333333" rx="1" ry="1.85185185"></ellipse>
                        <path d="M33,26.2882354 C37.4628003,25.6983928 40.7549814,26.013837 42.8765432,27.2345679" id="路径-49" stroke="#282828" stroke-width="2" stroke-linecap="round" transform="translate(37.938272, 26.617284) scale(-1, 1) translate(-37.938272, -26.617284) "></path>
                        <path d="M13,27.2882354 C17.4628003,26.6983928 20.7549814,27.013837 22.8765432,28.2345679" id="路径-49-copy" stroke="#282828" stroke-width="2" stroke-linecap="round" transform="translate(17.938272, 27.617284) scale(-1, 1) translate(-17.938272, -27.617284) "></path>
                    </g>
                </g>
            </g>
        </g>
    </g>
</svg>